<?xml version="1.0" encoding="UTF-8" standalone="no"?>
<svg width="256px" height="256px" viewBox="0 0 256 256" version="1.1" xmlns="http://www.w3.org/2000/svg" xmlns:xlink="http://www.w3.org/1999/xlink">
    <!-- Generator: Sketch 3.7 (28169) - http://www.bohemiancoding.com/sketch -->
    <title>256</title>
    <desc>Created with Sketch.</desc>
    <defs>
        <polygon id="path-1" points="181.54199 0.287887842 181.54199 156.030003 0 156.030003 0 0.287887842 181.54199 0.287887842"></polygon>
    </defs>
    <g id="Page-1" stroke="none" stroke-width="1" fill="none" fill-rule="evenodd">
        <g id="256">
            <g id="Group-10" transform="translate(37.000000, 57.000000)">
                <mask id="mask-2" fill="white">
                    <use xlink:href="#path-1"></use>
                </mask>
                <g id="Clip-9"></g>
                <path d="M170.700792,38.107761 L11.5098185,38.107761 L11.5098185,144.102476 C12.1459597,144.130815 12.6936732,144.17649 13.2413867,144.17649 C55.9896049,144.179824 98.7378231,144.185825 141.486041,144.135149 C142.365947,144.134149 143.465745,143.692064 144.091127,143.081279 C152.632634,134.738342 161.097481,126.318723 169.618478,117.955448 C170.453329,117.135957 170.72332,116.304797 170.721975,115.173913 C170.694068,90.1184287 170.700792,65.0632775 170.700792,40.0081264 L170.700792,38.107761 Z M29.9562322,0.293489768 C29.9562322,4.1078899 29.9764058,7.7565915 29.930679,11.4049597 C29.9249631,11.8647148 29.5756234,12.3228029 29.3769134,12.7778904 C27.5451495,16.9763643 28.8016292,21.7996251 32.45776,24.5974965 C36.0147039,27.3193532 41.0836599,27.2983491 44.6295083,24.5471534 C48.2120054,21.7669522 49.4271292,17.0083705 47.7123723,12.84557 C47.3253752,11.9057227 47.0960685,10.8418514 47.0695065,9.8283232 C46.9874672,6.7267268 47.0395823,3.62179643 47.0395823,0.4065115 L135.082601,0.4065115 C135.082601,2.81097385 135.07823,5.23243947 135.084282,7.65390508 C135.089662,9.6976314 134.98375,11.6456727 134.17109,13.6483911 C132.553502,17.6378249 134.160667,22.1947011 137.681971,24.7325224 C141.21706,27.2803457 145.909778,27.2750113 149.447557,24.7195199 C152.908676,22.2197059 154.524919,17.7248416 152.985,13.785084 C152.14107,11.6270024 152.006916,9.51026204 152.027762,7.29650303 C152.048608,5.03173421 152.032469,2.76696539 152.032469,0.401510539 C152.682059,0.358168871 153.167907,0.298157332 153.653755,0.297490537 C159.425089,0.291155986 165.196086,0.279487075 170.967084,0.297490537 C177.197368,0.317494384 181.536711,4.61765458 181.537384,10.7955092 C181.544108,55.6864745 181.543436,100.57744 181.538056,145.468405 C181.537048,151.790954 177.295882,156.020434 170.896813,156.021768 C117.50029,156.033103 64.1041038,156.032436 10.7079174,156.022768 C4.19587575,156.021434 0.00245445602,151.823627 0.00211822917,145.37272 C-0.000907812499,100.64812 -0.000571585647,55.9238535 0.00178200232,11.1999203 C0.00211822917,4.45095586 4.18713385,0.305492076 11.0058144,0.295156755 C16.7206622,0.286821819 22.43551,0.293489768 28.150694,0.293489768 L29.9562322,0.293489768 Z" id="Fill-8" fill="#FFFFFF" mask="url(#mask-2)"></path>
            </g>
            <path d="M185.960937,39 C185.990861,49.9347693 185.987163,60.869872 185.963627,71.8046413 C185.955894,75.3036474 183.888435,77.3080328 180.441773,77.2930299 C177.00419,77.2783605 175.017425,75.2623061 175.008347,71.7312938 C174.994226,66.2915812 175.004649,60.8518685 175.004649,55.4121559 C175.004649,49.9727766 174.991536,44.5330639 175.009356,39.0933513" id="Fill-13" fill="#FFFFFF"></path>
            <path d="M127.961168,145.525512 C134.974523,145.496173 139.436254,140.011452 137.551702,133.735245 C136.199734,129.231046 131.101863,126.585204 125.728285,127.598399 C121.57084,128.381883 118.755613,130.922038 118.04651,134.529065 C116.826679,140.734925 121.171403,145.553518 127.961168,145.525512 M110.151567,178.761237 C116.668316,171.393153 122.89591,164.352133 129.345077,157.06073 C125.199736,158.373983 121.387933,157.970572 117.641357,156.923704 C109.596793,154.675939 104.327782,147.987653 103.228657,139.489685 C101.375038,125.153929 110.978013,115.345376 125.253869,114.135476 C130.750169,113.66972 136.091469,114.368521 141.113353,116.798655 C149.986044,121.092481 154.584618,129.957185 153.237694,139.783408 C152.133525,147.837957 148.337523,154.570918 143.187873,160.661423 C138.296109,166.447202 133.314572,172.158634 128.340431,177.875066 C127.983359,178.285478 127.366382,178.717561 126.865741,178.723229 C121.4461,178.783908 116.025451,178.761237 110.151567,178.761237" id="Fill-17" fill="#FFFFFF"></path>
            <path d="M81.0442128,39.083016 C81.0590068,44.523062 81.0482476,49.9627747 81.0482476,55.4031541 C81.0482476,60.7875228 81.0566532,66.1718915 81.0452215,71.5565936 C81.0374883,75.1492844 78.9814611,77.2263505 75.4897452,77.2073468 C72.0736804,77.1886765 70.0156359,75.1272802 70.0112649,71.6399429 C69.9971434,60.7598508 69.9947898,49.8797587 70.012946,39" id="Fill-11" fill="#FFFFFF"></path>
        </g>
    </g>
</svg>