<?xml version="1.0" encoding="UTF-8" standalone="no"?>
<svg width="256px" height="256px" viewBox="0 0 256 256" version="1.1" xmlns="http://www.w3.org/2000/svg" xmlns:xlink="http://www.w3.org/1999/xlink">
    <!-- Generator: Sketch 3.7 (28169) - http://www.bohemiancoding.com/sketch -->
    <title>256</title>
    <desc>Created with Sketch.</desc>
    <defs></defs>
    <g id="Page-1" stroke="none" stroke-width="1" fill="none" fill-rule="evenodd">
        <g id="256" fill="#FEFEFE">
            <path d="M169.397761,68.7469708 C166.59131,67.6763102 164.351679,66.5564946 161.981479,65.9635606 C148.62664,62.6056497 135.259513,59.2876774 121.853983,56.1356036 C112.476103,53.9313026 109.469958,55.6210107 104.173491,65.9973548 C106.728023,66.9835299 109.147377,68.2124085 111.712662,68.8591059 C124.571341,72.1018095 137.46535,75.1985837 150.351679,78.3322242 C160.849374,80.8821474 162.986087,79.9051889 169.397761,68.7469708 M199.671187,127.868323 C185.026026,145.932839 170.734167,163.261564 156.826333,180.895972 C152.516041,186.359874 148.00452,187.665558 141.516041,185.481226 C130.153522,181.656341 118.611279,178.36141 107.138161,174.866786 C90.1043667,169.679382 73.0659643,164.511948 56.2042131,159.38906 C49.9968398,170.507339 53.1151194,179.439751 63.9476847,182.934375 C88.9645818,191.005035 114.05982,198.840673 139.009129,207.115634 C143.907746,208.73929 146.698837,208.087985 150.00452,203.957416 C165.658898,184.398276 181.483783,164.963561 197.728023,145.891364 C202.522185,140.2631 203.990695,135.184759 199.671187,127.868323 M151.637393,225.161717 L143.956901,225.161717 C141.746456,224.087985 139.628176,222.728538 137.31174,221.981994 C111.53601,213.671702 85.7310948,205.447432 59.9277154,197.215481 C41.2610487,191.260028 33.4607415,174.224697 40.640465,155.846817 C41.6850119,153.175542 41.5790211,149.545742 40.7418475,146.73161 C35.9953037,130.771548 36.7264865,116.101809 48.5897738,103.057263 C68.9123544,80.7085683 89.1212638,58.2554193 109.045995,35.5534224 C113.574413,30.3952042 118.205749,29.0879846 124.588238,30.5749277 C152.708053,37.1432841 180.880096,43.4889062 209.02449,49.9512718 C220.365503,52.5549585 221.838622,56.6747741 214.443844,65.4412872 C193.646609,90.0925929 172.614351,114.548814 152.052139,139.395204 C147.175027,145.29075 142.55598,146.319935 135.433092,144.051118 C112.308668,136.685527 88.9722623,129.986602 65.7310948,122.98353 C60.9430764,121.539597 56.4899274,121.14482 53.8985295,126.511948 C50.0506033,134.481226 53.9707262,143.118707 62.5836294,145.774621 C87.9737984,153.608722 113.43002,161.23545 138.734167,169.336833 C144.056748,171.041902 146.955365,169.842209 150.267193,165.614866 C162.420803,150.103346 175.010665,134.934375 187.354751,119.570319 C195.211894,109.793054 204.915427,101.127923 204.614351,86.7177849 C204.566732,84.453576 209.952293,82.0756958 212.826333,79.7485069 C214.830941,82.8544976 218.526794,85.9650967 218.514505,89.063407 C218.480711,97.5273087 216.486855,105.965097 216.039851,114.45204 C215.721878,120.491978 215.508361,126.965097 217.313276,132.579536 C219.611279,139.728538 217.832477,144.601041 213.373184,149.966633 C192.649682,174.911333 172.190388,200.075696 151.637393,225.161717" id="Page-1"></path>
        </g>
    </g>
</svg>