<?xml version="1.0" encoding="UTF-8" standalone="no"?>
<svg width="256px" height="256px" viewBox="0 0 256 256" version="1.1" xmlns="http://www.w3.org/2000/svg" xmlns:xlink="http://www.w3.org/1999/xlink">
    <!-- Generator: Sketch 3.7 (28169) - http://www.bohemiancoding.com/sketch -->
    <title>256</title>
    <desc>Created with Sketch.</desc>
    <defs>
        <polygon id="path-1" points="0 0.0362938776 0 123.740049 154.743932 123.740049 154.743932 0.0362938776"></polygon>
        <polygon id="path-3" points="46.6878206 101.877551 93.3630822 101.877551 93.3630822 0.942298724 0.0125589818 0.942298724 0.0125589818 101.877551"></polygon>
    </defs>
    <g id="Page-1" stroke="none" stroke-width="1" fill="none" fill-rule="evenodd">
        <g id="256">
            <g id="Page-1" transform="translate(50.000000, 56.000000)">
                <g id="Group-3" transform="translate(0.000000, 0.025143)">
                    <mask id="mask-2" fill="white">
                        <use xlink:href="#path-1"></use>
                    </mask>
                    <g id="Clip-2"></g>
                    <path d="M154.743932,0.0362938776 L154.743932,22.8229061 L139.717425,22.8229061 C139.421226,20.4319673 139.149445,18.2193143 138.841568,15.7286204 L15.8182808,15.7286204 L15.8182808,108.088049 L92.6154726,108.088049 L92.6154726,123.740049 L-0.000212328767,123.740049 L-0.000212328767,0.0362938776 L154.743932,0.0362938776 Z" id="Fill-1" fill="#FEFEFE" mask="url(#mask-2)"></path>
                </g>
                <g id="Group-6" transform="translate(61.575342, 53.086367)">
                    <mask id="mask-4" fill="white">
                        <use xlink:href="#path-3"></use>
                    </mask>
                    <g id="Clip-5"></g>
                    <path d="M92.8461678,101.877551 L46.8355856,101.877551 L46.8355856,35.3982041 C42.4032226,36.7894694 38.7182568,37.8050612 35.1362705,39.1071837 C30.9650719,40.6226122 27.6272637,39.6388571 24.577161,36.5358367 C17.5097979,29.347102 10.2789418,22.3186122 3.23387329,15.1075918 C-0.909722603,10.8658776 -1.00527055,6.41934694 2.6552774,3.00963265 C5.95380479,-0.0636734694 10.4647295,0.278040816 14.4013048,4.1122449 C19.7212021,9.29526531 25.0336678,14.4963265 30.1327432,19.8947755 C32.3473322,22.2390204 34.4228459,23.2333878 37.5005514,21.7657143 C52.6831199,14.5281633 68.9294555,16.4521633 84.9231199,16.493551 C90.4935651,16.5073469 93.2931199,19.2973061 93.3122295,24.6034286 C93.4056541,49.7130612 93.3483253,74.8248163 93.3249692,99.934449 C93.3249692,100.42898 93.0892842,100.922449 92.8461678,101.877551" id="Fill-4" fill="#FEFEFE" mask="url(#mask-4)"></path>
                </g>
                <path d="M131.573342,30.7596898 C140.43276,30.7225469 147.383342,37.6385469 147.313274,46.422302 C147.24639,54.921649 140.34889,61.7591184 131.78461,61.8174857 C122.999507,61.8769143 115.847212,54.7709551 115.979918,46.1177306 C116.112623,37.6088327 123.029233,30.7957714 131.573342,30.7596898" id="Fill-7" fill="#FEFEFE"></path>
            </g>
        </g>
    </g>
</svg>