<?xml version="1.0" encoding="UTF-8" standalone="no"?>
<svg width="256px" height="256px" viewBox="0 0 256 256" version="1.1" xmlns="http://www.w3.org/2000/svg" xmlns:xlink="http://www.w3.org/1999/xlink">
    <!-- Generator: Sketch 3.7 (28169) - http://www.bohemiancoding.com/sketch -->
    <title>256</title>
    <desc>Created with Sketch.</desc>
    <defs>
        <polygon id="path-1" points="0.115906953 141 147.539478 141 147.539478 0.000189261745 0.115906953 0.000189261745 0.115906953 141"></polygon>
    </defs>
    <g id="Page-1" stroke="none" stroke-width="1" fill="none" fill-rule="evenodd">
        <g id="256">
            <g id="Page-1" transform="translate(7.000000, 58.000000)">
                <g id="Group-3" transform="translate(47.265625, 0.000000)">
                    <mask id="mask-2" fill="white">
                        <use xlink:href="#path-1"></use>
                    </mask>
                    <g id="Clip-2"></g>
                    <path d="M37.469068,67.1795919 C37.2440836,64.228055 37.0351695,61.5083638 36.8366539,58.9060148 L30.4567398,58.9060148 L30.4567398,83.2252027 L36.9207867,83.2252027 C37.088107,80.3919544 37.2412477,77.7858201 37.4028961,75.0396322 L49.0746695,75.0396322 C49.2410445,78.0375383 49.384732,80.6398872 49.5284195,83.2337195 L56.2637711,83.2337195 C56.4273102,80.3976322 56.5776148,77.7886591 56.7430445,74.9203973 L68.3155602,74.9203973 C68.5377086,77.8038 68.7494586,80.5263302 68.9527008,83.1608537 L75.7523336,83.1608537 L75.7523336,74.9270215 L87.5687398,74.9270215 C87.7048648,77.7877128 87.8287008,80.393847 87.9582086,83.1012362 L94.9629742,83.1012362 L94.9629742,74.9856926 L106.97506,74.9856926 L106.97506,83.2677866 L113.568615,83.2677866 L113.568615,58.8672161 L107.056357,58.8672161 C106.906998,61.7392631 106.770873,64.3472899 106.622459,67.1568805 L95.0083492,67.1568805 C94.7862008,64.1826322 94.5829586,61.460102 94.3948414,58.9306188 L87.5555055,58.9306188 L87.5555055,67.1029409 L75.8118883,67.1029409 C75.6710367,64.1760081 75.5462555,61.5708201 75.414857,58.820847 L68.9025992,58.820847 C68.7154273,61.6361154 68.5424352,64.240357 68.3562086,67.0262899 L56.7288648,67.0262899 C56.5426383,64.0160819 56.3809898,61.4194107 56.2202867,58.8322027 L49.448068,58.8322027 C49.3138336,61.7790081 49.190943,64.5119477 49.0689977,67.1795919 L37.469068,67.1795919 Z M88.8590914,141.000189 L58.6090914,141.000189 C57.7327867,140.704941 56.874443,140.263961 55.9726148,140.137156 C37.4189664,137.514934 20.105568,131.186021 3.46806797,122.749679 C1.08588047,121.540297 0.109372656,120.107585 0.118825781,117.313136 C0.227536719,86.4625248 0.229427344,55.6109678 0.115989844,24.7613034 C0.105591406,21.9346792 1.07264609,20.3940886 3.51722422,19.3786993 C12.9315914,15.4751758 22.084107,10.7076725 31.7953023,7.81102148 C43.3205523,4.37308188 55.3222398,2.53345772 67.1169039,0.000189261745 L81.2965914,0.000189261745 C82.8147633,0.349377181 84.3159195,0.842404027 85.8529977,1.02598792 C106.362498,3.46935705 125.656326,9.76704161 144.018076,19.1440148 C146.561912,20.4423503 147.551654,21.9668537 147.539365,24.9306926 C147.41742,55.6346255 147.425927,86.3395047 147.528021,117.044384 C147.537474,119.920216 146.896552,121.811887 144.096537,122.875538 C131.645826,127.607082 119.316115,132.679297 106.744404,137.05976 C101.019591,139.053632 94.8363023,139.726458 88.8590914,141.000189 L88.8590914,141.000189 Z" id="Fill-1" fill="#FEFEFE" mask="url(#mask-2)"></path>
                </g>
                <path d="M242,76.6510067 C235.659789,90.5163221 225.042984,100.533 212.440078,109.769919 L212.440078,32.4120201 C225.116719,41.4880671 235.536898,51.5832886 242,65.295302 L242,76.6510067 Z" id="Fill-4" fill="#FEFEFE"></path>
                <path d="M0,67.1879195 C5.61232031,52.1009195 17.015625,42.070047 29.9456094,32.2539866 L29.9456094,109.860765 C17.1025938,100.025779 5.52157031,90.0658792 0,74.7583893 L0,67.1879195 Z" id="Fill-6" fill="#FEFEFE"></path>
            </g>
        </g>
    </g>
</svg>