<?xml version="1.0" encoding="UTF-8" standalone="no"?>
<svg width="256px" height="256px" viewBox="0 0 256 256" version="1.1" xmlns="http://www.w3.org/2000/svg" xmlns:xlink="http://www.w3.org/1999/xlink">
    <!-- Generator: Sketch 3.7 (28169) - http://www.bohemiancoding.com/sketch -->
    <title>256</title>
    <desc>Created with Sketch.</desc>
    <defs>
        <polygon id="path-1" points="22.6209627 50.1256637 22.6209627 0.487380818 0.407453111 0.487380818 0.407453111 50.1256637 22.6209627 50.1256637"></polygon>
        <polygon id="path-3" points="48.8967482 124.160472 0.0933966102 124.160472 0.0933966102 0.619551887 97.7000997 0.619551887 97.7000997 124.160472"></polygon>
    </defs>
    <g id="Page-1" stroke="none" stroke-width="1" fill="none" fill-rule="evenodd">
        <g id="256">
            <g id="Page-1" transform="translate(16.000000, 8.000000)">
                <path d="M94.1929871,150.20613 C90.3842278,151.275473 87.8587227,156.551705 85.690099,159.593004 C82.48576,164.087124 79.8721736,169.399734 78.3337871,174.716133 C77.5592786,177.391385 77.6116719,179.668759 77.5205532,182.415249 C77.4301939,185.138246 76.3284176,187.511111 76.2380583,190.249265 C76.1780719,192.065859 76.0565803,194.056762 76.2380583,195.861231 C76.4096651,197.567935 77.2099905,198.8419 76.6116447,200.559215 C75.3883769,204.070388 72.4042414,205.971863 74.2668583,210.155259 C76.371699,214.881284 81.945882,213.423916 85.9095431,212.087048 C89.2961193,210.944193 92.2346956,209.642944 95.2613532,207.701303 C97.3084854,206.387929 98.5795905,204.350039 101.247089,204.607712 C104.730858,204.94496 106.402126,208.368979 110.656607,207.588381 C111.158519,207.49668 111.283048,208.022636 111.827482,207.683114 C112.890533,207.021501 112.891292,204.525863 113.008228,203.5414 C113.679468,197.843039 114.241367,192.046155 115.285435,186.390992 C115.952879,182.777507 116.458587,179.43079 116.667401,175.761224 C116.839007,172.752514 118.006845,169.811253 118.027346,166.809363 C118.050885,163.408837 116.659807,160.470608 115.73875,157.267885 C114.946777,154.5123 114.463848,152.065164 111.705231,151.278504 C109.452323,150.635837 106.970099,151.507378 104.691374,151.527083 C102.098289,151.549061 100.303252,151.88252 98.2720651,150.219014 C95.7458007,148.147778 95.7374481,148.762403 94.1929871,150.20613" id="Fill-1" fill="#E2D6CC"></path>
                <path d="M112.761904,137.619261 C112.761904,137.619261 112.667748,130.947047 112.218229,132.499147 C111.770988,130.947047 111.079246,137.619261 111.079246,137.619261 L101.246785,148.428641 L103.669022,151.130418 C103.669022,151.130418 110.508995,151.130418 111.146826,151.153154 C111.348805,151.160732 111.630514,150.918217 111.920575,150.512003 C112.210636,150.918217 112.493104,151.160732 112.694324,151.153154 C113.332155,151.130418 120.172127,151.130418 120.172127,151.130418 L122.593605,148.428641 L112.761904,137.619261 Z" id="Fill-3" fill="#000000"></path>
                <path d="M129.647935,150.20613 C133.457454,151.275473 135.982959,156.551705 138.150823,159.593004 C141.355921,164.087124 143.968748,169.399734 145.507135,174.716133 C146.281643,177.391385 146.22925,179.668759 146.320369,182.415249 C146.410728,185.138246 147.512504,187.511111 147.602864,190.249265 C147.663609,192.065859 147.785101,194.056762 147.602864,195.861231 C147.432016,197.567935 146.630932,198.8419 147.229277,200.559215 C148.452545,204.070388 151.436681,205.971863 149.574064,210.155259 C147.469223,214.881284 141.895799,213.423916 137.931379,212.087048 C134.544803,210.944193 131.606226,209.642944 128.579569,207.701303 C126.532437,206.387929 125.262091,204.350039 122.593833,204.607712 C119.110064,204.94496 117.438796,208.368979 113.184315,207.588381 C112.682403,207.49668 111.873725,208.075686 111.328532,207.736922 C110.265481,207.075309 110.948871,204.525863 110.832694,203.5414 C110.161454,197.843039 109.599555,192.046155 108.555487,186.390992 C107.888043,182.777507 107.382335,179.43079 107.173521,175.761224 C107.001915,172.752514 105.834077,169.811253 105.813576,166.809363 C105.789277,163.408837 107.180355,160.470608 108.101413,157.267885 C108.894145,154.5123 109.377074,152.065164 112.135691,151.278504 C114.388599,150.635837 116.870823,151.507378 119.150308,151.527083 C121.742633,151.549061 123.537671,151.88252 125.568857,150.219014 C128.095121,148.147778 128.103474,148.762403 129.647935,150.20613" id="Fill-5" fill="#E2D6CC"></path>
                <path d="M131.856955,152.695099 C131.623843,151.86903 128.250175,150.725417 127.581212,150.278278 C123.28269,147.394615 117.26886,147.996357 111.920195,148.06608 C106.57229,147.996357 100.55846,147.394615 96.2591783,150.278278 C95.5909749,150.725417 92.2165478,151.86903 91.9841953,152.695099 C91.3030834,155.112678 96.7079376,154.947464 98.0041003,154.889108 C101.265388,154.740568 104.543382,154.524577 107.664955,154.051671 C108.452372,153.932687 115.389538,153.932687 116.176195,154.051671 C119.297768,154.524577 122.575761,154.740568 125.837049,154.889108 C127.133212,154.947464 132.537307,155.112678 131.856955,152.695099" id="Fill-7" fill="#000000"></path>
                <path d="M14.4637939,43.9634019 C17.0781397,49.9292887 12.3786956,64.6984962 21.7267092,66.1490434 C26.9789397,66.9652604 30.4543566,60.5666346 33.9168651,57.5889962 C35.6458414,56.1020717 37.684621,54.7060906 39.1136651,52.9129899 C39.9109532,51.9133704 40.3885668,50.4954113 41.2200244,49.5624836 C42.7113329,47.8883673 44.9384244,47.2684365 46.22016,45.3343736 C48.0850549,42.5196755 50.230899,38.8288893 51.4480922,35.670122 C53.2727431,30.9372761 56.5150481,27.1259899 58.452838,22.5272855 C60.4323905,17.8300591 59.3625058,14.2324899 56.8749668,9.94450881 C54.3137736,5.52996478 49.2597261,3.86191132 44.3021125,4.29237673 C36.970099,4.92973836 31.3837668,9.5238956 26.8946549,14.9062289 C24.2218414,18.1104679 21.7289871,20.6121692 19.9544515,24.4674113 C18.8063566,26.9638075 17.8906142,29.4852132 17.2907498,32.1672855 C16.515482,35.6314711 16.5936922,41.2540465 14.4637939,43.9634019" id="Fill-9" fill="#C28046"></path>
                <g id="Group-13" transform="translate(0.000000, 17.448248)" fill="#C28046">
                    <path d="M21.3039946,0.487380818 C18.3289708,3.78407893 15.1208353,7.61279591 11.4236963,10.2539437 C7.6202522,12.9708777 1.66944542,15.630972 0.345187797,20.7548745 C-1.09144949,26.3160632 2.24349288,32.2349626 5.05905898,36.7556072 C6.70299119,39.3959972 6.96419797,41.9340758 7.39928949,44.8624531 C7.68859119,46.8101575 8.77518102,52.8957865 11.1116149,48.6555506 C11.9886319,47.0625255 11.9453505,44.5335412 12.1124014,42.7396827 C12.5376217,38.1788714 13.4541234,33.4945286 14.7905302,29.1080255 C16.1276963,24.717733 17.0100285,20.423689 18.4876692,16.1266135 C20.2660014,10.9579972 23.9092285,4.8731261 21.3039946,0.487380818" id="Fill-11"></path>
                </g>
                <path d="M76.0241573,10.682666 C72.371059,6.32117233 67.5250658,6.48865975 62.7717098,3.85509057 C58.054042,1.24349937 52.2847132,-0.163849686 46.8555607,0.015763522 C39.0003742,0.274952201 31.6129302,4.75846164 26.20352,10.4795591 C22.6362251,14.2529522 19.8024353,17.7307792 18.5252556,22.8501346 C17.8327539,25.6261818 17.8441437,28.4734679 17.1896081,31.2260214 C16.5388692,33.9634176 15.6246454,36.5606094 14.7863539,39.2229774 C12.9799268,44.9630214 12.4309369,50.8485748 10.9426658,56.6507635 C10.1119675,59.8891063 7.98814373,64.8940245 9.15749966,68.2521094 C14.2487539,69.0410434 14.5304624,55.886839 14.6777708,52.7038201 C15.0437641,44.7962918 20.108442,37.1221849 22.6445776,29.7034774 C25.7076827,20.7402478 32.9637641,9.42613145 43.1022319,7.68153396 C47.238259,6.96990189 52.4920081,6.84182327 55.3425031,10.4060465 C57.4215268,13.0047541 57.3972285,17.9967887 56.9522658,21.1510088 C56.714598,22.8349774 55.882381,24.2931031 55.4510861,25.9247792 C54.4244827,29.8103358 57.4929031,29.2101094 59.7944081,27.1593358 C63.7952759,23.5966283 66.2326997,16.9774648 71.6945031,15.2222572 C72.5912624,14.9342698 77.2140149,14.2340057 76.0241573,10.682666" id="Fill-14" fill="#C28046"></path>
                <path d="M75.8102563,9.82931384 C66.2086292,3.24652767 61.9625003,19.1646535 57.5348936,24.5500182 C55.4756122,27.0539931 52.6615647,27.0456566 50.5878563,29.7701692 C48.4526427,32.5765308 47.2141885,35.8300308 46.0888732,39.1449176 C45.6720054,40.374927 45.9863647,42.8485874 44.8276393,43.7640843 C43.2763444,44.9895465 42.8306224,43.2767792 41.6149478,43.3177038 C39.7773885,43.3806063 39.7006969,44.9236126 39.6870292,46.5128484 C39.677158,47.714817 40.1304732,48.9668044 39.8730631,50.1680151 C39.5283308,51.7754396 38.2784868,53.2373547 37.9610902,55.021361 C37.5685207,57.2290119 37.6505275,59.9974805 40.5655647,59.9686818 C44.560358,59.9285151 48.3941749,54.2604679 50.2294563,51.4351597 C52.8430427,47.4147038 55.1248054,43.1479428 57.5295783,38.9956189 C59.2486834,36.0285906 60.8022563,32.6924836 63.3907851,30.3650906 C67.4007647,26.7607006 71.9908664,23.9967792 75.7851986,20.0680245 C77.1929817,18.6091409 78.9249953,17.0274836 79.1922766,14.9865623 C78.6835308,14.7455623 77.375219,14.4484805 77.0228936,14.0960748 C76.32128,13.3927792 76.7616868,12.2885748 75.8102563,9.82931384" id="Fill-16" fill="#C28046"></path>
                <path d="M105.104217,10.6952465 C96.7957153,10.6952465 87.9815051,11.1401113 80.1042983,13.1757277 C72.690278,15.0931176 66.5063593,22.6383881 61.1007458,27.732734 C52.1316339,36.1866805 47.9211932,48.8126553 38.3537356,56.2859289 C32.7590508,60.6557591 23.9395254,66.6587811 22.4580881,74.037322 C20.7503729,82.5428031 24.0632949,86.5799321 24.6305085,94.3730233 C24.9554983,98.8307654 24.5781153,103.357473 23.3601627,107.640907 C21.9592136,112.569281 22.0252746,118.188825 22.5347797,123.330158 C23.7937356,136.026614 29.2411119,149.95308 36.6528542,160.291828 C39.8609898,164.766243 41.0386983,167.570331 41.0060475,172.891278 C40.9749153,177.971225 45.6439864,183.921954 47.3585356,188.756353 C47.9378983,190.387272 49.1816678,194.457747 50.912922,195.264869 C54.2402712,196.81697 56.5797424,191.306558 57.9047593,189.004932 C63.3384678,179.561218 64.7196746,168.769269 68.6833356,158.763979 C73.3349424,147.023945 76.4648678,134.871633 80.6988475,122.926976 C83.0421153,116.316907 88.1477966,111.731844 91.6346034,105.748526 C94.1084746,101.502986 95.1555797,96.5185296 97.5451661,92.150973 C99.9560136,87.747039 103.038102,83.7068786 104.322115,78.8315547 C105.455024,74.5291742 105.81722,69.8213377 105.768624,65.3863314 C105.707119,59.8463629 105.644854,55.1036648 106.226495,49.6015893 C106.547688,46.5640799 106.059444,43.6334289 105.744325,40.6406333 C105.366942,37.0582214 104.843769,33.4667151 104.609139,29.8615673 C104.341858,25.7539572 105.457302,23.2196679 106.347227,19.3856459 C107.138441,15.9760264 105.615241,12.9506428 105.104217,10.6952465" id="Fill-18" fill="#C28046"></path>
                <path d="M209.377508,43.9634019 C206.763162,49.9292887 211.461847,64.6984962 202.114593,66.1490434 C196.862362,66.9652604 193.386186,60.5666346 189.924437,57.5889962 C188.19546,56.1020717 186.155921,54.7060906 184.726877,52.9129899 C183.929589,51.9133704 183.451976,50.4954113 182.620518,49.5624836 C181.129969,47.8883673 178.902118,47.2684365 177.621142,45.3343736 C175.755487,42.5196755 173.610403,38.8288893 172.393209,35.670122 C170.567799,30.9372761 167.325494,27.1259899 165.387704,22.5272855 C163.408911,17.8300591 164.478037,14.2324899 166.966335,9.94450881 C169.527528,5.52996478 174.580816,3.86191132 179.53843,4.29237673 C186.870443,4.92973836 192.457535,9.5238956 196.946647,14.9062289 C199.618701,18.1104679 202.112315,20.6121692 203.88685,24.4674113 C205.034186,26.9638075 205.949928,29.4852132 206.549793,32.1672855 C207.32506,35.6314711 207.24685,41.2540465 209.377508,43.9634019" id="Fill-20" fill="#C28046"></path>
                <g id="Group-24" transform="translate(201.220339, 17.448248)">
                    <mask id="mask-2" fill="white">
                        <use xlink:href="#path-1"></use>
                    </mask>
                    <g id="Clip-23"></g>
                    <path d="M1.31658847,0.487380818 C4.2916122,3.78407893 7.50050712,7.61279591 11.1976461,10.2539437 C15.0003308,12.9708777 20.9511376,15.630972 22.2761546,20.7548745 C23.7120325,26.3160632 20.3778495,32.2349626 17.5615241,36.7556072 C15.9175919,39.3959972 15.6563851,41.9340758 15.2212936,44.8624531 C14.9319919,46.8101575 13.845402,52.8957865 11.5089681,48.6555506 C10.6327105,47.0625255 10.6752325,44.5335412 10.5074224,42.7396827 C10.0829614,38.1788714 9.16645966,33.4945286 7.83005288,29.1080255 C6.49288678,24.717733 5.61055458,20.423689 4.1329139,16.1266135 C2.35458169,10.9579972 -1.28864542,4.8731261 1.31658847,0.487380818" id="Fill-22" fill="#C28046" mask="url(#mask-2)"></path>
                </g>
                <path d="M147.816765,10.682666 C151.470622,6.32117233 156.315097,6.48865975 161.069212,3.85509057 C165.78688,1.24349937 171.556968,-0.163849686 176.985361,0.015763522 C184.840548,0.274952201 192.227992,4.75846164 197.637402,10.4795591 C201.204697,14.2529522 204.038487,17.7307792 205.315666,22.8501346 C206.008168,25.6261818 205.996778,28.4734679 206.651314,31.2260214 C207.302053,33.9634176 208.216277,36.5606094 209.053809,39.2229774 C210.860236,44.9630214 211.409985,50.8485748 212.898256,56.6507635 C213.728955,59.8891063 215.852778,64.8940245 214.684182,68.2521094 C209.592168,69.0410434 209.31046,55.886839 209.163151,52.7038201 C208.797917,44.7962918 203.733239,37.1221849 201.196344,29.7034774 C198.133239,20.7402478 190.877158,9.42613145 180.737931,7.68153396 C176.602663,6.96990189 171.348914,6.84182327 168.498419,10.4060465 C166.419395,13.0047541 166.443694,17.9967887 166.888656,21.1510088 C167.127083,22.8349774 167.958541,24.2931031 168.390595,25.9247792 C169.41568,29.8103358 166.348019,29.2101094 164.046514,27.1593358 C160.044887,23.5966283 157.608982,16.9774648 152.146419,15.2222572 C151.24966,14.9342698 146.626907,14.2340057 147.816765,10.682666" id="Fill-25" fill="#C28046"></path>
                <path d="M148.031121,9.82931384 C157.632748,3.24652767 161.878118,19.1646535 166.305725,24.5500182 C168.365006,27.0539931 171.179054,27.0456566 173.253521,29.7701692 C175.387976,32.5765308 176.62643,35.8300308 177.752504,39.1449176 C178.168613,40.374927 177.854254,42.8485874 179.013738,43.7640843 C180.565033,44.9895465 181.009996,43.2767792 182.225671,43.3177038 C184.06323,43.3806063 184.140681,44.9236126 184.153589,46.5128484 C184.16422,47.714817 183.710145,48.9668044 183.967555,50.1680151 C184.312287,51.7754396 185.562891,53.2373547 185.880287,55.021361 C186.272098,57.2290119 186.190091,59.9974805 183.275813,59.9686818 C179.28026,59.9285151 175.446443,54.2604679 173.611162,51.4351597 C170.997576,47.4147038 168.715813,43.1479428 166.31104,38.9956189 C164.592694,36.0285906 163.038362,32.6924836 160.449833,30.3650906 C156.439854,26.7607006 151.849752,23.9967792 148.05542,20.0680245 C146.647637,18.6091409 144.915623,17.0274836 144.648342,14.9865623 C145.157087,14.7455623 146.465399,14.4484805 146.817725,14.0960748 C147.519338,13.3927792 147.078932,12.2885748 148.031121,9.82931384" id="Fill-27" fill="#C28046"></path>
                <path d="M118.736401,10.6952465 C127.044903,10.6952465 135.859873,11.1401113 143.73632,13.1757277 C151.15034,15.0931176 157.334259,22.6383881 162.739873,27.732734 C171.709744,36.1866805 175.920184,48.8126553 185.486883,56.2859289 C191.081567,60.6557591 199.901093,66.6587811 201.38253,74.037322 C203.091005,82.5428031 199.778083,86.5799321 199.21011,94.3730233 C198.88512,98.8307654 199.263262,103.357473 200.480456,107.640907 C201.882164,112.569281 201.815344,118.188825 201.305839,123.330158 C200.047642,136.026614 194.599506,149.95308 187.187764,160.291828 C183.980388,164.766243 182.80192,167.570331 182.83533,172.891278 C182.866462,177.971225 178.196632,183.921954 176.482083,188.756353 C175.90272,190.387272 174.658951,194.457747 172.927696,195.264869 C169.600347,196.81697 167.260876,191.306558 165.935859,189.004932 C160.502151,179.561218 159.121703,168.769269 155.157283,158.763979 C150.506435,147.023945 147.375751,134.871633 143.141771,122.926976 C140.798503,116.316907 135.693581,111.731844 132.206015,105.748526 C129.732144,101.502986 128.685798,96.5185296 126.295452,92.150973 C123.884605,87.747039 120.802517,83.7068786 119.518503,78.8315547 C118.385595,74.5291742 118.024157,69.8213377 118.071995,65.3863314 C118.134259,59.8463629 118.195764,55.1036648 117.614123,49.6015893 C117.293689,46.5640799 117.781174,43.6334289 118.096293,40.6406333 C118.473676,37.0582214 118.997608,33.4667151 119.231479,29.8615673 C119.498761,25.7539572 118.383317,23.2196679 117.493391,19.3856459 C116.702178,15.9760264 118.225378,12.9506428 118.736401,10.6952465" id="Fill-29" fill="#C28046"></path>
                <path d="M91.0437749,87.5508286 C92.425741,84.3397689 90.2176325,79.705445 89.6344732,76.364033 C89.0080325,72.771011 88.3641275,70.1003066 86.3245885,66.9445708 C84.2797342,63.7812563 82.6752868,61.2045267 78.6713817,60.7619355 C73.6507444,60.2071808 68.8692936,63.4364292 64.2032597,64.818011 C59.3709342,66.2503695 56.2971986,65.5970928 51.5658631,64.8384733 C51.365402,62.3193412 55.5720461,60.4769796 57.413402,59.0756934 C59.8622156,57.2113538 61.9754088,55.0673632 63.7408325,52.5095802 C67.4045614,47.1984858 68.8715715,41.917706 73.7076936,37.1462091 C76.2013071,34.6846745 78.6402495,32.0571682 81.33888,29.8411808 C83.3860122,28.158728 86.3648325,26.8711211 88.0345817,24.8317154 C89.8964393,22.5596462 90.6922088,18.6324072 92.9724529,16.7491211 C94.4349071,15.5403318 96.70528,15.0871305 98.3522495,13.9465487 C99.5079376,13.1462469 100.539856,11.7646651 101.647707,11.0765267 C103.240005,10.0882752 109.2265,8.05190094 115.211477,9.75860535 C117.929849,10.5323821 112.954772,19.9328978 113.462758,22.4664292 C114.316995,26.7248538 113.688277,30.5285613 113.240277,34.8938443 C112.301755,44.0533601 113.025388,53.3841525 112.640412,62.5800456 C112.465768,66.7588947 112.555368,70.7929921 113.238758,74.9187909 C113.558433,76.8513381 114.392927,79.1476588 114.055788,81.1468978 C113.496927,84.4572374 111.414107,85.2135833 108.593226,85.8092626 C102.678866,87.0589764 96.8556258,87.5508286 91.0437749,87.5508286" id="Fill-31" fill="#E2D6CC"></path>
                <path d="M132.797223,87.5508286 C131.415257,84.3397689 133.623365,79.705445 134.205765,76.364033 C134.832965,72.771011 135.476871,70.1003066 137.516409,66.9445708 C139.561264,63.7812563 141.165711,61.2045267 145.169616,60.7619355 C150.190254,60.2071808 154.971704,63.4364292 159.637738,64.818011 C164.470064,66.2503695 167.543799,65.5970928 172.274376,64.8384733 C172.475596,62.3193412 168.268952,60.4769796 166.427596,59.0756934 C163.978023,57.2113538 161.86483,55.0673632 160.100165,52.5095802 C156.436437,47.1984858 154.968667,41.917706 150.133304,37.1462091 C147.639691,34.6846745 145.200748,32.0571682 142.502118,29.8411808 C140.454986,28.158728 137.476165,26.8711211 135.806416,24.8317154 C133.944559,22.5596462 133.148789,18.6324072 130.868545,16.7491211 C129.405332,15.5403318 127.135718,15.0871305 125.488748,13.9465487 C124.33382,13.1462469 123.301142,11.7646651 122.193291,11.0765267 C120.600993,10.0882752 113.929589,8.05190094 110.794348,9.90032547 C108.361481,11.3357154 110.886226,19.9328978 110.37824,22.4664292 C109.524003,26.7248538 110.153481,30.5285613 110.600721,34.8938443 C111.539243,44.0533601 110.816369,53.3841525 111.200586,62.5800456 C111.374471,66.7588947 111.28563,70.7929921 110.60224,74.9187909 C110.282565,76.8513381 109.448071,79.1476588 109.785209,81.1468978 C110.344071,84.4572374 112.426891,85.2135833 115.247772,85.8092626 C121.162132,87.0589764 126.985372,87.5508286 132.797223,87.5508286" id="Fill-33" fill="#E2D6CC"></path>
                <path d="M112.147916,116.285153 C107.253326,114.367763 107.440119,126.254064 107.445435,129.143791 C107.454546,134.19797 106.749896,137.862989 102.551604,141.009631 C94.7222346,146.878511 85.7151566,150.47608 80.5335431,159.231656 C77.4370278,164.46469 76.0679702,170.366159 75.1651363,176.312341 C74.3929058,181.398351 74.200038,186.929225 72.9327295,191.906102 C71.8301939,196.235766 70.9919024,200.698055 70.0328786,205.035297 C69.7769871,206.192552 69.694221,207.554429 69.8255837,208.768524 C69.9956719,210.34336 69.6835905,210.112212 70.9303973,210.950407 C71.846899,211.562759 75.3534481,213.343734 76.3367702,213.362681 C79.4006346,213.42331 77.4332312,210.292583 77.3064244,208.411571 C77.0429397,204.49191 79.0255295,199.968234 79.460621,195.98264 C79.9503837,191.493068 80.7613397,187.073219 81.368038,182.633665 C82.6505329,173.246791 85.0970685,164.582917 90.1313736,158.09941 C94.5179769,152.451068 100.941082,149.340046 106.696743,145.717467 C113.476729,141.450706 112.321041,130.106275 112.575414,123.005112 C112.627807,121.559112 113.706045,117.205197 112.147916,116.285153" id="Fill-35" fill="#000000"></path>
                <path d="M72.8685668,100.310869 C71.1722414,100.515492 69.7523092,102.063803 68.1266007,102.635231 C66.403699,103.240762 64.3869397,103.768992 62.5881058,104.159291 C58.6426685,105.016432 53.3000786,104.329052 51.4215159,100.229778 C50.5126075,98.2456962 51.5149125,95.7697623 51.8953329,93.7705233 C52.2742346,91.7856836 51.798899,89.4143346 52.5787227,87.4954289 C54.5628312,82.6170736 64.6314414,83.994866 68.4956312,85.4294981 C72.1024108,86.7686396 74.1290414,88.7315013 73.7668447,92.4116774 C73.5170278,94.9399038 72.7060719,97.6447119 72.8685668,100.310869" id="Fill-37" fill="#FFFFFF"></path>
                <path d="M74.5036908,92.2393396 C69.2901858,98.0907893 60.2785519,104.559138 55.6201112,95.3359623 C54.4348095,92.9881069 52.4848705,88.348478 53.6284095,85.7573491 C54.4105112,83.9839528 57.7325451,84.1279465 59.6293315,83.8854308 C62.4555281,83.5239308 65.0736705,83.550456 67.6948502,84.7622767 C69.2203281,85.4678459 72.1384027,86.1938774 73.0943892,87.3852358 C73.6988095,88.1370346 73.6965315,89.3117201 73.9197722,90.1499151 C74.2060366,91.2253208 75.1703756,91.4905723 74.5036908,92.2393396" id="Fill-39" fill="#000000"></path>
                <path d="M72.7948366,100.569148 C73.9011688,98.9314094 73.55264,96.7078434 74.0598671,94.902617 C74.5883553,93.0216044 75.5200434,91.2474503 75.2398536,89.2527585 C74.5526671,84.3781925 68.8881247,84.3615195 65.0732908,83.6066893 C62.0139824,83.0011579 60.0822671,83.0314723 57.0108095,83.6241201 C55.1588231,83.981073 52.7160841,83.5831956 51.3811959,85.1489377 C50.2429722,86.4835321 50.4221722,89.414183 49.8572366,91.2353245 C48.9749044,94.0780635 47.0150942,97.3391421 47.0067417,100.363768 C46.9915553,105.843865 52.6902671,106.854853 56.9257654,105.202714 C55.1322468,102.953381 52.1389993,103.547545 52.0607892,100.048497 C52.0235824,98.3872648 52.9393247,96.6138686 53.0433519,94.9238371 C53.1625654,92.9882585 52.9438807,91.1951579 53.2840569,89.2466956 C54.5004908,82.2743686 70.2746468,84.955683 72.7492773,90.5312711 C74.2345112,93.8749566 71.6452231,97.3209535 72.5465383,100.521403 C72.7614264,100.552475 73.2299281,100.345579 72.7948366,100.569148" id="Fill-41" fill="#000000"></path>
                <path d="M63.6729492,88.344916 C64.106522,89.5355167 63.4907119,90.8519223 62.2978169,91.2831456 C61.1056814,91.7158846 59.7874983,91.1020167 59.3539254,89.911416 C58.9211119,88.7208154 59.5361627,87.4051676 60.7290576,86.9724286 C61.9211932,86.5404475 63.2393763,87.1550733 63.6729492,88.344916" id="Fill-43" fill="#000000"></path>
                <path d="M153.925511,104.611582 C152.286894,103.504347 151.778907,101.311095 150.633849,99.8256862 C149.440195,98.276617 147.912439,96.9776421 147.427233,95.0223591 C146.24269,90.2440415 151.491883,88.1197553 154.750134,85.9985006 C157.362202,84.2978591 159.165592,83.6066893 162.23629,83.0132836 C164.088277,82.6563308 166.206785,81.3770604 168.029917,82.3327239 C169.585009,83.1466673 170.514419,85.9325667 171.719463,87.4119126 C173.600304,89.721117 176.636833,92.0166799 177.775056,94.8207679 C179.837375,99.8999566 174.927599,102.959444 170.381538,103.002642 C171.203883,100.248573 174.202446,99.6854818 172.967788,96.4092459 C172.381592,94.8548717 170.868263,93.549834 170.140833,92.0204692 C169.307097,90.2690509 168.839355,88.5244535 167.796805,86.8427585 C164.06246,80.8268528 150.428073,89.1875824 150.215463,95.2815478 C150.087138,98.9367145 153.778202,101.170133 154.137361,104.475167 C153.949809,104.583542 153.438026,104.566111 153.925511,104.611582" id="Fill-45" fill="#000000"></path>
                <path d="M153.76013,104.399533 C155.410896,103.957699 157.306164,104.866375 159.027547,104.791347 C160.852957,104.711772 162.921351,104.450309 164.736889,104.143375 C168.718015,103.469636 173.418218,100.842888 173.62931,96.3389164 C173.731059,94.1600642 171.875276,92.2366113 170.774259,90.5230862 C169.682354,88.8224447 169.236632,86.4457906 167.795439,84.9550767 C164.13171,81.1680421 155.303832,86.1949384 152.255913,88.9641648 C149.409974,91.5499887 148.263398,94.1259604 149.97491,97.4052277 C151.1511,99.6568346 152.914245,101.866001 153.76013,104.399533" id="Fill-47" fill="#FFFFFF"></path>
                <path d="M111.693006,116.285153 C116.587596,114.367763 116.400803,126.254064 116.395487,129.143791 C116.386376,134.19797 117.091026,137.862989 121.289318,141.009631 C129.119447,146.878511 138.125765,150.47608 143.307379,159.231656 C146.403894,164.46469 147.772952,170.366159 148.676545,176.312341 C149.448016,181.398351 149.640884,186.929225 150.908193,191.906102 C152.010728,196.235766 152.849779,200.698055 153.807284,205.035297 C154.063935,206.192552 154.14746,207.554429 154.015338,208.768524 C153.84525,210.34336 154.157332,210.112212 152.910525,210.950407 C151.994023,211.562759 148.488233,213.343734 147.504911,213.362681 C144.440287,213.42331 146.406932,210.292583 146.534498,208.411571 C146.797982,204.49191 144.816152,199.968234 144.379542,195.98264 C143.890538,191.493068 143.078823,187.073219 142.472884,182.633665 C141.190389,173.246791 138.743854,164.582917 133.709548,158.09941 C129.322186,152.451068 122.899081,149.340046 117.144179,145.717467 C110.364193,141.450706 111.519881,130.106275 111.265508,123.005112 C111.213115,121.559112 110.134877,117.205197 111.693006,116.285153" id="Fill-49" fill="#000000"></path>
                <path d="M149.226446,97.5199679 C156.250934,101.007647 167.028751,103.654858 167.904249,93.362339 C168.126731,90.7431692 168.201904,85.7117258 166.172236,83.7337069 C164.783436,82.3794082 161.756019,83.749622 159.904792,84.2308642 C157.147694,84.9478013 154.728494,85.9466629 152.7497,88.0474553 C151.597809,89.2698862 149.161904,91.0303987 148.719978,92.4907981 C148.440548,93.4138736 148.881714,94.5029208 148.98726,95.3630937 C149.123178,96.4672981 148.327409,97.0728296 149.226446,97.5199679" id="Fill-51" fill="#000000"></path>
                <path d="M171.707997,183.988343 C171.690533,178.89627 170.698099,172.881123 171.676865,167.967906 C173.357245,159.535179 171.714072,151.185818 171.328336,142.411296 C170.48397,123.17222 161.68115,105.394302 146.132513,93.9051195 C140.370018,89.6459371 133.697855,86.8661006 127.144146,84.5349182 C124.54195,83.6088113 121.849394,82.5379528 119.216824,81.7331038 C117.392933,81.1745597 114.80896,81.3018805 112.777014,80.8213962 C112.364702,80.7425786 111.518818,80.7274214 111.064743,80.8213962 C109.031279,81.3018805 106.448065,81.1745597 104.622655,81.7331038 C101.991604,82.5379528 99.2990481,83.6088113 96.6968515,84.5349182 C90.1431431,86.8661006 83.470221,89.6459371 77.7077261,93.9051195 C62.1598481,105.394302 53.3577871,123.17222 52.5119024,142.411296 C52.1269261,151.185818 50.4845125,159.535179 52.1633736,167.967906 C53.1421397,172.881123 52.1512244,178.89627 52.1322414,183.988343 C52.1155363,188.559006 49.9727295,193.000075 49.9431159,197.576802 C49.8975566,204.609 55.5036312,210.289931 61.8143566,211.961016 C72.5261125,214.799965 76.3113329,203.540415 77.5391566,194.931107 C79.9735431,177.880736 81.0950617,158.155871 97.9975702,148.66517 C100.567116,147.222959 103.861055,146.074041 106.074479,144.082381 C110.66458,139.952792 111.02298,132.152881 111.649421,126.667478 C112.085272,122.841792 111.242424,118.998676 111.920499,115.263934 C112.599333,118.998676 111.925055,123.268469 112.361665,127.094154 C112.988106,132.580314 113.176418,139.952792 117.765001,144.082381 C119.979184,146.074041 123.273123,147.222959 125.844187,148.66517 C142.745177,158.155871 143.866696,177.880736 146.300323,194.931107 C147.529665,203.540415 151.315645,214.799965 162.026641,211.961016 C168.337367,210.289931 173.943441,204.609 173.898641,197.576802 C173.868268,193.000075 171.724702,188.559006 171.707997,183.988343" id="Fill-53" fill="#E2D6CC"></path>
                <path d="M160.168353,88.344916 C159.73402,89.5355167 160.349831,90.8519223 161.543485,91.2831456 C162.73562,91.7158846 164.053044,91.1020167 164.486617,89.911416 C164.92019,88.7208154 164.30438,87.4051676 163.112244,86.9724286 C161.920108,86.5404475 160.601166,87.1550733 160.168353,88.344916" id="Fill-55" fill="#000000"></path>
                <g id="Group-59" transform="translate(63.023729, 87.929381)">
                    <mask id="mask-4" fill="white">
                        <use xlink:href="#path-3"></use>
                    </mask>
                    <g id="Clip-58"></g>
                    <path d="M97.2380963,117.151767 C96.3519675,112.281748 93.9684556,107.597406 93.9844014,102.60916 C94.0011064,97.3124654 94.1977708,92.1006509 94.1977708,86.8213868 C94.1985302,81.3753931 94.5827471,74.7736604 93.0071539,69.5398679 C91.3328488,63.9786792 87.8240217,59.5421572 85.3250929,54.3652044 C83.033459,49.6164434 79.2527946,44.628956 79.0219607,39.3913742 C78.8678183,35.881717 76.7439946,32.6312484 78.1198861,29.5876761 C80.0660285,25.2898428 76.5177166,20.775261 74.052198,17.0329403 C68.5038319,8.61158176 60.230259,2.0682044 50.4015946,0.684349057 C50.3985573,0.59795283 47.3946793,0.59795283 47.391642,0.684349057 C37.5637369,2.0682044 29.2894047,8.61158176 23.7410386,17.0329403 C21.27552,20.775261 17.7279675,25.2898428 19.6733505,29.5876761 C21.0500014,32.6312484 18.9261776,35.881717 18.7712759,39.3913742 C18.540442,44.628956 14.7597776,49.6164434 12.4681437,54.3652044 C9.96921492,59.5421572 6.46114712,63.9786792 4.78684203,69.5398679 C3.21048949,74.7736604 3.59470644,81.3753931 3.59546576,86.8213868 C3.59546576,92.1006509 3.79213017,97.3124654 3.80883525,102.60916 C3.82478102,107.597406 1.44126915,112.281748 0.555140339,117.151767 C-0.0348528814,120.393142 -0.813917288,124.031635 3.55901831,124.146072 C3.86274712,124.152893 4.17255051,124.15744 4.48387254,124.160472 C10.9305166,122.416632 13.5365098,113.865679 14.5160353,107.001726 C16.9496624,89.9513553 18.071181,70.2249748 34.9736895,60.7365472 C37.5432353,59.2935786 40.8379336,58.1454182 43.0513573,56.153 C47.6406997,52.0234119 47.9990997,44.5076981 48.6255403,39.0230535 C48.740198,38.0188868 48.8525776,37.0162358 48.9634386,36.0143428 C49.0872081,37.1155157 49.2124963,38.2136572 49.3377844,39.3072516 C49.9642251,44.7926541 50.1525369,52.0234119 54.7418793,56.153 C56.9553031,58.1454182 60.2500014,59.2935786 62.8195471,60.7365472 C79.7220556,70.2249748 80.8435742,89.9513553 83.2772014,107.001726 C84.2567268,113.865679 86.86272,122.416632 93.3093641,124.160472 C93.6206861,124.15744 93.9312488,124.152893 94.2342183,124.146072 C98.6071539,124.031635 97.8280895,120.393142 97.2380963,117.151767" id="Fill-57" fill="#897668" mask="url(#mask-4)"></path>
                </g>
                <path d="M127.410744,101.358082 C125.134297,99.164073 122.926948,97.0208403 119.901809,96.0378937 C118.661836,95.6354692 117.036887,95.3300509 115.648087,95.5915132 C114.414948,95.8241767 113.442256,96.6494881 112.154446,96.6798025 C112.152927,96.6722239 112.14989,96.6654031 112.148372,96.6578245 C112.070921,96.6676767 111.995748,96.6722239 111.920575,96.6767711 C111.844643,96.6722239 111.770229,96.6676767 111.693538,96.6578245 C111.69126,96.6654031 111.688222,96.6722239 111.685944,96.6798025 C110.398134,96.6494881 109.425443,95.8241767 108.193063,95.5915132 C106.804263,95.3300509 105.180073,95.6354692 103.939341,96.0378937 C100.913443,97.0208403 98.7068529,99.164073 96.4304054,101.358082 C94.8646834,102.866985 84.8902292,115.48235 89.0740936,116.083334 C89.6306766,116.162909 92.6983376,115.486897 93.3384461,115.229982 C95.3901342,114.403155 94.3946631,113.45507 95.0484393,111.593004 C96.908019,106.300856 102.256683,108.477435 101.673524,113.732447 C101.432819,115.909026 100.655273,117.210274 99.3241817,118.846497 C98.2596122,120.153051 97.0310292,121.414133 97.6612664,123.324702 C98.5010766,125.871875 103.707748,128.425869 106.376765,128.018897 C107.455761,127.854441 116.384629,127.854441 117.463626,128.018897 C120.133402,128.425869 125.339314,125.871875 126.179883,123.324702 C126.810121,121.414133 125.581538,120.153051 124.516968,118.846497 C123.185877,117.210274 122.408331,115.909026 122.167626,113.732447 C121.583707,108.477435 126.933131,106.300856 128.792711,111.593004 C129.447246,113.45507 128.450256,114.403155 130.502704,115.229982 C131.142053,115.486897 134.210473,116.162909 134.767056,116.083334 C138.950161,115.48235 128.977226,102.866985 127.410744,101.358082" id="Fill-60" fill="#000000"></path>
                <path d="M144.796561,188.036688 C150.982758,205.319723 151.581863,222.495141 144.911219,239.628877 C134.219205,236.233657 124.935734,230.666405 117.340236,222.314012 C113.504141,225.066565 109.605782,225.146899 105.639843,222.450427 C98.1362224,230.950603 88.8702156,236.718688 77.9959647,240.259418 C71.7885071,223.026402 71.2007919,205.850984 77.8532122,188.65965 C88.57408,192.04805 97.845402,197.63349 105.443938,205.939653 C107.223029,204.715707 109.111463,203.890396 111.281605,203.858565 C113.462378,203.828251 115.360683,204.639921 117.148127,205.829006 C122.076127,200.207188 127.873551,195.744899 134.47206,192.311786 C137.755368,190.603565 141.160168,189.188638 144.796561,188.036688" id="Fill-62" fill="#BA122B"></path>
            </g>
        </g>
    </g>
</svg>