<?xml version="1.0" encoding="UTF-8" standalone="no"?>
<svg width="256px" height="256px" viewBox="0 0 256 256" version="1.1" xmlns="http://www.w3.org/2000/svg" xmlns:xlink="http://www.w3.org/1999/xlink">
    <!-- Generator: Sketch 3.7 (28169) - http://www.bohemiancoding.com/sketch -->
    <title>256</title>
    <desc>Created with Sketch.</desc>
    <defs>
        <polygon id="path-1" points="0.181876561 195.107685 108.68211 195.107685 108.68211 0 0.181876561 0"></polygon>
    </defs>
    <g id="Page-1" stroke="none" stroke-width="1" fill="none" fill-rule="evenodd">
        <g id="256">
            <g id="Page-1" transform="translate(75.000000, 32.000000)">
                <mask id="mask-2" fill="white">
                    <use xlink:href="#path-1"></use>
                </mask>
                <g id="Clip-2"></g>
                <path d="M54.3607118,79.0723606 C67.6452484,79.1111034 78.5167337,68.1977025 78.5535446,54.7865357 C78.5903555,41.3786245 67.762462,30.4681538 54.4265839,30.4766186 C41.1462451,30.4850834 30.4026293,41.2510015 30.3157685,54.6380762 C30.2292306,68.000082 41.087154,79.0336179 54.3607118,79.0723606 L54.3607118,79.0723606 Z M58.3127169,-0.000227898351 C62.1529978,0.751511091 66.0675462,1.2356323 69.8209662,2.29828976 C90.6104054,8.18425302 106.199821,27.2072539 108.4469,48.8712712 C109.337143,57.4513185 107.575063,65.5911965 105.266309,73.6871226 C100.180916,91.5201686 93.2636962,108.676356 86.1101116,125.737478 C76.4866449,148.689772 66.0794936,171.282312 55.2338405,193.671046 C55.0268599,194.097867 54.7914639,194.51134 54.4753422,195.107783 C54.2238011,194.723286 54.031674,194.490829 53.9044504,194.226793 C38.915311,163.145365 24.5228955,131.795667 12.2632519,99.4962853 C8.17433604,88.7232047 4.61207437,77.7821304 1.74599075,66.5893913 C-5.21482096,39.4099084 11.6736317,9.68089405 40.1604234,1.96425589 C43.1036808,1.16693723 46.1702869,0.834531204 49.1781248,0.278784797 C49.5371925,0.212368706 49.887219,0.0941871327 50.2411202,-0.000227898351 L58.3127169,-0.000227898351 Z" id="Fill-1" fill="#FFFFFF" mask="url(#mask-2)"></path>
            </g>
        </g>
    </g>
</svg>