<?xml version="1.0" encoding="UTF-8" standalone="no"?>
<svg width="256px" height="256px" viewBox="0 0 256 256" version="1.1" xmlns="http://www.w3.org/2000/svg" xmlns:xlink="http://www.w3.org/1999/xlink">
    <!-- Generator: Sketch 3.7 (28169) - http://www.bohemiancoding.com/sketch -->
    <title>256</title>
    <desc>Created with Sketch.</desc>
    <defs></defs>
    <g id="Page-1" stroke="none" stroke-width="1" fill="none" fill-rule="evenodd">
        <g id="256">
            <g id="Page-1" transform="translate(45.000000, 45.000000)"></g>
            <path d="M128.176243,114.43551 C115.452243,101.68651 102.929243,89.1375102 90.791243,76.9745102 C86.001243,81.7275102 81.443243,86.2515102 76.563243,91.0945102 C88.866243,103.32051 101.372243,115.74651 114.190243,128.48251 C101.396243,141.20651 88.817243,153.71451 76.322243,166.14151 C81.313243,171.16951 85.834243,175.72551 90.914243,180.84251 C103.459243,168.25351 115.977243,155.69051 129.478243,142.14251 C142.139243,154.96451 154.589243,167.57351 166.195243,179.32751 C170.779243,174.86751 175.367243,170.40351 180.558243,165.35351 C168.296243,153.24551 155.756243,140.86351 142.712243,127.98351 C155.322243,115.39151 167.876243,102.85551 179.713243,91.0355102 C175.232243,86.1795102 170.874243,81.4555102 166.179243,76.3655102 C153.598243,88.9685102 141.166243,101.42251 128.176243,114.43551 M45.000243,128.45051 C45.111243,82.3565102 82.627243,44.9395102 128.671243,45.0005102 C174.669243,45.0615102 212.135243,82.8125102 211.867243,128.82651 C211.595243,175.35851 174.373243,212.00851 127.544243,211.85351 C82.143243,211.70351 44.890243,174.06251 45.000243,128.45051" id="Page-1" fill="#FEFEFE"></path>
        </g>
    </g>
</svg>