<?xml version="1.0" encoding="UTF-8" standalone="no"?>
<svg width="256px" height="256px" viewBox="0 0 256 256" version="1.1" xmlns="http://www.w3.org/2000/svg" xmlns:xlink="http://www.w3.org/1999/xlink">
    <!-- Generator: Sketch 3.7 (28169) - http://www.bohemiancoding.com/sketch -->
    <title>256</title>
    <desc>Created with Sketch.</desc>
    <defs></defs>
    <g id="Page-1" stroke="none" stroke-width="1" fill="none" fill-rule="evenodd">
        <g id="256" fill="#FFFFFF">
            <path d="M81.9590285,81.9286123 L92.9611482,81.9286123 C93.100273,79.3593442 93.2608295,76.8492153 93.369078,74.3370113 C93.8965172,62.074454 94.4101529,49.8115509 94.9285108,37.5483019 C94.9310536,37.490892 94.9310536,37.4331362 94.9339596,37.3753804 C95.0552851,34.9468705 96.6194401,33.0066909 98.4600285,33.0015033 C100.228693,32.9970073 101.797571,34.8199461 101.911268,37.2211344 C102.385309,47.2364035 102.812491,57.2537477 103.258926,67.270746 C103.47397,72.1018276 103.693736,76.933601 103.916772,81.8795026 L114.998443,81.8795026 C115.183701,78.0468698 115.378766,74.258505 115.546951,70.4687567 C116.038065,59.4159585 116.518282,48.3624685 117.002131,37.3093244 C117.010122,37.1364029 117.010486,36.9631355 117.024652,36.7912515 C117.19538,34.7404022 118.861608,32.9478976 120.545273,33.0011574 C122.166821,33.052688 123.790912,34.7943537 123.9304,36.7632382 C124.077153,38.8324172 124.126919,40.9078214 124.20756,42.9804588 C124.710298,55.8786757 125.452782,68.7741257 125.634407,81.6764927 C125.786245,92.4961927 120.370186,100.448854 110.313606,105.507846 C109.726594,105.803196 109.098898,106.026611 108.519151,106.332682 C106.444629,107.428313 105.350157,109.012274 105.42426,111.378532 C105.753728,121.919137 106.008729,132.461471 106.297876,143.003113 C106.732687,158.844108 107.172219,174.685449 107.612479,190.526099 C107.835151,198.533057 108.105772,206.538978 108.275047,214.546629 C108.368402,218.968578 105.236823,222.336398 100.609379,223.006987 C94.9575708,223.825598 90.3987818,221.580385 89.0514871,217.22207 C88.7514425,216.250251 88.6773395,215.178138 88.70422,214.156518 C89.3769592,188.522284 90.078032,162.888397 90.7722029,137.25451 C91.0097685,128.498801 91.2328041,119.7424 91.4834467,110.986692 C91.5600924,108.305025 89.8611716,106.913352 87.5603454,105.944992 C82.9732229,104.014842 79.1848873,101.139157 76.2469204,97.2726312 C72.4981791,92.3377966 70.7665658,86.8043077 71.0251999,80.726116 C71.6005881,67.1967356 72.2035833,53.6687385 72.8022195,40.1400498 C72.8556173,38.9316742 72.9130108,37.7198401 73.0506826,36.5183813 C73.2573719,34.7137722 74.7492401,33.1346528 76.2774334,33.0101493 C77.7416946,32.8904876 79.3926664,34.3575539 79.8165793,36.1998599 C79.9317296,36.7016781 79.9553409,37.2270137 79.9774991,37.7430116 C80.6011996,52.1352704 81.219088,66.5278751 81.8409722,80.9204798 C81.8529595,81.2009585 81.9052675,81.4793621 81.9590285,81.9286123" id="Fill-1"></path>
            <path d="M176.956523,131.257193 C177.627809,157.863937 178.308903,184.470335 178.948586,211.078463 C178.988544,212.729863 178.990723,214.465304 178.521767,216.02886 C177.337209,219.978042 173.761738,221.813777 168.097579,221.689273 C164.016827,221.600046 160.64187,219.17949 159.670176,215.54468 C159.436243,214.668659 159.403914,213.719666 159.428251,212.80837 C160.106076,187.757574 160.790076,162.707469 161.525294,137.658402 C161.579055,135.823705 161.225976,134.246315 160.330565,132.583847 C154.738329,122.201293 151.314333,111.115985 149.424706,99.6402209 C146.665095,82.8841248 147.879804,66.3175507 153.371419,50.164259 C154.729974,46.16908 156.879688,42.3250344 159.260793,38.7728804 C160.647319,36.7054306 163.005539,35.0018077 165.303096,33.7709522 C168.273392,32.1797283 170.747125,33.1276842 172.559743,35.9144875 C174.545995,38.9693192 175.285209,42.4215246 175.749442,45.9124645 C176.037137,48.0757128 176.138483,50.2742371 176.144295,52.4575443 C176.179167,65.2468206 176.068376,78.0367885 176.187159,90.8253731 C176.312117,104.303915 176.639405,117.780727 176.878424,131.258577 C176.903851,131.257885 176.930369,131.257539 176.956523,131.257193" id="Fill-3"></path>
        </g>
    </g>
</svg>