<?xml version="1.0" encoding="UTF-8" standalone="no"?>
<svg width="256px" height="256px" viewBox="0 0 256 256" version="1.1" xmlns="http://www.w3.org/2000/svg" xmlns:xlink="http://www.w3.org/1999/xlink">
    <!-- Generator: Sketch 3.7 (28169) - http://www.bohemiancoding.com/sketch -->
    <title>256</title>
    <desc>Created with Sketch.</desc>
    <defs></defs>
    <g id="Page-1" stroke="none" stroke-width="1" fill="none" fill-rule="evenodd">
        <g id="256" fill="#FFFFFF">
            <g id="Group-3" transform="translate(75.000000, 46.000000)">
                <path d="M43.4982253,79.1549959 C43.4854393,84.7199166 46.1373171,92.6655763 50.8638762,98.6275384 C57.7555317,107.321689 68.2494914,110.209675 77.6672957,105.987147 C81.537497,104.252242 84.6691545,101.591611 87.2619732,98.2890719 C95.7695359,87.4554264 96.9105345,71.0997347 89.9543401,59.845799 C79.7757685,43.3786942 56.6248838,43.9644435 47.3294597,60.9288314 C44.6568807,65.8065534 43.5515003,71.067126 43.4982253,79.1549959 L43.4982253,79.1549959 Z M121.475795,143.72752 C120.996624,139.838326 120.657795,136.045448 120.042849,132.297256 C118.325567,121.836195 112.609311,114.447903 102.578082,110.536366 C100.416639,109.693068 98.155952,109.10279 95.96985,108.318369 C94.924442,107.943368 94.2437396,108.136605 93.4671421,108.964203 C90.0012221,112.658651 85.8475977,115.421334 81.1831421,117.399899 C75.8681225,119.653826 70.3579641,120.753465 64.5732111,119.709684 C56.5956586,118.270975 50.0355259,114.315053 44.6020835,108.44518 C43.9670454,107.758586 43.4245535,107.495602 42.5337953,107.792402 C39.1333274,108.926763 35.6266139,109.805689 32.334827,111.189748 C26.7360799,113.542709 22.2144014,117.2595 19.261748,122.654735 C15.6792318,129.199427 15.0137508,136.377574 14.5281871,143.72752 L121.475795,143.72752 Z M0.254745885,163.047285 L0.254745885,0.0241848053 L1.94006283,0.0241848053 C41.4600755,0.0241848053 80.9797838,0.0226751421 120.499492,0.0256944686 C129.385155,0.0266002666 135.60311,6.2086713 135.604328,15.0450323 C135.607372,59.3729725 135.607372,103.700913 135.604328,148.028853 C135.60311,156.853439 129.374805,163.044869 120.493099,163.045473 C80.9724775,163.049398 41.4530737,163.047285 1.9333654,163.047285 L0.254745885,163.047285 Z" id="Fill-1"></path>
            </g>
            <g id="Group-6" transform="translate(45.000000, 46.000000)">
                <path d="M23.9077552,162.883819 C19.9337438,162.883819 15.9889575,163.295957 12.1653337,162.795352 C4.96985842,161.853624 0.0165000323,155.819198 0.0101070308,148.605725 C-0.00815868754,128.486443 0.0037140294,108.367765 0.0037140294,88.2493885 C0.0037140294,63.805223 -0.00450554386,39.3607556 0.00828045899,14.9165901 C0.0125424599,7.12431225 5.17869647,1.04852152 12.8603443,0.220320255 C16.4641706,-0.167965134 20.1459305,0.154197005 23.9077552,0.154197005 L23.9077552,162.883819 Z" id="Fill-4"></path>
            </g>
        </g>
    </g>
</svg>