<?xml version="1.0" encoding="UTF-8" standalone="no"?>
<svg width="256px" height="256px" viewBox="0 0 256 256" version="1.1" xmlns="http://www.w3.org/2000/svg" xmlns:xlink="http://www.w3.org/1999/xlink">
    <!-- Generator: Sketch 3.7 (28169) - http://www.bohemiancoding.com/sketch -->
    <title>256</title>
    <desc>Created with Sketch.</desc>
    <defs>
        <polygon id="path-1" points="196.783511 110.52764 196.783511 0.221406812 7.13863061e-21 0.221406812 0 110.52764 196.783511 110.52764"></polygon>
    </defs>
    <g id="Page-1" stroke="none" stroke-width="1" fill="none" fill-rule="evenodd">
        <g id="256">
            <g id="Page-1" transform="translate(30.000000, 46.000000)">
                <g id="Group-3" transform="translate(0.000000, 0.302850)">
                    <mask id="mask-2" fill="white">
                        <use xlink:href="#path-1"></use>
                    </mask>
                    <g id="Clip-2"></g>
                    <path d="M98.3914393,94.5215834 C102.249795,94.5215834 106.108151,94.4812383 109.965979,94.5388741 C111.862236,94.5666441 112.70291,93.7419284 112.680787,91.8808166 C112.648656,89.1771744 112.649183,86.4730083 112.67868,83.7693661 C112.698696,81.9155898 111.855389,81.0777751 109.968086,81.0856345 C102.251902,81.1175962 94.5351906,81.1170722 86.8190061,81.0851105 C84.9348644,81.0777751 84.0862896,81.9108741 84.1073591,83.7672703 C84.1373832,86.4709125 84.1358029,89.1750786 84.1041987,91.8792447 C84.0826024,93.7361649 84.9169553,94.5671681 86.8174259,94.5383502 C90.6747281,94.4796665 94.5336104,94.5210594 98.3914393,94.5215834 M130.095271,35.1645866 C129.42368,29.7263885 128.722065,24.5690339 128.174257,19.3959604 C127.898774,16.7976345 126.552958,15.7266569 124.027249,15.7292767 C106.916693,15.7449955 89.8061372,15.7439476 72.695581,15.7298006 C70.1393217,15.7277048 68.8609286,16.8877559 68.6091479,19.4598837 C68.1930249,23.7107847 67.8290489,27.9889316 67.0141853,32.1722415 C66.4763858,34.9356153 67.346557,35.3877942 69.8622575,35.3767911 C88.9033083,35.295053 107.944359,35.3353981 126.98541,35.3275387 C127.92195,35.3270147 128.857963,35.2321776 130.095271,35.1645866 M26.4532548,35.3327783 C33.6516559,35.3322543 40.8505837,35.2657112 48.0474045,35.3725994 C50.2012361,35.405085 50.9065382,34.6301457 51.1177602,32.547922 C51.9199821,24.6481521 52.8912869,16.7651489 53.827827,8.87952588 C54.4256746,3.84739808 58.6490596,0.25092524 64.071827,0.24149393 C80.487089,0.212152077 96.9028778,0.229966773 113.318667,0.229442812 C119.726434,0.229442812 126.135255,0.20691246 132.543022,0.237302236 C138.61157,0.266120128 142.44991,4.01978147 143.051971,10.011807 C143.827856,17.7391936 144.904509,25.4361904 145.735701,33.1588613 C145.963779,35.2730466 147.201613,35.3526888 148.830287,35.349545 C163.051159,35.322299 177.27203,35.3317304 191.492902,35.335922 C195.756846,35.3374939 196.776084,36.3382607 196.778191,40.5509125 C196.785038,53.9108869 196.785565,67.2713853 196.778717,80.6313597 C196.77661,84.4992447 195.642017,85.9768166 191.927461,86.9974939 C165.4731,94.2648422 139.066145,101.707194 112.538041,108.697366 C103.131554,111.175705 93.3431826,111.1275 83.9040382,108.611436 C57.649311,101.613928 31.4799152,94.2973278 5.27575481,87.1111936 C1.02181898,85.944855 0.00363449198,84.6511936 0.00258101604,80.2787335 C-0.000579411765,67.0057367 -0.00268636364,53.7332639 0.00626818182,40.4602671 C0.00890187166,36.4011361 1.07449278,35.3401137 5.12194733,35.335922 C12.2323832,35.3280626 19.342819,35.3338262 26.4532548,35.3327783" id="Fill-1" fill="#FEFEFE" mask="url(#mask-2)"></path>
                </g>
                <path d="M98.3922294,163.778364 C67.490093,163.778364 36.5884834,163.778888 5.68634706,163.77784 C0.936224064,163.777316 0.00389786096,162.852 0.00337112299,158.137917 C0.00126417112,140.236243 -0.000316042781,122.334569 0.00442459893,104.432371 C0.00547807487,100.347565 0.988897861,99.6056358 4.93521872,100.704383 C30.269208,107.757431 55.5568444,114.979719 80.9550957,121.79646 C92.4711679,124.886786 104.304863,124.885738 115.820935,121.800652 C141.052737,115.038927 166.173925,107.870083 191.338831,100.861572 C195.984133,99.5679105 196.780034,100.152652 196.780561,104.95476 C196.782668,122.856435 196.785302,140.759157 196.779507,158.660831 C196.778454,162.670709 195.673358,163.773649 191.624323,163.774696 C160.54731,163.780984 129.46977,163.77784 98.3922294,163.778364" id="Fill-4" fill="#FEFEFE"></path>
            </g>
        </g>
    </g>
</svg>