<?xml version="1.0" encoding="UTF-8" standalone="no"?>
<svg width="256px" height="256px" viewBox="0 0 256 256" version="1.1" xmlns="http://www.w3.org/2000/svg" xmlns:xlink="http://www.w3.org/1999/xlink">
    <!-- Generator: Sketch 3.7 (28169) - http://www.bohemiancoding.com/sketch -->
    <title>256</title>
    <desc>Created with Sketch.</desc>
    <defs>
        <polygon id="path-1" points="81.4999363 150.46756 0 150.46756 0 0.418406484 162.999873 0.418406484 162.999873 150.46756 81.4999363 150.46756"></polygon>
    </defs>
    <g id="Page-1" stroke="none" stroke-width="1" fill="none" fill-rule="evenodd">
        <g id="256">
            <g id="Page-1" transform="translate(47.000000, 46.000000)">
                <g id="Group-3" transform="translate(0.000000, 12.751488)">
                    <mask id="mask-2" fill="white">
                        <use xlink:href="#path-1"></use>
                    </mask>
                    <g id="Clip-2"></g>
                    <path d="M81.4782242,137.797043 C99.5145562,137.797043 117.550252,137.810432 135.58722,137.791943 C145.230326,137.783017 150.334263,132.695173 150.341267,123.071625 C150.359095,99.9117347 150.352728,76.7512068 150.343814,53.5913166 C150.34063,46.4332687 147.715439,43.8236767 140.563814,43.8230391 C101.202498,43.8211264 61.8399078,43.8211264 22.4779547,43.8230391 C15.2887633,43.8230391 12.6597516,46.4128664 12.656568,53.5492367 C12.6470172,76.6032896 12.6463805,99.6567049 12.6559312,122.710758 C12.6597516,132.782521 17.6478062,137.788117 27.6875875,137.794493 C45.6175875,137.805969 63.5475875,137.797043 81.4782242,137.797043 M-0.00012734375,129.427604 L-0.00012734375,21.6775298 C0.204259375,21.3198505 0.509884375,20.9857615 0.599661719,20.6013042 C3.82273203,6.72194695 16.0865719,-2.00325878 33.6740172,1.01501845 C33.6740172,6.03336659 33.5912437,11.1110092 33.6931187,16.1848263 C33.8586656,24.4076234 39.3057945,30.505385 47.4124977,31.5235913 C49.7142359,31.8130501 52.0675484,31.7575811 54.3973023,31.7575811 C65.9320992,31.7569435 72.0076695,25.6394171 72.0286812,14.0387508 C72.0375953,9.6152596 72.0299547,5.19240595 72.0299547,0.777840774 L94.1782164,0.777840774 C94.1782164,6.21443772 94.0604234,11.404931 94.2055953,16.5890484 C94.4284469,24.4490657 99.8787594,30.5704176 107.67538,31.452183 C111.332693,31.8659688 115.110345,31.885096 118.768931,31.4872496 C126.894736,30.6048466 132.291564,24.4210124 132.487673,16.182276 C132.57363,12.5729673 132.513142,8.95919554 132.518236,5.34797411 C132.520783,3.80568162 132.518873,2.26338914 132.518873,0.780391071 C148.00833,-0.775290476 158.241037,6.24440372 162.470759,20.9143532 C162.552259,21.1961611 162.819681,21.4244127 162.999873,21.6775298 L162.999873,129.427604 C161.169306,134.370081 159.324732,139.234136 155.417826,143.100387 C151.593056,146.885029 146.801748,148.633896 141.988154,150.46756 L21.0115914,150.46756 C20.154568,150.131558 19.3134625,149.747738 18.4386109,149.466568 C9.63151719,146.638925 3.82145859,140.824884 0.999521094,132.004042 C0.719364844,131.128653 0.335423437,130.285779 -0.00012734375,129.427604" id="Fill-1" fill="#FEFEFE" mask="url(#mask-2)"></path>
                </g>
                <path d="M59.2148438,0 C63.3057617,2.41704457 64.5550039,6.01105149 64.3041367,10.6742707 C63.9851406,16.6030751 64.2500156,22.5618455 64.2194531,28.5072268 C64.1939844,33.5842318 61.2434297,36.6292871 56.1872461,36.7931437 C53.9631875,36.8651897 51.7327617,36.8651897 49.5080664,36.7931437 C44.4518828,36.6292871 41.5013281,33.5842318 41.4758594,28.5072268 C41.4452969,22.5618455 41.7095352,16.6030751 41.3911758,10.6742707 C41.1403086,6.01105149 42.3895508,2.41704457 46.4804688,0 L59.2148438,0 Z" id="Fill-4" fill="#FEFEFE"></path>
                <path d="M119.703125,0 C123.79468,2.41704457 125.043285,6.01105149 124.792418,10.6742707 C124.473422,16.6030751 124.738297,22.5618455 124.707734,28.5078644 C124.682266,33.5842318 121.731711,36.6292871 116.674891,36.7931437 C114.450832,36.8651897 112.220406,36.8639145 109.995711,36.7937813 C104.943348,36.6337501 101.989609,33.5861445 101.964141,28.5078644 C101.933578,22.5618455 102.198453,16.6030751 101.87882,10.6742707 C101.62859,6.01105149 102.877195,2.41704457 106.96875,0 L119.703125,0 Z" id="Fill-6" fill="#FEFEFE"></path>
                <path d="M52.7646281,125.495045 C52.7646281,127.614343 52.8021945,129.734915 52.7576242,131.854212 C52.6621164,136.37334 49.6778156,139.452187 45.2169641,139.530608 C40.9846945,139.603929 36.7498781,139.598829 32.5169719,139.531883 C28.031925,139.4592 24.9979602,136.409681 24.9285578,131.908406 C24.8636125,127.670449 24.8559719,123.429304 24.9311047,119.191347 C25.0075109,114.850103 28.0153703,111.769981 32.3043078,111.680083 C36.6416359,111.588272 40.9834211,111.59401 45.3213859,111.677533 C49.6141438,111.760417 52.6277336,114.829063 52.7531672,119.137153 C52.8155656,121.255175 52.7646281,123.375748 52.7646281,125.495045" id="Fill-8" fill="#FEFEFE"></path>
                <path d="M109.599545,125.62205 C109.600818,123.396915 109.533326,121.16923 109.615462,118.946008 C109.769548,114.82154 112.783775,111.773934 116.914806,111.682761 C121.358466,111.584574 125.80722,111.57246 130.249607,111.687861 C134.341162,111.793699 137.343927,114.906337 137.427974,119.064597 C137.515205,123.407754 137.513295,127.756012 137.429248,132.099168 C137.345201,136.394507 134.276853,139.446576 129.972634,139.528185 C125.741002,139.60852 121.505548,139.593218 117.273279,139.532648 C112.762763,139.469529 109.723068,136.449339 109.607822,131.98058 C109.553064,129.86192 109.598271,127.741347 109.599545,125.62205" id="Fill-10" fill="#FEFEFE"></path>
                <path d="M52.7643098,83.3423235 C52.763673,85.467359 52.8177941,87.5943072 52.7515754,89.71743 C52.6248684,93.8074698 49.9041691,96.8799409 45.8610051,97.0590993 C41.2014973,97.2656734 36.5190676,97.2624855 31.8595598,97.0629247 C27.804298,96.8901421 25.019927,93.8355231 24.9365168,89.7582348 C24.8473762,85.4036016 24.8492863,81.0445054 24.9352434,76.6892346 C25.0186535,72.4755054 27.8794309,69.4750802 32.1358957,69.3188745 C36.5865598,69.1550179 41.0518684,69.1537427 45.5031691,69.3156866 C49.9130832,69.4763554 52.6643449,72.5029211 52.7573059,76.9672171 C52.8018762,79.091615 52.7649465,81.217288 52.7643098,83.3423235" id="Fill-12" fill="#FEFEFE"></path>
                <path d="M137.447904,83.292784 C137.447267,85.4178195 137.497568,87.5441301 137.436443,89.6678905 C137.318013,93.7681315 134.616415,96.8686558 130.592989,97.0541899 C125.934755,97.2690525 121.252325,97.2575762 116.592818,97.0669414 C112.526095,96.9005345 109.710525,93.8650428 109.621384,89.8075193 C109.526513,85.4535237 109.539247,81.0937899 109.616927,76.7391567 C109.690786,72.6382781 112.430587,69.5383914 116.453376,69.3528572 C121.112247,69.1373571 125.79404,69.1437328 130.454185,69.3407433 C134.657802,69.5186266 137.343482,72.6044867 137.440263,76.9176775 C137.48738,79.0414379 137.447904,81.1677485 137.447904,83.292784" id="Fill-14" fill="#FEFEFE"></path>
                <path d="M80.9913891,139.544125 C78.8692055,139.544125 76.7451117,139.602782 74.625475,139.531373 C70.5555688,139.394932 67.5120531,136.646987 67.3407758,132.581175 C67.1427563,127.915405 67.1376625,123.226683 67.3452328,118.561551 C67.5260609,114.514229 70.5975922,111.756082 74.6866,111.678298 C79.0360258,111.596051 83.3892719,111.589675 87.7380609,111.680211 C91.8079672,111.765008 94.8514828,114.557584 95.0227602,118.622758 C95.2207797,123.289165 95.2252367,127.97725 95.0176664,132.643019 C94.837475,136.690342 91.7659438,139.409597 87.6762992,139.532648 C85.4496938,139.599594 83.2199047,139.544762 80.9913891,139.544125" id="Fill-16" fill="#FEFEFE"></path>
                <path d="M81.630591,69.2845092 C83.7502277,69.2845092 85.8781418,69.1716586 87.9888645,69.3087371 C91.972177,69.5669547 94.8399582,72.2364787 95.0131457,76.171588 C95.2181691,80.8328944 95.2149855,85.516516 95.0201496,90.1784601 C94.8552395,94.1390723 92.0269348,96.9157088 88.0461691,97.0751024 C83.4949035,97.2574487 78.9258098,97.2580862 74.3745441,97.0814781 C70.2581574,96.9220845 67.4635988,94.0689391 67.3120598,89.9189673 C67.1490598,85.4661476 67.1503332,80.9986638 67.3095129,76.5452066 C67.4623254,72.2511429 70.313552,69.5114857 74.6343254,69.2947104 C76.9608957,69.1773967 79.2976535,69.2736705 81.630591,69.2736705 L81.630591,69.2845092 Z" id="Fill-18" fill="#FEFEFE"></path>
            </g>
        </g>
    </g>
</svg>