<?xml version="1.0" encoding="UTF-8" standalone="no"?>
<svg width="256px" height="256px" viewBox="0 0 256 256" version="1.1" xmlns="http://www.w3.org/2000/svg" xmlns:xlink="http://www.w3.org/1999/xlink">
    <!-- Generator: Sketch 3.7 (28169) - http://www.bohemiancoding.com/sketch -->
    <title>256</title>
    <desc>Created with Sketch.</desc>
    <defs></defs>
    <g id="Page-1" stroke="none" stroke-width="1" fill="none" fill-rule="evenodd">
        <g id="256" fill="#FEFEFE">
            <g id="Page-1" transform="translate(51.000000, 41.000000)">
                <path d="M0,173.205219 L0,0 L139.100177,0 C139.100177,7.85175 139.253864,15.6518437 138.963667,23.435625 C138.910328,24.9055625 137.277631,26.495125 136.062601,27.7176562 C114.483157,49.4250625 92.8395253,71.0690312 71.2763535,92.7918437 C69.9736313,94.1040937 68.6880859,95.8495312 68.3038687,97.5940625 C66.1070505,107.589094 64.1760202,117.643031 62.1853232,127.684281 C62.0497172,128.364875 62.1672424,129.095313 62.1672424,130.146562 C73.4243535,127.941656 84.308096,125.889 95.139404,123.589844 C96.5822525,123.283531 97.9003434,121.868875 99.0412424,120.730625 C111.10747,108.700156 123.123071,96.62075 135.160369,84.5630937 C136.189167,83.5326875 137.281247,82.5675313 138.822636,81.1220625 L138.822636,173.205219 L0,173.205219 Z" id="Fill-1"></path>
                <path d="M69.8711131,122.128606 C71.4468556,113.986856 72.7993,106.749544 74.3009111,99.5457625 C74.4961838,98.6096062 75.3613505,97.7332625 76.0900071,97.0019187 C103.665952,69.3350125 131.259977,41.6862312 158.862138,14.0447 C159.165896,13.7402 159.593507,13.5580437 159.672159,13.5072937 C165.903709,19.7703875 172.027679,25.9247312 178.314376,32.2403875 C167.926047,42.6387 157.266507,53.299825 146.616911,63.9700125 C129.996128,80.6241687 113.453997,97.358075 96.6759111,113.850012 C94.4989818,115.990575 91.2643253,117.432419 88.2629111,118.261637 C82.5195424,119.847575 76.5926535,120.759262 69.8711131,122.128606" id="Fill-3"></path>
            </g>
        </g>
    </g>
</svg>