<?xml version="1.0" encoding="UTF-8" standalone="no"?>
<svg width="256px" height="256px" viewBox="0 0 256 256" version="1.1" xmlns="http://www.w3.org/2000/svg" xmlns:xlink="http://www.w3.org/1999/xlink">
    <!-- Generator: Sketch 3.7 (28169) - http://www.bohemiancoding.com/sketch -->
    <title>256</title>
    <desc>Created with Sketch.</desc>
    <defs>
        <polygon id="path-1" points="20.1058977 44.2560165 20.1058977 0.058302439 0.362151278 0.058302439 0.362151278 44.2560165 20.1058977 44.2560165"></polygon>
        <polygon id="path-3" points="86.8375159 110.176089 0.083012501 110.176089 0.083012501 0.176054472 86.8375159 0.176054472 86.8375159 110.176089"></polygon>
        <polygon id="path-5" points="60.7148222 0.194341463 0.558789675 0.194341463 0.558789675 71.4331573 60.7148222 71.4331573"></polygon>
        <polygon id="path-7" points="18.4839003 0.194341463 0.62244996 0.194341463 0.62244996 15.6300472 18.4839003 15.6300472 18.4839003 0.194341463"></polygon>
    </defs>
    <g id="Page-1" stroke="none" stroke-width="1" fill="none" fill-rule="evenodd">
        <g id="256">
            <g id="Page-1" transform="translate(28.000000, 4.000000)">
                <path d="M83.7203344,192.539554 C80.3350441,193.491692 78.0903321,198.189627 76.1628223,200.897586 C73.3147511,204.899131 70.9917509,209.629456 69.6244068,214.363155 C68.9360104,216.745188 68.9825784,218.772952 68.9015906,221.218415 C68.8212777,223.64296 67.8420002,225.755749 67.7616872,228.193789 C67.7083703,229.811277 67.6003865,231.583968 67.7616872,233.190659 C67.9142143,234.710302 68.6255572,235.844635 68.0937372,237.373724 C67.006476,240.500058 64.3541253,242.193123 66.009651,245.918001 C67.8804694,250.126033 72.8348984,248.828399 76.3578679,247.638058 C79.3679147,246.620464 81.9797715,245.461838 84.6699164,243.733009 C86.4894424,242.563586 87.6192223,240.749058 89.9901403,240.978489 C93.0865741,241.278773 94.5720255,244.327505 98.3534811,243.632464 C98.7995889,243.550814 98.9102723,244.019123 99.3941744,243.716814 C100.339032,243.127716 100.339707,240.905611 100.443641,240.02905 C101.040252,234.955253 101.539676,229.793733 102.467662,224.758399 C103.060897,221.540968 103.51038,218.561066 103.695977,215.2937 C103.848504,212.614757 104.886497,209.995871 104.90472,207.323001 C104.925642,204.295188 103.689228,201.679001 102.870576,198.82731 C102.166657,196.373749 101.737422,194.19483 99.2855158,193.494391 C97.2830923,192.922163 95.0768495,193.69818 93.0514794,193.715724 C90.7467014,193.735293 89.1512417,194.032204 87.3458885,192.551025 C85.1005016,190.706806 85.0930777,191.254066 83.7203344,192.539554" id="Fill-1" fill="#E2D6CC"></path>
                <path d="M100.224704,181.332259 C100.224704,181.332259 100.141017,175.391349 99.7414771,176.773333 C99.343962,175.391349 98.7291295,181.332259 98.7291295,181.332259 L89.9898704,190.956885 L92.1427962,193.362536 C92.1427962,193.362536 98.2222808,193.362536 98.7891955,193.38278 C98.9687185,193.389528 99.2191058,193.173593 99.4769169,192.811902 C99.7347281,193.173593 99.9857903,193.389528 100.164638,193.38278 C100.731553,193.362536 106.811038,193.362536 106.811038,193.362536 L108.963289,190.956885 L100.224704,181.332259 Z" id="Fill-3" fill="#000000"></path>
                <path d="M115.233297,192.539554 C118.619262,193.491692 120.863974,198.189627 122.790809,200.897586 C125.639555,204.899131 127.961881,209.629456 129.329225,214.363155 C130.017621,216.745188 129.971053,218.772952 130.052041,221.218415 C130.132354,223.64296 131.111631,225.755749 131.191944,228.193789 C131.245936,229.811277 131.35392,231.583968 131.191944,233.190659 C131.040092,234.710302 130.328074,235.844635 130.859894,237.373724 C131.947155,240.500058 134.599506,242.193123 132.94398,245.918001 C131.073162,250.126033 126.119408,248.828399 122.595763,247.638058 C119.585717,246.620464 116.97386,245.461838 114.283715,243.733009 C112.464189,242.563586 111.335084,240.749058 108.963491,240.978489 C105.867057,241.278773 104.381606,244.327505 100.60015,243.632464 C100.154042,243.550814 99.4352757,244.066359 98.9506987,243.764724 C98.0058409,243.175627 98.6132495,240.905611 98.50999,240.02905 C97.9133799,234.955253 97.4139551,229.793733 96.4859698,224.758399 C95.8927341,221.540968 95.4432518,218.561066 95.2576547,215.2937 C95.1051277,212.614757 94.067134,209.995871 94.0489117,207.323001 C94.027315,204.295188 95.2637288,201.679001 96.0823806,198.82731 C96.7869745,196.373749 97.2162098,194.19483 99.6681157,193.494391 C101.670539,192.922163 103.876782,193.69818 105.902827,193.715724 C108.20693,193.735293 109.80239,194.032204 111.607743,192.551025 C113.85313,190.706806 113.860554,191.254066 115.233297,192.539554" id="Fill-5" fill="#E2D6CC"></path>
                <path d="M117.196711,194.755721 C116.989518,194.020193 113.990944,193.001924 113.396359,192.603794 C109.575759,190.036193 104.230564,190.571981 99.4765795,190.634063 C94.7232702,190.571981 89.378075,190.036193 85.5568004,192.603794 C84.9628898,193.001924 81.9636414,194.020193 81.7571225,194.755721 C81.1517386,196.908323 85.9556653,196.761217 87.1077168,196.709258 C90.0064054,196.576998 92.9199417,196.38468 95.694449,195.963607 C96.3943186,195.857664 102.56019,195.857664 103.259385,195.963607 C106.033892,196.38468 108.947428,196.576998 111.846117,196.709258 C112.998169,196.761217 117.80142,196.908323 117.196711,194.755721" id="Fill-7" fill="#000000"></path>
                <path d="M12.8556668,97.9414846 C15.179342,103.253485 11.0023959,116.403924 19.3110699,117.695485 C23.979342,118.422241 27.0683519,112.724932 30.1458885,110.073655 C31.6826321,108.749704 33.4947343,107.506728 34.764893,105.910159 C35.4735363,105.020102 35.8980474,103.757558 36.6370611,102.926883 C37.9625615,101.436257 39.9420385,100.884273 41.081267,99.1621919 C42.7388174,96.6559967 44.6460802,93.3697366 45.7279423,90.5571837 C47.3497231,86.343078 50.2315392,82.9495252 51.9538799,78.8548585 C53.71334,74.6724683 52.7624082,71.4692081 50.5514411,67.6512081 C48.2750088,63.7205171 43.7828852,62.2352894 39.3764737,62.618574 C32.8596549,63.186078 27.8944275,67.2766959 23.9044283,72.0691024 C21.5287859,74.9221431 19.3130946,77.1496472 17.735857,80.5823382 C16.7154107,82.8051187 15.9014832,85.0501675 15.3683135,87.4382732 C14.6792423,90.5227691 14.7487568,95.5290862 12.8556668,97.9414846" id="Fill-9" fill="#C28046"></path>
                <g id="Group-13" transform="translate(0.000000, 74.708098)" fill="#C28046">
                    <path d="M18.9353539,0.058302439 C16.2911021,2.99366829 13.4396564,6.40274146 10.1535762,8.75440813 C6.7730102,11.1735545 1.48383158,13.5420911 0.306808804,18.1043919 C-0.970098934,23.0560504 1.99405476,28.326213 4.49657796,32.3513756 C5.95773295,34.7023675 6.189898,36.9622618 6.57661477,39.5696764 C6.83375105,41.3039041 7.79953064,46.722522 9.87619296,42.9470341 C10.6557006,41.5286114 10.6172314,39.2768146 10.765709,37.6795707 C11.1436521,33.6186439 11.9582545,29.4477252 13.1460756,25.5420016 C14.3345717,21.6329041 15.1188036,17.8095057 16.4321558,13.9834081 C18.0127679,9.38129431 21.2509303,3.96335122 18.9353539,0.058302439" id="Fill-11"></path>
                </g>
                <path d="M67.5715684,68.3083927 C64.3246323,64.4249374 60.0174308,64.5740675 55.7925669,62.2291488 C51.5994233,59.9037992 46.4715454,58.6507016 41.6460219,58.8106285 C34.6641982,59.0414089 28.0981118,63.0335065 23.2901357,68.1275472 C20.1194631,71.4873602 17.6007424,74.5840024 16.4655633,79.1422545 C15.850056,81.614035 15.8601795,84.1492463 15.2784171,86.6001081 C14.7000291,89.037474 13.8874515,91.3500024 13.1423637,93.7205634 C11.5367804,98.831474 11.0488289,104.071946 9.72602807,109.238189 C8.98768924,112.121596 7.09999847,116.577954 8.13934197,119.567978 C12.6645356,120.270441 12.9149229,108.557994 13.0458532,105.723848 C13.3711542,98.6830187 17.8727264,91.8500268 20.126887,85.2444415 C22.8494271,77.2636203 29.298756,67.1895797 38.3099992,65.6361976 C41.9861707,65.0025634 46.6557926,64.8885228 49.1893611,68.0620919 C51.0372329,70.3759699 51.0156362,74.8208561 50.6201457,77.6293602 C50.4089025,79.1287585 49.6692139,80.4270675 49.2858716,81.8799049 C48.373409,85.3395878 51.1006734,84.8051488 53.1462904,82.9791488 C56.7023299,79.8069293 58.8687537,73.9132545 63.7232978,72.3504252 C64.5203528,72.0940024 68.6291341,71.4704902 67.5715684,68.3083927" id="Fill-14" fill="#C28046"></path>
                <path d="M67.3814495,67.5485715 C58.8473595,61.687287 55.0733277,75.8607179 51.1379952,80.6558236 C49.3076708,82.885352 46.8064974,82.8779293 44.96335,85.3038236 C43.0655357,87.8025959 41.9647764,90.6994984 40.964577,93.6510593 C40.5940578,94.7462545 40.8734658,96.9487911 39.8435708,97.7639455 C38.4647534,98.8550919 38.0685881,97.3300512 36.9880758,97.3664902 C35.3548217,97.4224984 35.286657,98.7963846 35.2745088,100.211433 C35.2657351,101.281661 35.6686494,102.396425 35.4398589,103.465978 C35.133455,104.897222 34.0225723,106.198905 33.7404648,107.787376 C33.3915423,109.753059 33.4644313,112.218092 36.0553662,112.19245 C39.6060066,112.156685 43.0135685,107.10988 44.6447979,104.594238 C46.9677981,101.014441 48.9958678,97.2153358 51.133271,93.5181244 C52.6612409,90.8762951 54.042083,87.9058398 56.3428116,85.833539 C59.9069499,82.6242057 63.9867106,80.163222 67.3591779,76.6650756 C68.6104395,75.3660919 70.1498827,73.9577911 70.3874469,72.1405634 C69.935265,71.925978 68.7724151,71.6614577 68.4592622,71.3476772 C67.8356561,70.7214659 68.2270972,69.738287 67.3814495,67.5485715" id="Fill-16" fill="#C28046"></path>
                <path d="M93.4184217,68.3195943 C86.0336836,68.3195943 78.1994631,68.7157 71.1980673,70.5282041 C64.6083595,72.2354398 59.1119871,78.9537163 54.3073855,83.4897 C46.3354859,91.0170577 42.5931743,102.259172 34.0894547,108.913342 C29.1168034,112.80422 21.2778587,118.149285 19.961132,124.719107 C18.4432855,132.29235 21.3878672,135.886993 21.8920163,142.825928 C22.1808728,146.795082 21.8454483,150.825643 20.7629113,154.639594 C19.5177238,159.027798 19.5764399,164.031415 20.0292967,168.609237 C21.1482782,179.914107 25.9899992,192.314172 32.5776823,201.519749 C35.429128,205.503749 36.4758954,208.000497 36.4468748,212.738245 C36.4192039,217.261407 40.5691541,222.559911 42.0930746,226.86444 C42.6080221,228.316602 43.7135056,231.940936 45.2522739,232.659594 C48.2096787,234.041578 50.2890406,229.135131 51.4667382,227.085773 C56.2963111,218.677131 57.5239512,209.068025 61.0469208,200.159359 C65.1813483,189.706082 67.9632794,178.885716 71.7265128,168.250245 C73.8092492,162.364667 78.3472659,158.282147 81.4463993,152.954627 C83.6452182,149.174415 84.5759031,144.736277 86.6998083,140.847424 C88.8426106,136.92618 91.5820232,133.328838 92.7232763,128.987871 C93.7302247,125.15705 94.0521512,120.965212 94.0089577,117.016302 C93.954291,112.083537 93.8989493,107.860659 94.4159215,102.961635 C94.7014035,100.25705 94.2674438,97.6476106 93.987361,94.9828382 C93.6519365,91.793074 93.1869315,88.5952122 92.9783879,85.3852041 C92.7408237,81.7278057 93.7322494,79.4712854 94.5232303,76.0574886 C95.2264744,73.021578 93.8726283,70.3277894 93.4184217,68.3195943" id="Fill-18" fill="#C28046"></path>
                <path d="M186.098302,97.9414846 C183.774627,103.253485 187.950898,116.403924 179.642899,117.695485 C174.974627,118.422241 171.884942,112.724932 168.80808,110.073655 C167.271337,108.749704 165.45856,107.506728 164.188401,105.910159 C163.479758,105.020102 163.055247,103.757558 162.316233,102.926883 C160.991407,101.436257 159.011255,100.884273 157.872702,99.1621919 C156.214477,96.6559967 154.307889,93.3697366 153.226027,90.5571837 C151.603571,86.343078 148.721755,82.9495252 146.999414,78.8548585 C145.240629,74.6724683 146.190886,71.4692081 148.402528,67.6512081 C150.67896,63.7205171 155.170409,62.2352894 159.57682,62.618574 C166.093639,63.186078 171.059541,67.2766959 175.049541,72.0691024 C177.424508,74.9221431 179.640874,77.1496472 181.218112,80.5823382 C182.237883,82.8051187 183.051811,85.0501675 183.58498,87.4382732 C184.274052,90.5227691 184.204537,95.5290862 186.098302,97.9414846" id="Fill-20" fill="#C28046"></path>
                <g id="Group-24" transform="translate(178.848071, 74.708098)">
                    <mask id="mask-2" fill="white">
                        <use xlink:href="#path-1"></use>
                    </mask>
                    <g id="Clip-23"></g>
                    <path d="M1.1702063,0.058302439 C3.81445816,2.99366829 6.66657873,6.40274146 9.95265895,8.75440813 C13.33255,11.1735545 18.6217287,13.5420911 19.7994263,18.1043919 C21.0756592,23.0560504 18.1121804,28.326213 15.6089823,32.3513756 C14.1478273,34.7023675 13.9156622,36.9622618 13.5289455,39.5696764 C13.2718092,41.3039041 12.3060296,46.722522 10.2293673,42.9470341 C9.45053455,41.5286114 9.48832886,39.2768146 9.33917632,37.6795707 C8.96190812,33.6186439 8.14730577,29.4477252 6.95948462,25.5420016 C5.77098857,21.6329041 4.98675665,17.8095057 3.6734044,13.9834081 C2.09279239,9.38129431 -1.14537004,3.96335122 1.1702063,0.058302439" id="Fill-22" fill="#C28046" mask="url(#mask-2)"></path>
                </g>
                <path d="M131.382063,68.3083927 C134.629674,64.4249374 138.935526,64.5740675 143.161064,62.2291488 C147.354208,59.9037992 152.482761,58.6507016 157.307609,58.8106285 C164.289433,59.0414089 170.85552,63.0335065 175.663496,68.1275472 C178.834168,71.4873602 181.352889,74.5840024 182.488068,79.1422545 C183.103575,81.614035 183.093452,84.1492463 183.675214,86.6001081 C184.253602,89.037474 185.06618,91.3500024 185.810593,93.7205634 C187.416176,98.831474 187.904803,104.071946 189.227603,109.238189 C189.965942,112.121596 191.853633,116.577954 190.814964,119.567978 C186.289096,120.270441 186.038708,108.557994 185.907778,105.723848 C185.583152,98.6830187 181.08158,91.8500268 178.826744,85.2444415 C176.104204,77.2636203 169.654875,67.1895797 160.642957,65.6361976 C156.967461,65.0025634 152.297839,64.8885228 149.76427,68.0620919 C147.916398,70.3759699 147.937995,74.8208561 148.333486,77.6293602 C148.545404,79.1287585 149.284418,80.4270675 149.668435,81.8799049 C150.579548,85.3395878 147.852958,84.8051488 145.807341,82.9791488 C142.250627,79.8069293 140.085553,73.9132545 135.230334,72.3504252 C134.433279,72.0940024 130.324497,71.4704902 131.382063,68.3083927" id="Fill-25" fill="#C28046"></path>
                <path d="M131.572587,67.5485715 C140.106677,61.687287 143.880034,75.8607179 147.815366,80.6558236 C149.645691,82.885352 152.146864,82.8779293 153.990686,85.3038236 C155.887826,87.8025959 156.988585,90.6994984 157.989459,93.6510593 C158.359304,94.7462545 158.079896,96.9487911 159.110466,97.7639455 C160.489283,98.8550919 160.884773,97.3300512 161.965286,97.3664902 C163.59854,97.4224984 163.667379,98.7963846 163.678853,100.211433 C163.688301,101.281661 163.284712,102.396425 163.513503,103.465978 C163.819906,104.897222 164.931464,106.198905 165.213572,107.787376 C165.561819,109.753059 165.48893,112.218092 162.89867,112.19245 C159.347355,112.156685 155.939793,107.10988 154.308564,104.594238 C151.985563,101.014441 149.957494,97.2153358 147.82009,93.5181244 C146.292795,90.8762951 144.911278,87.9058398 142.61055,85.833539 C139.046412,82.6242057 134.966651,80.163222 131.594184,76.6650756 C130.342922,75.3660919 128.803479,73.9577911 128.565915,72.1405634 C129.018096,71.925978 130.180946,71.6614577 130.494099,71.3476772 C131.117705,70.7214659 130.726264,69.738287 131.572587,67.5485715" id="Fill-27" fill="#C28046"></path>
                <path d="M105.53494,68.3195943 C112.919678,68.3195943 120.754573,68.7157 127.755294,70.5282041 C134.345002,72.2354398 139.841374,78.9537163 144.645976,83.4897 C152.618551,91.0170577 156.360862,102.259172 164.863907,108.913342 C169.836558,112.80422 177.675503,118.149285 178.992229,124.719107 C180.510751,132.29235 177.566169,135.886993 177.061345,142.825928 C176.772489,146.795082 177.108588,150.825643 178.19045,154.639594 C179.436313,159.027798 179.376922,164.031415 178.924065,168.609237 C177.805758,179.914107 172.963362,192.314172 166.375679,201.519749 C163.524908,205.503749 162.477466,208.000497 162.507162,212.738245 C162.534832,217.261407 158.384207,222.559911 156.860287,226.86444 C156.345339,228.316602 155.239856,231.940936 153.701088,232.659594 C150.743683,234.041578 148.664321,229.135131 147.486623,227.085773 C142.65705,218.677131 141.430085,209.068025 137.906441,200.159359 C133.772688,189.706082 130.990082,178.885716 127.226849,168.250245 C125.144112,162.364667 120.60677,158.282147 117.506962,152.954627 C115.308143,149.174415 114.378133,144.736277 112.253553,140.847424 C110.110751,136.92618 107.371338,133.328838 106.230085,128.987871 C105.223137,125.15705 104.901885,120.965212 104.944404,117.016302 C104.999745,112.083537 105.054412,107.860659 104.53744,102.961635 C104.252633,100.25705 104.685918,97.6476106 104.966,94.9828382 C105.301425,91.793074 105.767105,88.5952122 105.974974,85.3852041 C106.212538,81.7278057 105.221112,79.4712854 104.430131,76.0574886 C103.726887,73.021578 105.080733,70.3277894 105.53494,68.3195943" id="Fill-29" fill="#C28046"></path>
                <path d="M80.9212608,136.751475 C82.1495759,133.892361 80.1869714,129.765979 79.6686494,126.7908 C79.1118583,123.591589 78.5395444,121.213605 76.7267674,118.403751 C74.909266,115.58715 73.4832058,113.292841 69.9244666,112.898759 C65.4620385,112.404808 61.2122034,115.280117 57.0649528,116.510272 C52.7698995,117.785637 50.0379109,117.203963 45.8326191,116.528491 C45.6544459,114.285467 49.3933829,112.645036 51.0300115,111.397337 C53.2065588,109.737337 55.084801,107.828337 56.6539397,105.550898 C59.9103244,100.821922 61.2142281,96.1199382 65.5126559,91.8714179 C67.7290222,89.679678 69.8967958,87.3401577 72.2953846,85.367052 C74.1149107,83.8690033 76.762537,82.7225236 78.2466385,80.9066455 C79.9014894,78.8836049 80.6087829,75.3868081 82.6355027,73.7099382 C83.935357,72.6336374 85.9533032,72.2301089 87.4171578,71.2145398 C88.4443531,70.5019545 89.36154,69.2718 90.3462167,68.6590846 C91.7614786,67.7791496 97.0823775,65.9659707 102.401927,67.485613 C104.818063,68.1745805 100.396129,76.5447593 100.847636,78.8006049 C101.606896,82.5922878 101.04808,85.9790927 100.64989,89.865922 C99.8157159,98.0215154 100.458894,106.329613 100.116721,114.517597 C99.961494,118.238426 100.041132,121.830369 100.648541,125.503963 C100.932673,127.224694 101.674386,129.269328 101.374731,131.049442 C100.878006,133.996954 99.0267597,134.670402 96.5195122,135.200792 C91.2627287,136.313532 86.086933,136.751475 80.9212608,136.751475" id="Fill-31" fill="#E2D6CC"></path>
                <path d="M118.032438,136.751475 C116.804123,133.892361 118.766728,129.765979 119.284375,126.7908 C119.841841,123.591589 120.414154,121.213605 122.226932,118.403751 C124.044433,115.58715 125.470493,113.292841 129.029232,112.898759 C133.49166,112.404808 137.741496,115.280117 141.888746,116.510272 C146.183799,117.785637 148.915788,117.203963 153.120405,116.528491 C153.299253,114.285467 149.560316,112.645036 147.923687,111.397337 C145.746465,109.737337 143.868223,107.828337 142.299759,105.550898 C139.043374,100.821922 137.738796,96.1199382 133.441043,91.8714179 C131.224677,89.679678 129.056903,87.3401577 126.658314,85.367052 C124.838788,83.8690033 122.191162,82.7225236 120.70706,80.9066455 C119.05221,78.8836049 118.344916,75.3868081 116.318196,73.7099382 C115.017667,72.6336374 113.000396,72.2301089 111.536541,71.2145398 C110.510021,70.5019545 109.592159,69.2718 108.607482,68.6590846 C107.19222,67.7791496 101.262563,65.9659707 98.4759077,67.6118 C96.3135332,68.889865 98.5575704,76.5447593 98.1060633,78.8006049 C97.3468027,82.5922878 97.9062934,85.9790927 98.3038086,89.865922 C99.137983,98.0215154 98.4954797,106.329613 98.8369783,114.517597 C98.99153,118.238426 98.9125669,121.830369 98.3051584,125.503963 C98.0210262,127.224694 97.2793128,129.269328 97.5789677,131.049442 C98.0756929,133.996954 99.9269392,134.670402 102.434187,135.200792 C107.69097,136.313532 112.866766,136.751475 118.032438,136.751475" id="Fill-33" fill="#E2D6CC"></path>
                <path d="M99.6789815,162.336461 C95.3285865,160.629225 95.4946115,171.212737 95.4993358,173.785737 C95.5074346,178.285957 94.8811289,181.549274 91.1496158,184.35103 C84.1907386,189.576656 76.1850939,192.779916 71.5795874,200.575843 C68.8273518,205.235315 67.61051,210.489957 66.8080558,215.784412 C66.1216842,220.312973 65.95026,225.23764 64.8238546,229.66903 C63.8439021,233.524144 63.0988143,237.497347 62.2464177,241.359209 C62.0189769,242.389624 61.945413,243.602233 62.0621704,244.683258 C62.2133476,246.085485 61.9359644,245.879672 63.0441476,246.625998 C63.8587499,247.171233 66.9754306,248.757006 67.849424,248.773876 C70.572639,248.827859 68.8239773,246.040274 68.7112693,244.365428 C68.4770795,240.87538 70.2392392,236.847518 70.625956,233.298762 C71.0612654,229.301266 71.7820569,225.365851 72.3213007,221.412892 C73.4612041,213.054859 75.6357267,205.340583 80.1103029,199.567697 C84.0091909,194.538437 89.7181563,191.768396 94.833886,188.542867 C100.860054,184.743762 99.8328583,174.642729 100.058949,168.319884 C100.105517,167.032372 101.063873,163.155664 99.6789815,162.336461" id="Fill-35" fill="#000000"></path>
                <path d="M64.7668257,148.113028 C63.2591027,148.295223 61.9970427,149.673833 60.5520853,150.182629 C59.0207409,150.721792 57.2282108,151.192125 55.6293765,151.539646 C52.1226045,152.302841 47.3740195,151.6908 45.7043209,148.040824 C44.8964675,146.274207 45.7873334,144.069646 46.1254575,142.289532 C46.4622318,140.522239 46.0397454,138.4108 46.732866,136.702215 C48.4963755,132.358548 57.445528,133.585328 60.8800859,134.862719 C64.0858532,136.055085 65.887157,137.802808 65.5652305,141.079621 C65.3431889,143.330743 64.6223974,145.739093 64.7668257,148.113028" id="Fill-37" fill="#FFFFFF"></path>
                <path d="M66.2201519,140.926172 C61.5862996,146.136278 53.5766056,151.895668 49.436104,143.683392 C48.3825876,141.592872 46.6494486,137.461766 47.6658455,135.154636 C48.3609909,133.575611 51.3136713,133.703823 52.9995675,133.487888 C55.5115392,133.16601 57.8385888,133.189628 60.1683381,134.268628 C61.5242089,134.896863 64.1178434,135.543319 64.9675405,136.604099 C65.5047596,137.273498 65.5027349,138.319433 65.701155,139.065758 C65.9555917,140.023294 66.8127126,140.259473 66.2201519,140.926172" id="Fill-39" fill="#000000"></path>
                <path d="M64.701293,148.342998 C65.68462,146.884763 65.3748416,144.904909 65.8256737,143.297543 C66.295403,141.622698 67.1235033,140.042998 66.8744658,138.266933 C66.2636828,133.926641 61.2289409,133.911795 57.8382514,133.239698 C55.1190858,132.700535 53.4021443,132.727527 50.6721804,133.255218 C49.0261032,133.573047 46.8549551,133.218779 45.6684838,134.612909 C44.6568111,135.801226 44.8160871,138.410665 44.3139627,140.032202 C43.5297308,142.563364 41.7878181,145.467015 41.7803942,148.160128 C41.7668962,153.039584 46.8320086,153.939763 50.5965918,152.468706 C49.0024818,150.465909 46.3420324,150.99495 46.2725178,147.879413 C46.2394478,146.400259 47.0533753,144.821234 47.1458363,143.316437 C47.2517954,141.593007 47.0574246,139.996437 47.3597791,138.261535 C48.4409663,132.053405 62.4613053,134.440836 64.6607991,139.405315 C65.9809004,142.382519 63.6794969,145.45082 64.4806013,148.300486 C64.6715975,148.328153 65.0880098,148.143933 64.701293,148.342998" id="Fill-41" fill="#000000"></path>
                <path d="M56.5936038,137.458594 C56.9789708,138.5187 56.4316282,139.690822 55.3713628,140.074781 C54.3117724,140.46009 53.1401488,139.913505 52.7547818,138.853399 C52.3700897,137.793293 52.9167574,136.621846 53.9770228,136.236537 C55.0366132,135.851903 56.2082368,136.399163 56.5936038,137.458594" id="Fill-43" fill="#000000"></path>
                <path d="M136.811621,151.942364 C135.35519,150.956486 134.903683,149.003624 133.885936,147.681023 C132.824996,146.301738 131.4671,145.145137 131.03584,143.404161 C129.982999,139.149567 134.648571,137.258112 137.54456,135.369356 C139.866211,133.855112 141.469094,133.239698 144.198383,132.711332 C145.84446,132.393502 147.727427,131.254446 149.347858,132.105364 C150.73005,132.830096 151.556125,135.310649 152.627189,136.627852 C154.298912,138.683958 156.997831,140.727917 158.009504,143.224665 C159.842528,147.747153 155.478635,150.471307 151.438018,150.509771 C152.168933,148.057559 154.834107,147.556185 153.736722,144.639039 C153.215701,143.255031 151.870628,142.093031 151.224075,140.731291 C150.483037,139.171836 150.0673,137.618454 149.140664,136.12108 C145.821514,130.764543 133.703039,138.208901 133.514067,143.634941 C133.400009,146.889486 136.68069,148.878112 136.999917,151.820901 C136.833217,151.917397 136.378336,151.901876 136.811621,151.942364" id="Fill-45" fill="#000000"></path>
                <path d="M136.664628,151.753556 C138.131857,151.36015 139.816403,152.169231 141.346398,152.102426 C142.968853,152.031572 144.807277,151.798767 146.420959,151.525475 C149.959451,150.92558 154.137072,148.586735 154.324694,144.576418 C154.41513,142.636377 152.765678,140.923743 151.787076,139.398028 C150.816572,137.883784 150.420406,135.767621 149.139449,134.440296 C145.883065,131.068337 138.036696,135.544263 135.327654,138.009971 C132.798135,140.312377 131.779038,142.606011 133.300259,145.525857 C134.345677,147.530678 135.912791,149.497711 136.664628,151.753556" id="Fill-47" fill="#FFFFFF"></path>
                <path d="M99.2746499,162.336461 C103.625045,160.629225 103.45902,171.212737 103.454296,173.785737 C103.446197,178.285957 104.072502,181.549274 107.804016,184.35103 C114.763568,189.576656 122.768537,192.779916 127.374044,200.575843 C130.12628,205.235315 131.343121,210.489957 132.14625,215.784412 C132.831947,220.312973 133.003371,225.23764 134.129777,229.66903 C135.109729,233.524144 135.855492,237.497347 136.706539,241.359209 C136.934654,242.389624 137.008893,243.602233 136.891461,244.683258 C136.740284,246.085485 137.017667,245.879672 135.909484,246.625998 C135.094882,247.171233 131.978876,248.757006 131.104882,248.773876 C128.380992,248.827859 130.128979,246.040274 130.242362,244.365428 C130.476552,240.87538 128.715067,236.847518 128.327001,233.298762 C127.892366,229.301266 127.1709,225.365851 126.632331,221.412892 C125.492427,213.054859 123.317905,205.340583 118.843328,199.567697 C114.943766,194.538437 109.2348,191.768396 104.119745,188.542867 C98.0935777,184.743762 99.1207731,174.642729 98.8946821,168.319884 C98.8481141,167.032372 97.8897584,163.155664 99.2746499,162.336461" id="Fill-49" fill="#000000"></path>
                <path d="M132.635012,145.627954 C138.878497,148.733368 148.458004,151.090433 149.236162,141.926019 C149.433908,139.593921 149.500722,135.113946 147.696719,133.352726 C146.46233,132.146864 143.77151,133.366897 142.126108,133.795393 C139.675552,134.43375 137.525326,135.323133 135.76654,137.193669 C134.74272,138.282116 132.577646,139.849669 132.184855,141.150002 C131.936492,141.971905 132.328608,142.941588 132.422419,143.707482 C132.543226,144.690661 131.835932,145.229824 132.635012,145.627954" id="Fill-51" fill="#000000"></path>
                <path d="M152.616998,222.619091 C152.601476,218.085132 151.719383,212.72927 152.589327,208.354563 C154.082878,200.846099 152.622397,193.411863 152.279549,185.599067 C151.529062,168.468676 143.704965,152.639294 129.885071,142.409376 C124.763267,138.617018 118.832935,136.141863 113.007887,134.066189 C110.69501,133.241587 108.301821,132.288099 105.961948,131.571465 C104.340842,131.07414 102.044163,131.187506 100.238135,130.759685 C99.871665,130.689506 99.1198282,130.67601 98.716239,130.759685 C96.9088611,131.187506 94.6128568,131.07414 92.9904011,131.571465 C90.6518782,132.288099 88.2586885,133.241587 85.9458118,134.066189 C80.1207639,136.141863 74.1897569,138.617018 69.0679531,142.409376 C55.2487338,152.639294 47.4253118,168.468676 46.673475,185.599067 C46.3313015,193.411863 44.8714963,200.846099 46.3636966,208.354563 C47.2336406,212.72927 46.3528982,218.085132 46.3360258,222.619091 C46.321178,226.68879 44.4166148,230.643099 44.3902937,234.718197 C44.3497998,240.979636 49.3325746,246.037912 54.941655,247.525839 C64.4624465,250.053628 67.8268149,240.028172 68.9181256,232.362481 C71.0818498,217.180904 72.0786747,199.617969 87.1019127,191.167489 C89.3857688,189.883351 92.313478,188.860359 94.2808068,187.086993 C98.3605675,183.410026 98.6791196,176.465018 99.2359107,171.580839 C99.6233024,168.174465 98.8741652,164.752571 99.4768495,161.427172 C100.080209,164.752571 99.4808988,168.554376 99.8689654,171.96075 C100.425757,176.845603 100.593131,183.410026 104.671542,187.086993 C106.639546,188.860359 109.567255,189.883351 111.852461,191.167489 C126.874349,199.617969 127.871174,217.180904 130.034223,232.362481 C131.126884,240.028172 134.491927,250.053628 144.012044,247.525839 C149.621124,246.037912 154.603899,240.979636 154.56408,234.718197 C154.537084,230.643099 152.631846,226.68879 152.616998,222.619091" id="Fill-53" fill="#E2D6CC"></path>
                <path d="M142.360365,137.458594 C141.974323,138.5187 142.521666,139.690822 143.582606,140.074781 C144.642196,140.46009 145.813145,139.913505 146.198512,138.853399 C146.583879,137.793293 146.036537,136.621846 144.976946,136.236537 C143.917356,135.851903 142.745057,136.399163 142.360365,137.458594" id="Fill-55" fill="#000000"></path>
                <g id="Group-59" transform="translate(56.016566, 137.464195)">
                    <mask id="mask-4" fill="white">
                        <use xlink:href="#path-3"></use>
                    </mask>
                    <g id="Clip-58"></g>
                    <path d="M86.4268794,103.935839 C85.639273,99.5995951 83.5207669,95.4286764 83.5349398,90.9871642 C83.5497876,86.2710098 83.7245862,81.6304325 83.7245862,76.9297984 C83.7252611,72.0807089 84.0667597,66.2025545 82.6663456,61.5424081 C81.1781946,56.5907496 78.0594892,52.6404894 75.8383987,48.0309528 C73.8015553,43.8026764 70.4412363,39.361839 70.2360672,34.6983187 C70.0990628,31.573335 68.211372,28.6791317 69.4342879,25.969148 C71.1640525,22.1423756 68.0102523,18.1226114 65.8188573,14.790465 C60.8873748,7.29212358 53.533682,1.46592846 44.7977974,0.233749593 C44.7950978,0.156822764 42.1251998,0.156822764 42.1225002,0.233749593 C33.3872904,1.46592846 26.0329228,7.29212358 21.1014403,14.790465 C18.9100452,18.1226114 15.75692,22.1423756 17.4860097,25.969148 C18.7096004,28.6791317 16.8219097,31.573335 16.6842304,34.6983187 C16.4790613,39.361839 13.1187422,43.8026764 11.0818989,48.0309528 C8.86080834,52.6404894 5.74277782,56.5907496 4.25462689,61.5424081 C2.85353785,66.2025545 3.19503643,72.0807089 3.19571133,76.9297984 C3.19571133,81.6304325 3.37051001,86.2710098 3.38535777,90.9871642 C3.39953064,95.4286764 1.28102462,99.5995951 0.493418207,103.935839 C-0.0309778357,106.821945 -0.723423575,110.061644 3.16331621,110.163538 C3.43327556,110.169611 3.7086341,110.17366 3.98534243,110.176359 C9.7152297,108.623652 12.0314809,101.00992 12.9020999,94.8982862 C15.0651492,79.7167089 16.0619741,62.1524244 31.0852121,53.7039691 C33.3690682,52.4191561 36.2974523,51.396839 38.264781,49.6227984 C42.3438669,45.9458309 42.6624189,39.2538715 43.2192101,34.3703675 C43.3211197,33.4762618 43.4210047,32.5835057 43.5195398,31.6914244 C43.6295483,32.6719041 43.7409065,33.6496846 43.8522647,34.6234163 C44.4090559,39.5075951 44.5764307,45.9458309 48.6555165,49.6227984 C50.6228453,51.396839 53.5512294,52.4191561 55.8350855,53.7039691 C70.8583235,62.1524244 71.8551484,79.7167089 74.0181977,94.8982862 C74.8888166,101.00992 77.2050679,108.623652 82.9349551,110.176359 C83.2116635,110.17366 83.4876969,110.169611 83.7569814,110.163538 C87.6437211,110.061644 86.9512754,106.821945 86.4268794,103.935839" id="Fill-57" fill="#897668" mask="url(#mask-4)"></path>
                </g>
                <path d="M113.244844,149.045462 C111.221499,147.091925 109.259569,145.1836 106.570774,144.308389 C105.468665,143.950072 104.024382,143.678128 102.789993,143.910933 C101.693958,144.118096 100.829413,144.85295 99.6847856,144.879941 C99.6834358,144.873193 99.6807363,144.86712 99.6793865,144.860372 C99.6105468,144.869145 99.5437319,144.873193 99.4769169,144.877242 C99.4094271,144.873193 99.3432871,144.869145 99.2751223,144.860372 C99.2730976,144.86712 99.270398,144.873193 99.2683733,144.879941 C98.1237457,144.85295 97.2592009,144.118096 96.1638408,143.910933 C94.9294516,143.678128 93.485844,143.950072 92.3830601,144.308389 C89.69359,145.1836 87.7323353,147.091925 85.70899,149.045462 C84.3173495,150.388982 75.4518843,161.621649 79.1705744,162.156763 C79.6652749,162.227616 82.3918644,161.625698 82.9608037,161.396941 C84.7843792,160.660738 83.8995874,159.816567 84.4806749,158.158592 C86.133501,153.446486 90.8874852,155.384502 90.3691633,160.063543 C90.1552205,162.001559 89.4641245,163.160185 88.2810277,164.617072 C87.3348202,165.780421 86.2428346,166.903283 86.8030002,168.604446 C87.5494378,170.872437 92.177216,173.146502 94.5494839,172.784137 C95.5085145,172.637706 103.444645,172.637706 104.403675,172.784137 C106.776618,173.146502 111.403721,170.872437 112.150834,168.604446 C112.710999,166.903283 111.619014,165.780421 110.672806,164.617072 C109.489709,163.160185 108.798613,162.001559 108.584671,160.063543 C108.065674,155.384502 112.820333,153.446486 114.473159,158.158592 C115.054921,159.816567 114.16878,160.660738 115.99303,161.396941 C116.561295,161.625698 119.288559,162.227616 119.783259,162.156763 C123.501275,161.621649 114.637159,150.388982 113.244844,149.045462" id="Fill-60" fill="#000000"></path>
                <g id="Group-64" transform="translate(68.839635, 0.480455)">
                    <mask id="mask-6" fill="white">
                        <use xlink:href="#path-5"></use>
                    </mask>
                    <g id="Clip-63"></g>
                    <path d="M36.8719258,15.6300472 C37.6480589,15.5618927 38.6185628,15.5247789 39.5742189,15.3864455 C42.2738124,14.9950634 44.8141299,14.1637138 46.8462489,12.2560634 C50.0310944,9.26603902 51.2013682,5.38730732 51.5496158,1.18129919 C51.5982085,0.582079675 51.2317386,0.187323577 50.638503,0.194071545 C48.8419235,0.21364065 47.0244221,0.13064065 45.2541637,0.37559187 C41.9269146,0.834453659 39.0127034,2.19821789 36.9549383,4.99052683 C34.9120209,7.76259187 33.9941591,10.9429089 33.7005783,14.3276894 C33.6330884,15.0976325 33.9867352,15.4593236 34.7696173,15.5207301 C35.4060465,15.5699902 36.0438254,15.5882098 36.8719258,15.6300472 M29.6916819,21.0095268 C29.0458041,20.7470309 28.5450295,20.5283967 28.0341315,20.3387789 C26.6127955,19.8097382 25.2069821,19.2287382 23.7606749,18.784722 C20.5900023,17.8103154 17.3525148,17.3696732 14.050237,17.9749659 C9.36441752,18.8339821 6.07361301,21.5824293 3.82957589,25.6851935 C2.02557251,28.9842748 1.19274791,32.5708195 0.812105223,36.2747789 C0.517849528,39.1271447 0.409865787,41.9849089 0.876895467,44.8345756 C1.86089731,50.8382423 4.30470435,56.2237951 7.8688427,61.1106732 C10.3983618,64.5798033 13.3827625,67.5806244 17.2310331,69.5996163 C21.4768188,71.8271203 25.7772713,72.1699171 30.1033699,69.8222992 C30.5332802,69.5888195 30.8282108,69.6191854 31.2338247,69.8486163 C33.8045126,71.2974049 36.5452749,71.7596407 39.4527372,71.1914618 C42.8393773,70.530161 45.7731605,68.9113236 48.2210169,66.5765268 C56.8792883,58.3176894 61.7918736,48.4899496 60.514291,36.1951528 C60.1640187,32.8279171 59.4088074,29.5619008 57.9199816,26.4929252 C54.9666263,20.401535 49.8718184,17.3838439 43.1214848,17.7583561 C39.7820876,17.9446 36.6411105,18.9176569 33.5844957,20.2092179 C33.1626843,20.3873642 32.7422226,20.5648358 32.2515714,20.7719984 C32.2070281,20.484535 32.1699087,20.2739984 32.1422379,20.0614374 C31.869579,17.9904862 31.656986,15.909413 31.3107631,13.8506081 C30.9787131,11.875478 30.4597162,9.94218537 29.4196978,8.18771382 C29.1031705,7.6526 28.6374906,7.3820065 28.1049958,7.59389268 C27.3470849,7.89620163 26.5723016,8.25924228 25.9500452,8.7734374 C25.0753769,9.49546992 25.1131713,9.86255935 25.8089915,10.7546407 C28.1286172,13.7291447 29.1490636,17.190852 29.6916819,21.0095268" id="Fill-62" fill="#FFFFFF" mask="url(#mask-6)"></path>
                </g>
                <path d="M98.5311818,21.4897797 C97.9885635,17.6717797 96.9687921,14.2093976 94.6484914,11.2355683 C93.9526712,10.3428122 93.9148769,9.97639756 94.7895452,9.25369024 C95.4118015,8.73949512 96.1865849,8.37645447 96.9444957,8.07414553 C97.4769906,7.86293415 97.9426705,8.13285285 98.2598727,8.66796667 C99.2992162,10.423113 99.8182131,12.3557309 100.150263,14.3315358 C100.497161,16.3896659 100.709079,18.470739 100.981738,20.542365 C101.009409,20.7542512 101.046528,20.9654626 101.091071,21.2522512 C101.581723,21.0457634 102.002184,20.8676171 102.423996,20.6894707 C105.48061,19.3979098 108.622262,18.4248528 111.960985,18.2392837 C118.711318,17.8640967 123.806126,20.8824626 126.760156,26.973178 C128.248307,30.0421537 129.003519,33.3088447 129.353791,36.6754057 C130.631374,48.9702024 125.718788,58.7986171 117.061192,67.0567797 C114.613335,69.3922512 111.678877,71.0104138 108.292237,71.6723894 C105.384775,72.2398935 102.644013,71.7776577 100.074,70.3288691 C99.6677107,70.100113 99.3727801,70.0697472 98.9428699,70.302552 C94.6167712,72.6501699 90.3163187,72.3073732 86.070533,70.0798691 C82.2222624,68.0608772 79.2378618,65.0600561 76.7083427,61.590926 C73.1442043,56.704048 70.7003973,51.3191699 69.7163954,45.3155033 C69.2493657,42.4651618 69.3573495,39.6080724 69.6516052,36.7550317 C70.0322479,33.0517472 70.8650725,29.4645276 72.6690758,26.1661211 C74.913113,22.0633569 78.2039175,19.314235 82.8897369,18.4552187 C86.1920147,17.849926 89.4295023,18.2912431 92.6001749,19.2649748 C94.0464821,19.7089911 95.4522954,20.2906659 96.8736314,20.8190317 C97.3845295,21.0086496 97.8853041,21.2272837 98.5311818,21.4897797" id="Fill-65" fill="#BA122B"></path>
                <g id="Group-69" transform="translate(101.909656, 0.480455)">
                    <mask id="mask-8" fill="white">
                        <use xlink:href="#path-7"></use>
                    </mask>
                    <g id="Clip-68"></g>
                    <path d="M3.80190505,15.6300472 C2.97380474,15.5882098 2.33602577,15.5699902 1.69959659,15.5207301 C0.916714472,15.4593236 0.56306772,15.0976325 0.630557558,14.3276894 C0.924138354,10.9429089 1.84200015,7.76259187 3.88491756,4.99052683 C5.94268272,2.19821789 8.85689393,0.834453659 12.184143,0.37559187 C13.9544014,0.13064065 15.7719028,0.21364065 17.5684822,0.194071545 C18.1617179,0.187323577 18.5281877,0.582079675 18.4795951,1.18129919 C18.1313475,5.38730732 16.9610737,9.26603902 13.7762282,12.2560634 C11.7441092,14.1637138 9.2037917,14.9950634 6.50419817,15.3864455 C5.54854207,15.5247789 4.57803819,15.5618927 3.80190505,15.6300472" id="Fill-67" fill="#BA122B" mask="url(#mask-8)"></path>
                </g>
            </g>
        </g>
    </g>
</svg>