<?xml version="1.0" encoding="UTF-8" standalone="no"?>
<svg width="256px" height="256px" viewBox="0 0 256 256" version="1.1" xmlns="http://www.w3.org/2000/svg" xmlns:xlink="http://www.w3.org/1999/xlink">
    <!-- Generator: Sketch 3.7 (28169) - http://www.bohemiancoding.com/sketch -->
    <title>256</title>
    <desc>Created with Sketch.</desc>
    <defs>
        <path d="M78.49,0 C74.1409684,0.733042105 69.7585368,1.30611579 65.4464211,2.22373684 C30.3377474,9.69127368 3.36636842,40.4456421 0.5344,76.1238737 C0.464084211,77.0204 0.182821053,77.8975895 0,78.7835684 L0,88.2146737 C0.922894737,93.4725368 1.54694737,98.8007158 2.81790526,103.972442 C10.8884,136.859137 39.4629789,161.991758 73.0985368,165.973389 C76.5686211,166.384737 80.0070632,166.588653 83.4033158,166.593926 L83.7584105,166.593926 C123.745242,166.499 157.762263,138.951032 165.688611,98.5792211 C166.221253,95.8826105 166.567558,93.1490842 167,90.4348947 L167,76.5651053 C165.987453,71.3336105 165.338789,66.0001579 163.900832,60.8864421 C154.471484,27.3370211 125.425789,3.50524211 90.6194737,0.515063158 C89.9057684,0.455294737 89.2131579,0.177547368 88.51,0 L78.49,0 L78.49,0 Z M27.3352632,61.9306316 L63.3492526,61.9306316 L63.3492526,25.7215158 L103.423979,25.7215158 L103.423979,61.7987895 L140.134095,61.7987895 L140.134095,103.283347 L103.647232,103.283347 L103.647232,139.682316 L63.5338316,139.682316 L63.5338316,103.450347 L27.3352632,103.450347 L27.3352632,61.9306316 L27.3352632,61.9306316 Z" id="path-1"></path>
    </defs>
    <g id="Page-1" stroke="none" stroke-width="1" fill="none" fill-rule="evenodd">
        <g id="256">
            <g id="Page-1" transform="translate(45.000000, 45.000000)">
                <mask id="mask-2" fill="white">
                    <use xlink:href="#path-1"></use>
                </mask>
                <g id="Clip-2"></g>
                <polygon id="Fill-1" fill="#FEFEFE" mask="url(#mask-2)" points="-8.78947368 175.385158 175.789474 175.385158 175.789474 -8.78947368 -8.78947368 -8.78947368"></polygon>
            </g>
        </g>
    </g>
</svg>