<?xml version="1.0" encoding="UTF-8" standalone="no"?>
<svg width="256px" height="256px" viewBox="0 0 256 256" version="1.1" xmlns="http://www.w3.org/2000/svg" xmlns:xlink="http://www.w3.org/1999/xlink">
    <!-- Generator: Sketch 3.7 (28169) - http://www.bohemiancoding.com/sketch -->
    <title>256</title>
    <desc>Created with Sketch.</desc>
    <defs>
        <polygon id="path-1" points="0 170.48995 209.676977 170.48995 209.676977 0.069174201 0 0.069174201"></polygon>
        <polygon id="path-3" points="0 171.119505 209.676977 171.119505 209.676977 0.698729303 0 0.698729303"></polygon>
    </defs>
    <g id="Page-1" stroke="none" stroke-width="1" fill="none" fill-rule="evenodd">
        <g id="256">
            <g id="Page-1" transform="translate(23.000000, 42.000000)">
                <g id="Group-3" transform="translate(0.000000, 0.629555)">
                    <mask id="mask-2" fill="white">
                        <use xlink:href="#path-1"></use>
                    </mask>
                    <g id="Clip-2"></g>
                    <path d="M170.479535,13.1765673 L13.0562791,13.1765673 L13.0562791,15.1330094 C13.0562791,57.7275477 13.0562791,100.322785 13.0583721,142.918022 C13.0590698,143.700599 13.0234884,144.490861 13.1176744,145.264355 C13.6053488,149.284144 15.0655814,152.792464 18.4437209,155.289024 C21.2253488,157.344686 24.4583721,157.49631 27.7039535,157.497009 C76.0395349,157.510983 124.375116,157.506092 172.710698,157.506092 L174.752093,157.506092 C173.982558,156.307771 173.34907,155.416892 172.813953,154.470113 C170.851395,150.998127 170.477442,147.185162 170.477442,143.292541 C170.480233,100.753901 170.479535,58.214562 170.479535,15.6752233 L170.479535,13.1765673 Z M0,146.326423 L0,0.0691043281 L183.372558,0.0691043281 L183.372558,26.2344205 L209.676977,26.2344205 L209.676977,148.003374 C208.753256,151.494924 208.253721,155.17024 206.822093,158.437498 C203.425814,166.192695 197.265349,170.437475 188.738372,170.448655 C134.934419,170.515034 81.1297674,170.482194 27.325814,170.480098 C26.5437209,170.480098 25.7616279,170.4787 24.9816279,170.444463 C12.0404651,169.861722 4.08348837,163.311834 1.00883721,150.708854 C0.65372093,149.252702 0.335581395,147.787466 0,146.326423 L0,146.326423 Z" id="Fill-1" fill="#FEFEFE" mask="url(#mask-2)"></path>
                </g>
                <mask id="mask-4" fill="white">
                    <use xlink:href="#path-3"></use>
                </mask>
                <g id="Clip-5"></g>
                <polygon id="Fill-4" fill="#FEFEFE" mask="url(#mask-4)" points="26.4146512 131.720256 84.9655814 131.720256 84.9655814 66.4554453 26.4146512 66.4554453"></polygon>
                <polygon id="Fill-6" fill="#FEFEFE" mask="url(#mask-4)" points="26.43 52.8882184 157.06186 52.8882184 157.06186 40.0588497 26.43 40.0588497"></polygon>
                <polygon id="Fill-7" fill="#FEFEFE" mask="url(#mask-4)" points="98.52 79.0870736 157.055581 79.0870736 157.055581 66.4568427 98.52 66.4568427"></polygon>
                <polygon id="Fill-8" fill="#FEFEFE" mask="url(#mask-4)" points="98.5011628 105.343225 157.024186 105.343225 157.024186 92.7276671 98.5011628 92.7276671"></polygon>
                <polygon id="Fill-9" fill="#FEFEFE" mask="url(#mask-4)" points="98.582093 131.697896 143.984651 131.697896 143.984651 118.885996 98.582093 118.885996"></polygon>
            </g>
        </g>
    </g>
</svg>