<?xml version="1.0" encoding="UTF-8" standalone="no"?>
<svg width="256px" height="256px" viewBox="0 0 256 256" version="1.1" xmlns="http://www.w3.org/2000/svg" xmlns:xlink="http://www.w3.org/1999/xlink">
    <!-- Generator: Sketch 3.7 (28169) - http://www.bohemiancoding.com/sketch -->
    <title>256</title>
    <desc>Created with Sketch.</desc>
    <defs>
        <polygon id="path-1" points="22.5384045 49.5370151 22.5384045 0.0652595745 0.405966056 0.0652595745 0.405966056 49.5370151 22.5384045 49.5370151"></polygon>
        <polygon id="path-3" points="97.34353 123.323223 0.0930557466 123.323223 0.0930557466 0.197062766 97.34353 0.197062766 97.34353 123.323223"></polygon>
    </defs>
    <g id="Page-1" stroke="none" stroke-width="1" fill="none" fill-rule="evenodd">
        <g id="256">
            <g id="Page-1" transform="translate(16.000000, 22.000000)">
                <path d="M93.8492171,149.702518 C90.0543584,150.768273 87.5380704,156.026805 85.3773614,159.057901 C82.1847171,163.536944 79.5806693,168.831731 78.0478974,174.130295 C77.2762156,176.796571 77.3284176,179.066305 77.2376315,181.803582 C77.1476019,184.517444 76.0498468,186.882348 75.9598172,189.611316 C75.9000497,191.421816 75.7790016,193.406039 75.9598172,195.204454 C76.1307977,196.905433 76.9282022,198.175124 76.3320402,199.886678 C75.1132369,203.386071 72.1399923,205.281167 73.9958114,209.450529 C76.0929702,214.160699 81.6468095,212.70822 85.5960046,211.375837 C88.9702211,210.236816 91.8980726,208.939933 94.913684,207.004805 C96.953345,205.695837 98.219811,203.664784 100.877574,203.921593 C104.348629,204.25771 106.013797,207.670241 110.252751,206.892263 C110.752831,206.800869 110.876906,207.325061 111.419353,206.986678 C112.478524,206.327284 112.47928,203.840018 112.595789,202.858859 C113.26458,197.179614 113.824427,191.402178 114.864685,185.765986 C115.529693,182.164624 116.033556,178.829135 116.241607,175.17188 C116.412588,172.173263 117.576163,169.241869 117.59659,166.25005 C117.620043,162.860933 116.234042,159.932561 115.316346,156.740582 C114.527263,153.994241 114.046097,151.555316 111.297548,150.771295 C109.052862,150.130784 106.579697,150.999401 104.309288,151.019039 C101.725667,151.040944 99.9371813,151.373284 97.9134079,149.715359 C95.3963634,147.651071 95.3880414,148.263635 93.8492171,149.702518" id="Fill-1" fill="#E2D6CC"></path>
                <path d="M112.350364,137.157876 C112.350364,137.157876 112.256552,130.508046 111.808674,132.054939 C111.363065,130.508046 110.673847,137.157876 110.673847,137.157876 L100.877271,147.930993 L103.290668,150.623705 C103.290668,150.623705 110.105678,150.623705 110.74118,150.646365 C110.942423,150.653918 111.223103,150.412216 111.512106,150.007365 C111.801108,150.412216 112.082545,150.653918 112.283031,150.646365 C112.918534,150.623705 119.733543,150.623705 119.733543,150.623705 L122.146184,147.930993 L112.350364,137.157876 Z" id="Fill-3" fill="#000000"></path>
                <path d="M129.174767,149.702518 C132.970383,150.768273 135.48667,156.026805 137.646623,159.057901 C140.840024,163.536944 143.443315,168.831731 144.976087,174.130295 C145.747769,176.796571 145.695567,179.066305 145.786353,181.803582 C145.876382,184.517444 146.974138,186.882348 147.064167,189.611316 C147.124691,191.421816 147.245739,193.406039 147.064167,195.204454 C146.893943,196.905433 146.095782,198.175124 146.691944,199.886678 C147.910747,203.386071 150.883992,205.281167 149.028173,209.450529 C146.931014,214.160699 141.377931,212.70822 137.42798,211.375837 C134.053763,210.236816 131.125912,208.939933 128.1103,207.004805 C126.070639,205.695837 124.80493,203.664784 122.14641,203.921593 C118.675355,204.25771 117.010187,207.670241 112.771233,206.892263 C112.271153,206.800869 111.465426,207.377933 110.922223,207.040305 C109.863052,206.380912 110.543948,203.840018 110.428195,202.858859 C109.759404,197.179614 109.199557,191.402178 108.1593,185.765986 C107.494291,182.164624 106.990429,178.829135 106.782377,175.17188 C106.611397,172.173263 105.447822,169.241869 105.427395,166.25005 C105.403185,162.860933 106.789186,159.932561 107.706882,156.740582 C108.496721,153.994241 108.977887,151.555316 111.726437,150.771295 C113.971123,150.130784 116.444287,150.999401 118.715453,151.019039 C121.298317,151.040944 123.086803,151.373284 125.110576,149.715359 C127.627621,147.651071 127.635943,148.263635 129.174767,149.702518" id="Fill-5" fill="#E2D6CC"></path>
                <path d="M131.375725,152.183137 C131.143464,151.359839 127.782109,150.220063 127.115587,149.774424 C122.832753,146.900435 116.840871,147.500159 111.511727,147.569648 C106.18334,147.500159 100.191458,146.900435 95.9078674,149.774424 C95.2421027,150.220063 91.8799911,151.359839 91.6484865,152.183137 C90.9698605,154.592605 96.3549889,154.427946 97.6464211,154.369786 C100.895807,154.221744 104.161837,154.006478 107.272017,153.535159 C108.05656,153.416573 114.968408,153.416573 115.752195,153.535159 C118.862375,154.006478 122.128405,154.221744 125.37779,154.369786 C126.669222,154.427946 132.053594,154.592605 131.375725,152.183137" id="Fill-7" fill="#000000"></path>
                <path d="M14.4110063,43.8162149 C17.0158107,49.7620872 12.3335179,64.4817468 21.6474146,65.9274277 C26.8804764,66.7409064 30.3432093,60.3637468 33.7930809,57.3960979 C35.515747,55.9141617 37.5470859,54.5228638 38.9709145,52.7357787 C39.7652928,51.7395128 40.2411633,50.3263106 41.0695864,49.3965128 C42.5554521,47.7280128 44.7744156,47.1101617 46.0514733,45.1825872 C47.909562,42.3773319 50.0475745,38.6989277 51.2603254,35.5507574 C53.078317,30.8337894 56.3087888,27.0352894 58.2395064,22.4520128 C60.2118343,17.7705447 59.1458543,14.1850447 56.6673939,9.91144894 C54.1155481,5.51171489 49.0799461,3.84925745 44.140426,4.27827872 C36.8351716,4.91350213 31.2692275,9.49224681 26.7964992,14.8565234 C24.1334405,18.0500128 21.6496842,20.5433213 19.8816251,24.3856298 C18.7377203,26.8736511 17.82532,29.3865979 17.2276449,32.0596723 C16.4552066,35.5122362 16.5331313,41.1159489 14.4110063,43.8162149" id="Fill-9" fill="#C28046"></path>
                <g id="Group-13" transform="translate(0.000000, 17.810426)" fill="#C28046">
                    <path d="M21.2262428,0.0652595745 C18.2620768,3.35089787 15.0656497,7.16677021 11.3820039,9.79905745 C7.59244106,12.5068766 1.66335256,15.1580468 0.343927987,20.2647596 C-1.0874661,25.8072915 2.23530495,31.706334 5.04059526,36.2118128 C6.67852771,38.8433447 6.93878119,41.3729085 7.37228479,44.2914617 C7.66053063,46.2326319 8.74315481,52.2978447 11.0710616,48.071834 C11.9448777,46.4841532 11.9017543,43.9636532 12.0681955,42.1758128 C12.491864,37.6303021 13.4050207,32.9616745 14.7365501,28.5898872 C16.0688361,24.2143234 16.9479481,19.9346851 18.4201959,15.6520255 C20.1920378,10.5007489 23.8219685,4.43629149 21.2262428,0.0652595745" id="Fill-11"></path>
                </g>
                <path d="M75.7466969,10.6470543 C72.106931,6.30019255 67.2786239,6.46711809 62.542616,3.84238404 C57.842166,1.23955426 52.0938931,-0.163073404 46.684555,0.015937234 C38.8580371,0.274256383 31.4975545,4.74272447 26.1078867,10.4446287 C22.5536111,14.2053628 19.7301636,17.6715223 18.4576452,22.7737032 C17.7676709,25.5404372 17.7790191,28.3781713 17.1268723,31.1214904 C16.4785083,33.8497032 15.5676212,36.4381819 14.7323891,39.0916181 C12.9325548,44.8124053 12.3855686,50.6782138 10.902729,56.4609372 C10.0750625,59.688416 7.95898992,64.6765436 9.12407813,68.0233628 C14.1967511,68.80965 14.4774315,55.6995755 14.6242023,52.5272351 C14.9888598,44.6462351 20.0350536,36.9978734 22.5619332,29.6040543 C25.6138591,20.6708947 32.8434584,9.39473511 42.9449244,7.65599043 C47.0658566,6.94674574 52.3004315,6.81909681 55.1405231,10.3713628 C57.2119592,12.9613521 57.1877495,17.9366394 56.7444108,21.0802777 C56.5076104,22.7585968 55.6784307,24.2118309 55.2487099,25.838033 C54.2258532,29.7105543 57.2830749,29.1123415 59.5761804,27.0684479 C63.5624465,23.5176926 65.9909745,16.9207351 71.4328443,15.171416 C72.3263308,14.8843947 76.9322119,14.1864798 75.7466969,10.6470543" id="Fill-14" fill="#C28046"></path>
                <path d="M75.5335765,9.79656489 C65.9669918,3.23586277 61.7363598,19.1005862 57.3249122,24.467884 C55.2731465,26.9634585 52.4693693,26.95515 50.4032291,29.6705223 C48.2758082,32.4674691 47.0418739,35.7100543 45.9206657,39.0138202 C45.5053193,40.2397032 45.8185313,42.7050649 44.6640348,43.6174904 C43.1184015,44.8388415 42.6743062,43.1318202 41.4630684,43.1726074 C39.6322155,43.2352989 39.5558039,44.7731287 39.542186,46.357033 C39.5323508,47.5549691 39.9840116,48.8027564 39.7275409,49.9999372 C39.3840669,51.6019691 38.1387843,53.0589798 37.822546,54.8370011 C37.4314093,57.0372457 37.5131168,59.7964266 40.4175152,59.7677245 C44.3977289,59.7276926 48.2175538,54.0786606 50.0461371,51.2628309 C52.6501849,47.2558628 54.92362,43.003416 57.3196163,38.8650223 C59.0324473,35.9079479 60.5803502,32.583033 63.1594319,30.2634479 C67.1547766,26.67115 71.7281261,23.9165011 75.5086103,20.0009266 C76.9112555,18.5469372 78.6369478,16.9705862 78.9032537,14.9365117 C78.3963647,14.6963202 77.0928277,14.4002351 76.7417881,14.0490117 C76.0427352,13.3480755 76.4815346,12.2475755 75.5335765,9.79656489" id="Fill-16" fill="#C28046"></path>
                <path d="M104.720625,10.6595926 C96.4424462,10.6595926 87.6604047,11.1029649 79.8119469,13.1317521 C72.424985,15.0427096 66.2636354,22.562667 60.8777503,27.6399223 C51.9413725,36.0655074 47.7462984,48.6491245 38.2137585,56.0973266 C32.6394923,60.4524968 23.8521549,66.4353798 22.3761243,73.789167 C20.6746416,82.2661138 23.9754727,86.2896989 24.5406161,94.0566457 C24.8644198,98.499433 24.4884141,103.010954 23.2749066,107.280018 C21.8790704,112.191859 21.9448904,117.79255 22.4525359,122.916635 C23.7068971,135.570497 29.1343925,149.450241 36.5190847,159.754305 C39.7155118,164.21371 40.888922,167.00839 40.8563904,172.311486 C40.8253718,177.37439 45.4774025,183.305156 47.1856942,188.123337 C47.7629425,189.748784 49.0021727,193.805603 50.7271084,194.610018 C54.042314,196.156912 56.373247,190.664986 57.6934281,188.371082 C63.1073055,178.95905 64.4834714,168.203305 68.4326665,158.231582 C73.0672966,146.530933 76.1857989,134.41939 80.4043261,122.514805 C82.7390418,115.926912 87.8260893,111.357231 91.3001705,105.393986 C93.765013,101.162688 94.8082965,96.1949543 97.1891618,91.84205 C99.5912106,87.4528904 102.66205,83.426284 103.941378,78.567316 C105.070151,74.2793691 105.431026,69.5873266 105.382607,65.1671989 C105.321326,59.645816 105.259289,54.9190287 105.838807,49.4354117 C106.158828,46.4080926 105.672366,43.4872734 105.358397,40.5045181 C104.982391,36.9341245 104.461128,33.354667 104.227354,29.7616138 C103.961048,25.667784 105.072421,23.1419968 105.959099,19.3208372 C106.747424,15.9226564 105.229784,12.9074223 104.720625,10.6595926" id="Fill-18" fill="#C28046"></path>
                <path d="M208.613356,43.8162149 C206.008552,49.7620872 210.690088,64.4817468 201.376948,65.9274277 C196.143886,66.7409064 192.680397,60.3637468 189.231282,57.3960979 C187.508616,55.9141617 185.47652,54.5228638 184.052692,52.7357787 C183.258313,51.7395128 182.782443,50.3263106 181.95402,49.3965128 C180.468911,47.7280128 178.249191,47.1101617 176.972889,45.1825872 C175.114044,42.3773319 172.976788,38.6989277 171.764037,35.5507574 C169.945289,30.8337894 166.714817,27.0352894 164.7841,22.4520128 C162.812528,17.7705447 163.877752,14.1850447 166.356969,9.91144894 C168.908815,5.51171489 173.94366,3.84925745 178.88318,4.27827872 C186.188434,4.91350213 191.755135,9.49224681 196.227863,14.8565234 C198.890166,18.0500128 201.374678,20.5433213 203.142738,24.3856298 C204.285886,26.8736511 205.198286,29.3865979 205.795961,32.0596723 C206.5684,35.5122362 206.490475,41.1159489 208.613356,43.8162149" id="Fill-20" fill="#C28046"></path>
                <g id="Group-24" transform="translate(200.485958, 17.810426)">
                    <mask id="mask-2" fill="white">
                        <use xlink:href="#path-1"></use>
                    </mask>
                    <g id="Clip-23"></g>
                    <path d="M1.31178341,0.0652595745 C4.27594939,3.35089787 7.47313301,7.16677021 11.1567788,9.79905745 C14.9455851,12.5068766 20.8746736,15.1580468 22.1948547,20.2647596 C23.6254923,25.8072915 20.3034778,31.706334 17.4974309,36.2118128 C15.8594985,38.8433447 15.599245,41.3729085 15.1657414,44.2914617 C14.8774955,46.2326319 13.7948714,52.2978447 11.4669646,48.071834 C10.593905,46.4841532 10.6362718,43.9636532 10.4690741,42.1758128 C10.0461622,37.6303021 9.13300543,32.9616745 7.80147605,28.5898872 C6.46919011,24.2143234 5.5900781,19.9346851 4.11783027,15.6520255 C2.34598833,10.5007489 -1.28394234,4.43629149 1.31178341,0.0652595745" id="Fill-22" fill="#C28046" mask="url(#mask-2)"></path>
                </g>
                <path d="M147.277288,10.6470543 C150.91781,6.30019255 155.744604,6.46711809 160.481368,3.84238404 C165.181818,1.23955426 170.930848,-0.163073404 176.339429,0.015937234 C184.165947,0.274256383 191.52643,4.74272447 196.916098,10.4446287 C200.470373,14.2053628 203.293821,17.6715223 204.566339,22.7737032 C205.256314,25.5404372 205.244965,28.3781713 205.897112,31.1214904 C206.545476,33.8497032 207.456363,36.4381819 208.290839,39.0916181 C210.090673,44.8124053 210.638416,50.6782138 212.121255,56.4609372 C212.948922,59.688416 215.064994,64.6765436 213.900663,68.0233628 C208.827233,68.80965 208.546553,55.6995755 208.399782,52.5272351 C208.035881,44.6462351 202.989687,36.9978734 200.462051,29.6040543 C197.410125,20.6708947 190.180526,9.39473511 180.078303,7.65599043 C175.958128,6.94674574 170.723553,6.81909681 167.883461,10.3713628 C165.812025,12.9613521 165.836235,17.9366394 166.279574,21.0802777 C166.517131,22.7585968 167.345554,24.2118309 167.776031,25.838033 C168.797375,29.7105543 165.740909,29.1123415 163.447804,27.0684479 C159.460781,23.5176926 157.033766,16.9207351 151.59114,15.171416 C150.697654,14.8843947 146.091772,14.1864798 147.277288,10.6470543" id="Fill-25" fill="#C28046"></path>
                <path d="M147.490862,9.79656489 C157.057446,3.23586277 161.287322,19.1005862 165.69877,24.467884 C167.750535,26.9634585 170.554312,26.95515 172.621209,29.6705223 C174.747873,32.4674691 175.981808,35.7100543 177.103773,39.0138202 C177.518362,40.2397032 177.20515,42.7050649 178.360403,43.6174904 C179.906037,44.8388415 180.349376,43.1318202 181.560613,43.1726074 C183.391466,43.2352989 183.468634,44.7731287 183.481496,46.357033 C183.492087,47.5549691 183.03967,48.8027564 183.296141,49.9999372 C183.639615,51.6019691 184.885654,53.0589798 185.201892,54.8370011 C185.592272,57.0372457 185.510565,59.7964266 182.606923,59.7677245 C178.625953,59.7276926 174.806128,54.0786606 172.977545,51.2628309 C170.373497,47.2558628 168.100062,43.003416 165.704065,38.8650223 C163.991991,35.9079479 162.443332,32.583033 159.86425,30.2634479 C155.868905,26.67115 151.295556,23.9165011 147.515071,20.0009266 C146.112426,18.5469372 144.386734,16.9705862 144.120428,14.9365117 C144.627317,14.6963202 145.930854,14.4002351 146.281894,14.0490117 C146.980947,13.3480755 146.542147,12.2475755 147.490862,9.79656489" id="Fill-27" fill="#C28046"></path>
                <path d="M118.303057,10.6595926 C126.581236,10.6595926 135.364034,11.1029649 143.211735,13.1317521 C150.598697,15.0427096 156.760046,22.562667 162.145931,27.6399223 C171.083066,36.0655074 175.27814,48.6491245 184.809923,56.0973266 C190.384189,60.4524968 199.171527,66.4353798 200.647557,73.789167 C202.349797,82.2661138 199.048966,86.2896989 198.483066,94.0566457 C198.159262,98.499433 198.536024,103.010954 199.748775,107.280018 C201.145368,112.191859 201.078791,117.79255 200.571146,122.916635 C199.317541,135.570497 193.889289,149.450241 186.504597,159.754305 C183.308927,164.21371 182.13476,167.00839 182.168048,172.311486 C182.199067,177.37439 177.546279,183.305156 175.837988,188.123337 C175.260739,189.748784 174.021509,193.805603 172.296573,194.610018 C168.981368,196.156912 166.650435,190.664986 165.330254,188.371082 C159.916376,178.95905 158.540967,168.203305 154.591015,158.231582 C149.957142,146.530933 146.837883,134.41939 142.619356,122.514805 C140.28464,115.926912 135.198349,111.357231 131.723511,105.393986 C129.258669,101.162688 128.216142,96.1949543 125.83452,91.84205 C123.432471,87.4528904 120.361632,83.426284 119.082304,78.567316 C117.95353,74.2793691 117.593412,69.5873266 117.641075,65.1671989 C117.703112,59.645816 117.764393,54.9190287 117.184875,49.4354117 C116.86561,46.4080926 117.351316,43.4872734 117.665285,40.5045181 C118.04129,36.9341245 118.56331,33.354667 118.796328,29.7616138 C119.062634,25.667784 117.951261,23.1419968 117.064583,19.3208372 C116.276257,15.9226564 117.793898,12.9074223 118.303057,10.6595926" id="Fill-29" fill="#C28046"></path>
                <path d="M90.7114984,87.2573383 C92.0884208,84.0570511 89.8883711,79.4382745 89.3073401,76.1080723 C88.6831857,72.5271043 88.0416306,69.8653596 86.0095352,66.7202106 C83.972144,63.5675085 82.3735522,60.9994234 78.3842599,60.558317 C73.3819461,60.0054234 68.6179458,63.2238383 63.9689412,64.6007851 C59.154252,66.0283383 56.0917344,65.3772532 51.3776665,64.6211787 C51.1779371,62.1104979 55.3692284,60.274317 57.2038641,58.8777319 C59.6437404,57.0196468 61.7492212,54.8828489 63.5082018,52.3336468 C67.1585593,47.0403702 68.6202154,41.7773064 73.4386874,37.021817 C75.9232002,34.5685404 78.3532413,31.9498489 81.0420228,29.7412957 C83.0816837,28.0644872 86.0496324,26.7812 87.7132876,24.7486362 C89.5683501,22.4841894 90.3612154,18.5701255 92.6331374,16.6931574 C94.0902542,15.4884234 96.352341,15.0367426 97.9932997,13.8999872 C99.14477,13.1023702 100.172922,11.7254234 101.27673,11.0395936 C102.863217,10.0546574 108.827863,8.02511489 114.790997,9.72609362 C117.499449,10.4972745 112.542528,19.8662532 113.04866,22.3912851 C113.89978,26.6354234 113.273356,30.4263702 112.826991,34.7770085 C111.891894,43.9057957 112.612887,53.2052851 112.229316,62.3703277 C112.055309,66.5351574 112.144582,70.5557213 112.825478,74.6676787 C113.143986,76.5937426 113.975435,78.8823596 113.639526,80.8748915 C113.082705,84.1741255 111.007486,84.927934 108.1969,85.5216149 C102.304126,86.7671362 96.5021381,87.2573383 90.7114984,87.2573383" id="Fill-31" fill="#E2D6CC"></path>
                <path d="M132.312562,87.2573383 C130.935639,84.0570511 133.135689,79.4382745 133.715963,76.1080723 C134.340874,72.5271043 134.982429,69.8653596 137.014525,66.7202106 C139.051916,63.5675085 140.650508,60.9994234 144.6398,60.558317 C149.642114,60.0054234 154.406114,63.2238383 159.055119,64.6007851 C163.869808,66.0283383 166.932326,65.3772532 171.645637,64.6211787 C171.846123,62.1104979 167.654832,60.274317 165.820196,58.8777319 C163.379563,57.0196468 161.274082,54.8828489 159.515858,52.3336468 C155.865501,47.0403702 154.403088,41.7773064 149.585373,37.021817 C147.10086,34.5685404 144.670819,31.9498489 141.982037,29.7412957 C139.942376,28.0644872 136.974428,26.7812 135.310772,24.7486362 C133.45571,22.4841894 132.662845,18.5701255 130.390923,16.6931574 C128.933049,15.4884234 126.671719,15.0367426 125.03076,13.8999872 C123.880047,13.1023702 122.851138,11.7254234 121.74733,11.0395936 C120.160843,10.0546574 113.513788,8.02511489 110.38999,9.8673383 C107.966001,11.2979128 110.481532,19.8662532 109.9754,22.3912851 C109.12428,26.6354234 109.751461,30.4263702 110.197069,34.7770085 C111.132166,43.9057957 110.41193,53.2052851 110.794744,62.3703277 C110.967994,66.5351574 110.879478,70.5557213 110.198582,74.6676787 C109.880074,76.5937426 109.048625,78.8823596 109.384534,80.8748915 C109.941355,84.1741255 112.016574,84.927934 114.82716,85.5216149 C120.719934,86.7671362 126.521922,87.2573383 132.312562,87.2573383" id="Fill-33" fill="#E2D6CC"></path>
                <path d="M111.738617,115.895339 C106.861891,113.984382 107.048002,125.830807 107.053298,128.710839 C107.062377,133.748063 106.360297,137.400786 102.177328,140.536871 C94.376533,146.386063 85.4023276,149.971563 80.239625,158.697765 C77.1544109,163.913244 75.7903498,169.794914 74.890811,175.721148 C74.1213988,180.790095 73.9292349,186.302414 72.6665516,191.262595 C71.5680399,195.577733 70.7328078,200.025052 69.7772842,204.347744 C69.5223266,205.501116 69.4398625,206.858424 69.5707458,208.068446 C69.7402132,209.637999 69.4292708,209.407627 70.6715272,210.24301 C71.584684,210.853307 75.0784356,212.628307 76.0581688,212.64719 C79.1108512,212.707616 77.1506282,209.587393 77.0242842,207.71269 C76.761761,203.80618 78.7371152,199.29768 79.1706188,195.325456 C79.658594,190.850946 80.4665902,186.445924 81.0710743,182.021265 C82.3488886,172.665882 84.7864952,164.031073 89.8024269,157.569318 C94.1730208,151.939924 100.572684,148.839339 106.307339,145.228914 C113.062581,140.976467 111.911111,129.670095 112.164555,122.592754 C112.216757,121.151605 113.291059,116.812297 111.738617,115.895339" id="Fill-35" fill="#000000"></path>
                <path d="M72.6026231,99.9746468 C70.9124887,100.178583 69.4977387,101.7217 67.8779634,102.291211 C66.1613497,102.894711 64.1519508,103.421168 62.359682,103.810157 C58.4286441,104.664423 53.1055528,103.979349 51.2338462,99.8938277 C50.3282549,97.9164021 51.3269019,95.4487745 51.7059339,93.4562426 C52.0834527,91.4780617 51.6098519,89.1146681 52.3868296,87.2022 C54.3636968,82.3402106 64.3955602,83.7133809 68.2456471,85.1432 C71.8392634,86.4778489 73.8584974,88.4341255 73.4976227,92.1019553 C73.2487175,94.6217 72.4407212,97.317434 72.6026231,99.9746468" id="Fill-37" fill="#FFFFFF"></path>
                <path d="M74.2317796,91.9301957 C69.0373019,97.7620149 60.0585571,104.208664 55.4171181,95.0164298 C54.2361423,92.6764511 52.2933199,88.0523872 53.4326854,85.4699511 C54.2119327,83.7025043 57.5218424,83.8460149 59.4117062,83.6043128 C62.2275883,83.2440255 64.8361754,83.2704617 67.4477887,84.478217 C68.9676992,85.1814191 71.8751239,85.9050149 72.8276213,87.0923766 C73.4298357,87.8416532 73.4275661,89.0123979 73.649992,89.8477809 C73.9352117,90.9195787 74.8960312,91.1839404 74.2317796,91.9301957" id="Fill-39" fill="#000000"></path>
                <path d="M72.529162,100.23206 C73.6314565,98.5998149 73.2841997,96.3837085 73.7895756,94.5845383 C74.316135,92.7098362 75.2444228,90.941634 74.9652556,88.953634 C74.2805771,84.0954213 68.6367082,84.0788043 64.8357971,83.3265064 C61.787654,82.7230064 59.8629888,82.7532191 56.8027408,83.3438787 C54.9575135,83.699634 52.5236896,83.3030915 51.1936733,84.8635809 C50.0596037,86.1936979 50.2381497,89.114517 49.6752759,90.9295489 C48.7961639,93.7627511 46.8435063,97.0128894 46.8351842,100.027368 C46.8200532,105.489081 52.4979669,106.496677 56.7180072,104.850081 C54.9310342,102.608294 51.948711,103.200464 51.8707863,99.7131553 C51.8337153,98.0574957 52.7461155,96.2900489 52.849763,94.6056872 C52.9685415,92.6766021 52.7506548,90.889517 53.0895896,88.9475915 C54.3015839,81.9986553 70.01817,84.6709745 72.483769,90.2278574 C73.9635823,93.5603255 71.3837441,96.9947617 72.2817699,100.184474 C72.4958738,100.215443 72.9626656,100.00924 72.529162,100.23206" id="Fill-41" fill="#000000"></path>
                <path d="M63.4405661,88.0488372 C63.8725566,89.2354436 63.2589939,90.547433 62.0704527,90.9772096 C60.8826679,91.4084968 59.5692958,90.7966883 59.1373053,89.6100819 C58.7060713,88.4234755 59.3188774,87.1122415 60.5074187,86.6809543 C61.6952035,86.2504223 63.0085756,86.8629862 63.4405661,88.0488372" id="Fill-43" fill="#000000"></path>
                <path d="M153.363739,104.260932 C151.731102,103.157411 151.22497,100.971517 150.084091,99.4910915 C148.894793,97.9472191 147.372613,96.6526021 146.889177,94.7038787 C145.708958,89.9415915 150.938993,87.8244319 154.185353,85.7102936 C156.787887,84.0153574 158.584696,83.3265064 161.644187,82.7350915 C163.489414,82.3793362 165.600191,81.1043574 167.416669,82.0568149 C168.966085,82.8680277 169.892104,85.6445809 171.09275,87.1189638 C172.966726,89.4204213 175.992173,91.708283 177.126242,94.5029638 C179.181034,99.5651128 174.289177,102.614336 169.759707,102.657389 C170.579052,99.9125596 173.566671,99.3513574 172.336519,96.0861128 C171.752462,94.5369532 170.244656,93.2362936 169.519881,91.7120596 C168.689188,89.966517 168.223153,88.2277723 167.184408,86.5517191 C163.463692,80.5559957 149.879066,88.8886766 149.667231,94.9621979 C149.539374,98.6051021 153.216968,100.831028 153.574816,104.124974 C153.387948,104.232985 152.878033,104.215613 153.363739,104.260932" id="Fill-45" fill="#000000"></path>
                <path d="M153.198962,104.049594 C154.843703,103.609243 156.732054,104.51487 158.447155,104.440094 C160.265903,104.360785 162.326747,104.1002 164.13566,103.794296 C168.102256,103.122817 172.785305,100.504881 172.995626,96.0160191 C173.097004,93.8444766 171.247994,91.9274766 170.150995,90.2197 C169.063075,88.5247638 168.61898,86.156083 167.183047,84.6703702 C163.532689,80.8960404 154.73703,85.9060723 151.700235,88.6660085 C148.864682,91.2431574 147.722291,93.8104872 149.427556,97.0787532 C150.599453,99.3228064 152.356164,101.524562 153.198962,104.049594" id="Fill-47" fill="#FFFFFF"></path>
                <path d="M111.285367,115.895339 C116.162094,113.984382 115.975982,125.830807 115.970686,128.710839 C115.961608,133.748063 116.663687,137.400786 120.846656,140.536871 C128.648208,146.386063 137.621657,149.971563 142.784359,158.697765 C145.869573,163.913244 147.233635,169.794914 148.13393,175.721148 C148.902586,180.790095 149.094749,186.302414 150.357433,191.262595 C151.455944,195.577733 152.291933,200.025052 153.245944,204.347744 C153.501658,205.501116 153.584878,206.858424 153.453239,208.068446 C153.283771,209.637999 153.594714,209.407627 152.352457,210.24301 C151.4393,210.853307 147.946305,212.628307 146.966572,212.64719 C143.913133,212.707616 145.8726,209.587393 145.9997,207.71269 C146.262223,203.80618 144.287626,199.29768 143.852609,195.325456 C143.36539,190.850946 142.556638,186.445924 141.95291,182.021265 C140.675096,172.665882 138.237489,164.031073 133.221557,157.569318 C128.850207,151.939924 122.450544,148.839339 116.716645,145.228914 C109.961404,140.976467 111.112874,129.670095 110.859429,122.592754 C110.807227,121.151605 109.732925,116.812297 111.285367,115.895339" id="Fill-49" fill="#000000"></path>
                <path d="M148.681824,97.193033 C155.680675,100.669012 166.419157,103.307341 167.29146,93.0493521 C167.51313,90.4389691 167.588028,85.4244053 165.565768,83.4530223 C164.182037,82.103267 161.165669,83.468884 159.321198,83.9485117 C156.574162,84.6630436 154.163791,85.6585543 152.19222,87.7522989 C151.044532,88.9706287 148.617517,90.7252351 148.177205,92.1807351 C147.898794,93.1007138 148.33835,94.1861074 148.443511,95.0433947 C148.578933,96.1438947 147.786068,96.7473947 148.681824,97.193033" id="Fill-51" fill="#000000"></path>
                <path d="M171.081326,183.371398 C171.063925,178.296409 170.075113,172.30144 171.050307,167.404706 C172.724554,159.00027 171.087378,150.678919 170.70305,141.933834 C169.861766,122.759302 161.091073,105.041026 145.599182,93.5903872 C139.857718,89.3454936 133.209907,86.574983 126.680117,84.2516213 C124.087417,83.3286213 121.404688,82.2613553 118.781727,81.4592064 C116.964492,80.9025362 114.389949,81.0294298 112.365419,80.5505574 C111.954612,80.4720043 111.111815,80.4568979 110.659397,80.5505574 C108.633354,81.0294298 106.059568,80.9025362 104.24082,81.4592064 C101.619372,82.2613553 98.9366429,83.3286213 96.3439433,84.2516213 C89.8141535,86.574983 83.1655852,89.3454936 77.4241213,93.5903872 C61.9329874,105.041026 53.1630507,122.759302 52.3202531,141.933834 C51.9366818,150.678919 50.3002625,159.00027 51.9729963,167.404706 C52.9481902,172.30144 51.9608915,178.296409 51.9419777,183.371398 C51.9253336,187.926728 49.7903473,192.352898 49.7608418,196.91427 C49.7154487,203.922877 55.3010632,209.584749 61.5887568,211.250228 C72.2614187,214.079653 76.0328244,202.857877 77.256167,194.277451 C79.6816688,177.284281 80.7990943,157.625589 97.6399148,148.166728 C100.200083,146.729355 103.482,145.584291 105.687346,143.599313 C110.260695,139.483579 110.617787,131.709834 111.241941,126.242834 C111.676202,122.429983 110.83643,118.59976 111.51203,114.877547 C112.188386,118.59976 111.516569,122.855228 111.951586,126.668079 C112.57574,132.135834 112.763365,139.483579 117.335201,143.599313 C119.541303,145.584291 122.823221,146.729355 125.384902,148.166728 C142.224209,157.625589 143.341635,177.284281 145.76638,194.277451 C146.991236,202.857877 150.763398,214.079653 161.435303,211.250228 C167.722997,209.584749 173.308611,203.922877 173.263975,196.91427 C173.233713,192.352898 171.09797,187.926728 171.081326,183.371398" id="Fill-53" fill="#E2D6CC"></path>
                <path d="M159.583797,88.0488372 C159.151049,89.2354436 159.764612,90.547433 160.95391,90.9772096 C162.141695,91.4084968 163.45431,90.7966883 163.886301,89.6100819 C164.318291,88.4234755 163.704729,87.1122415 162.516944,86.6809543 C161.329159,86.2504223 160.01503,86.8629862 159.583797,88.0488372" id="Fill-55" fill="#000000"></path>
                <g id="Group-59" transform="translate(62.793715, 88.055106)">
                    <mask id="mask-4" fill="white">
                        <use xlink:href="#path-3"></use>
                    </mask>
                    <g id="Clip-58"></g>
                    <path d="M96.8832127,116.338334 C96.0003179,111.484653 93.625505,106.816026 93.6413926,101.844515 C93.6580367,96.5655894 93.8539834,91.3712596 93.8539834,86.1097064 C93.8547399,80.681983 94.2375546,74.1023979 92.6677117,68.8861638 C90.9995172,63.3436319 87.5034961,58.9219936 85.0136874,53.7624085 C82.7304172,49.0295787 78.9635508,44.0588234 78.7335594,38.8388128 C78.5799796,35.3409298 76.463907,32.101366 77.834777,29.0680043 C79.7738167,24.7845894 76.2384549,20.2851532 73.7819345,16.5553872 C68.2538179,8.16228085 60.0104405,1.64085532 50.2176472,0.261642553 C50.2146209,0.17553617 47.221706,0.17553617 47.2186798,0.261642553 C37.426643,1.64085532 29.1825091,8.16228085 23.6543925,16.5553872 C21.1978721,20.2851532 17.6632668,24.7845894 19.60155,29.0680043 C20.9731765,32.101366 18.857104,35.3409298 18.7027676,38.8388128 C18.4727762,44.0588234 14.7059098,49.0295787 12.4226396,53.7624085 C9.93283092,58.9219936 6.43756629,63.3436319 4.76937181,68.8861638 C3.19877238,74.1023979 3.58158707,80.681983 3.58234362,86.1097064 C3.58234362,91.3712596 3.77829028,96.5655894 3.7949344,101.844515 C3.81082196,106.816026 1.43600905,111.484653 0.553114279,116.338334 C-0.0347256811,119.568834 -0.810946787,123.195121 3.54602919,123.309174 C3.8486495,123.315972 4.15732222,123.320504 4.46750804,123.323526 C10.8906242,121.585536 13.4871065,113.06327 14.463057,106.222345 C16.8878023,89.2291745 18.0052278,69.5689723 34.8460483,60.1123766 C37.4062161,58.6742489 40.68889,57.5299404 42.8942355,55.5442064 C47.4668285,51.4284723 47.8239205,43.9379723 48.4480749,38.4717277 C48.562314,37.4709298 48.6742835,36.4716426 48.78474,35.4731106 C48.9080577,36.5705894 49.0328886,37.6650468 49.1577195,38.7549723 C49.7818739,44.2219723 49.9694985,51.4284723 54.5420914,55.5442064 C56.747437,57.5299404 60.0301108,58.6742489 62.5902787,60.1123766 C79.4310992,69.5689723 80.5485247,89.2291745 82.97327,106.222345 C83.9492205,113.06327 86.5457028,121.585536 92.9688189,123.323526 C93.2790048,123.320504 93.588434,123.315972 93.8902978,123.309174 C98.2472738,123.195121 97.4710527,119.568834 96.8832127,116.338334" id="Fill-57" fill="#897668" mask="url(#mask-4)"></path>
                </g>
                <path d="M126.945742,101.018347 C124.677602,98.8316979 122.478309,96.6956553 119.464211,95.7160064 C118.228764,95.3149319 116.609745,95.0105383 115.226013,95.2711234 C113.997375,95.5030064 113.028233,96.3255489 111.745123,96.3557617 C111.74361,96.3482085 111.740584,96.3414106 111.739071,96.3338574 C111.661903,96.3436766 111.587004,96.3482085 111.512106,96.3527404 C111.436451,96.3482085 111.362309,96.3436766 111.285897,96.3338574 C111.283627,96.3414106 111.280601,96.3482085 111.278331,96.3557617 C109.995221,96.3255489 109.02608,95.5030064 107.798198,95.2711234 C106.414466,95.0105383 104.796204,95.3149319 103.56,95.7160064 C100.545145,96.6956553 98.3466089,98.8316979 96.0784696,101.018347 C94.5184619,102.522187 84.5804108,115.09523 88.7490056,115.694198 C89.3035574,115.773506 92.3600225,115.099762 92.9977948,114.843709 C95.0419951,114.019655 94.050157,113.074751 94.7015472,111.218932 C96.5543401,105.944538 101.883484,108.113815 101.302453,113.351198 C101.062626,115.520474 100.287918,116.817357 98.9616847,118.448091 C97.9010005,119.750262 96.6769013,121.007113 97.3048385,122.911272 C98.1415836,125.4499 103.329252,127.995326 105.988528,127.589719 C107.063587,127.425815 115.959868,127.425815 117.034926,127.589719 C119.694959,127.995326 124.881871,125.4499 125.719373,122.911272 C126.34731,121.007113 125.123211,119.750262 124.062527,118.448091 C122.736293,116.817357 121.961585,115.520474 121.721759,113.351198 C121.139971,108.113815 126.469871,105.944538 128.322664,111.218932 C128.974811,113.074751 127.98146,114.019655 130.026416,114.843709 C130.663432,115.099762 133.720654,115.773506 134.275206,115.694198 C138.443044,115.09523 128.506506,102.522187 126.945742,101.018347" id="Fill-60" fill="#000000"></path>
                <path d="M165.447065,128.277362 C168.843978,127.897436 172.280988,127.732777 175.628726,127.09 C181.605477,125.941915 186.981527,123.379117 189.52959,117.531436 C193.928933,107.43433 195.968593,96.8024574 195.234739,85.7332553 C195.018366,82.4574362 193.548387,79.7586809 190.675008,78.2555957 C187.78347,76.7426915 184.724736,75.3430851 181.572945,74.568883 C171.09396,71.9924894 160.465178,72.1224043 149.834883,73.5824362 C144.952104,74.2531596 140.167677,75.3181596 135.682088,77.4851702 C132.184553,79.1755745 130.213738,81.9143617 129.799905,85.7355213 C129.631951,87.2748617 129.571427,88.8436596 129.656917,90.3890426 C130.115387,98.548 133.021298,105.997713 136.418968,113.299383 C139.094888,119.049628 143.456403,122.990128 149.315889,125.351255 C154.488427,127.434426 159.903061,128.037926 165.447065,128.277362 M57.3669764,128.174638 C60.0330614,127.954085 62.7188167,127.867979 65.3629617,127.490319 C75.5627794,126.033309 83.3756793,121.273287 87.3513537,111.334043 C87.9505419,109.835489 88.6533776,108.376213 89.2223038,106.86633 C91.7121124,100.256532 93.7411816,93.5553404 93.1132445,86.352617 C92.7690139,82.4060745 91.0561829,79.340234 87.3619454,77.6226383 C85.7308219,76.8650532 84.0709495,76.1074681 82.3482834,75.6180213 C70.3531707,72.2115319 58.1666506,71.8384043 45.8840486,73.5869681 C41.4317472,74.2214362 37.0906588,75.3189149 33.1270892,77.5576809 C29.8141534,79.4286064 27.8221551,82.1341596 27.5603886,86.0429362 C26.8840322,96.1551489 28.9879999,105.816436 32.2457076,115.286628 C34.1181708,120.731723 38.0476956,124.13217 43.3738131,126.054457 C47.8949606,127.686702 52.6044892,128.013755 57.3669764,128.174638 M57.8640303,62.2005319 C69.3567933,61.9724255 80.5953552,63.545 91.549454,67.0187128 C104.978987,71.2772021 118.369179,71.1707021 131.769207,66.8827553 C147.043967,61.9958404 162.702299,61.4104681 178.532367,62.8040319 C188.552126,63.687 198.366859,65.4846596 207.899399,68.8050426 C210.598016,69.7446596 211.797906,71.1593723 211.747973,74.0733936 C211.695015,77.1694468 212.094473,80.2790957 212.37818,83.3751489 C212.540838,85.1486383 211.997635,86.3986915 210.267403,87.0603511 C208.829957,87.6109787 208.121825,88.6155532 207.745063,90.2017234 C205.663035,98.957383 203.428941,107.676787 201.239483,116.406011 C201.134322,116.825968 200.943671,117.224021 200.815058,117.638691 C197.677642,127.792447 190.576656,133.714904 180.5168,136.2845 C169.11331,139.197766 157.712846,139.34883 146.482607,135.40984 C136.772277,132.004106 129.578992,125.734202 125.608614,116.14316 C123.351823,110.695798 121.394626,105.124564 119.304276,99.6084681 C118.95248,98.6794255 118.62338,97.7413191 118.253427,96.8198298 C116.324223,92.0318617 114.615174,91.0469255 109.494082,91.6919681 C107.565634,91.9351809 106.26361,93.028883 105.543374,94.7238191 C104.450158,97.2926596 103.488582,99.9181489 102.498257,102.529287 C100.978346,106.5355 99.5371172,110.572681 97.9657612,114.557745 C92.6101382,128.14367 82.0918126,135.150766 68.124372,137.551926 C59.2863458,139.071628 50.4967387,138.536862 41.8433108,136.152319 C32.260082,133.512479 25.1651488,127.969947 22.3053868,118.201404 C19.7096611,109.331691 17.5451693,100.33433 15.3617637,91.3505638 C14.8405002,89.2099894 14.2019713,87.6019149 12.0026782,86.6690957 C11.2461274,86.3473298 10.5145428,84.9144894 10.5342131,84.0058404 C10.6204599,80.0305957 10.9828478,76.0613936 11.2529364,72.0899255 C11.3565838,70.5649362 12.3295082,69.7114255 13.6776817,69.3518936 C20.3973657,67.5617872 27.0504733,65.3434149 33.8828835,64.1968404 C41.7782475,62.8720106 49.8355133,62.5079468 57.82242,61.7261915 C57.8360379,61.8840532 57.8504124,62.0426702 57.8640303,62.2005319" id="Fill-62" fill="#BA122B"></path>
            </g>
        </g>
    </g>
</svg>