<?xml version="1.0" encoding="UTF-8" standalone="no"?>
<svg width="256px" height="256px" viewBox="0 0 256 256" version="1.1" xmlns="http://www.w3.org/2000/svg" xmlns:xlink="http://www.w3.org/1999/xlink">
    <!-- Generator: Sketch 3.7 (28169) - http://www.bohemiancoding.com/sketch -->
    <title>256</title>
    <desc>Created with Sketch.</desc>
    <defs></defs>
    <g id="Page-1" stroke="none" stroke-width="1" fill="none" fill-rule="evenodd">
        <g id="256" fill="#FFFFFF">
            <path d="M128.024038,208.711994 C171.681977,208.687706 207.156422,172.457656 207.105108,127.947394 C207.05305,83.3984242 171.668962,47.2920893 128.03036,47.2583142 C84.4055153,47.2245391 48.9161962,83.4329583 48.9102467,127.981549 C48.9039254,172.519513 84.3954756,208.736281 128.024038,208.711994 M124.169155,30 L131.849918,30 C132.136608,30.043642 132.422183,30.1146076 132.71036,30.1275105 C138.42408,30.3813929 144.074215,31.1548046 149.632134,32.5096034 C170.997788,37.7185578 188.688531,48.9945059 202.561202,66.3621148 C214.542687,81.3624311 221.469355,98.5812778 223.49961,117.821317 C224.484991,127.158423 224.116868,136.462133 222.42945,145.699432 C219.068001,164.100407 211.250028,180.289303 198.820102,194.027417 C182.155271,212.44547 161.531813,222.983299 137.049753,225.513016 C126.721477,226.580157 116.478724,225.89365 106.388055,223.451597 C84.9852166,218.270725 67.271048,206.957966 53.4076725,189.543679 C40.8513207,173.771089 33.8554903,155.661187 32.2837152,135.386264 C32.1937295,134.225767 32.0948196,133.065649 32,131.904773 L32,124.065915 C32.0427618,123.774842 32.1122962,123.484907 32.1249388,123.191937 C32.4149754,116.625907 33.3423487,110.151714 34.9706436,103.795166 C40.3608615,82.7506254 51.3305646,65.3257127 67.9009479,51.6726052 C83.3182501,38.9705133 100.988541,31.8841949 120.756392,30.2899345 C121.894227,30.1980966 123.031691,30.0967713 124.169155,30" id="Fill-1"></path>
            <path d="M118.288044,126.488938 C124.01603,126.272341 129.65835,126.189563 135.279037,125.803978 C139.580544,125.508892 142.688341,123.224122 144.447969,119.267484 C145.691002,116.473175 145.816041,113.54848 145.326702,110.586041 C144.491668,105.532267 140.709354,101.717596 135.619108,101.377475 C129.964674,100.999611 124.280386,101.063089 118.609077,100.937849 C118.52168,100.935705 118.432985,100.982884 118.288044,101.022772 L118.288044,126.488938 Z M118.233961,141.20806 L118.233961,174.57635 L103,174.57635 L103,86.0651795 C103.327956,86.04931 103.652884,86.0197156 103.978244,86.0197156 C112.944692,86.0201445 121.912437,85.9553801 130.878019,86.058317 C134.871904,86.1046386 138.873144,86.3739902 142.850588,86.7492811 C148.160625,87.2498119 152.236716,90.0050901 155.506761,94.0599471 C158.552688,97.8355876 160.218429,102.184244 160.887321,106.927062 C161.70851,112.743856 161.646207,118.545638 159.839851,124.183151 C157.541994,131.354423 153.101171,136.729446 145.838106,139.4354 C142.46379,140.692517 138.864059,140.895818 135.303266,141.00433 C130.033034,141.165169 124.75761,141.1493 119.483916,141.207631 C119.113559,141.21192 118.743202,141.20806 118.233961,141.20806 L118.233961,141.20806 Z" id="Fill-4"></path>
        </g>
    </g>
</svg>