<?xml version="1.0" encoding="UTF-8" standalone="no"?>
<svg width="256px" height="256px" viewBox="0 0 256 256" version="1.1" xmlns="http://www.w3.org/2000/svg" xmlns:xlink="http://www.w3.org/1999/xlink">
    <!-- Generator: Sketch 3.7 (28169) - http://www.bohemiancoding.com/sketch -->
    <title>256</title>
    <desc>Created with Sketch.</desc>
    <defs>
        <path d="M136.692048,0.737787411 C126.186597,0.769865124 114.813265,4.02218886 103.42033,11.4143197 C105.252324,15.6485779 107.082536,19.8757077 108.65969,23.5218745 C115.342547,21.0394159 121.713538,17.9866868 128.432037,16.3043889 C153.333253,10.0634916 176.104865,31.956531 171.321722,57.09833 C168.926586,69.6852684 162.626879,80.2370541 154.406074,89.7249289 C142.929381,102.967678 130.051961,114.444371 112.868999,119.915404 C91.2183246,126.813894 69.3751838,114.173493 65.3797264,92.3624298 C64.7506468,88.9283323 64.9288563,85.346321 64.734608,81.7856948 C60.2490744,81.1976034 55.8900695,80.6237687 50.8057519,79.955483 C50.8057519,83.455518 50.844958,86.9626813 50.7968414,90.4680626 C50.6845694,98.7975755 51.0053466,107.168077 50.2657771,115.445909 C49.5083866,123.939375 47.3467051,132.217207 40.3965339,138.153366 C39.5536029,138.875114 37.9675381,138.741457 36.7218536,138.980258 C34.446118,139.418653 31.4040815,139.051542 30.0104831,140.391677 C19.8222449,150.18429 9.96191214,160.32263 4.54747351e-13,170.352262 L4.54747351e-13,174.77364 C2.84422393,180.130618 6.70246003,184.414775 12.5726816,186.567546 L16.2705291,186.567546 C26.3340207,176.639494 36.504438,166.814803 46.3309109,156.65686 C47.6746107,155.268608 47.3164095,152.237264 47.7298556,149.961529 C47.9401428,148.806731 47.6888674,147.145818 48.3749741,146.568419 C51.1568247,144.217836 53.9564962,141.607066 57.228423,140.165351 C68.8191701,135.064995 81.2065138,134.715704 93.5207916,135.845553 C103.748236,136.782935 113.49095,135.522993 122.763192,131.515061 C147.046021,121.016738 165.029143,103.434587 177.919038,80.7128735 C183.183347,71.4299396 186.387554,61.5749532 186.435671,51.2512757 L186.435671,50.7790205 C186.41785,46.876232 185.947377,42.9039418 184.965442,38.8710604 C179.640542,16.9887135 160.504404,0.798378647 136.987876,0.737787411 L136.692048,0.737787411 L136.692048,0.737787411 Z M61.6337623,118.209938 C64.0306804,120.56765 66.213747,122.718639 68.6552174,125.122686 C65.6167451,125.749983 62.9400381,126.298869 59.8338462,126.938641 C60.4771825,123.819974 61.02785,121.150396 61.6337623,118.209938 L61.6337623,118.209938 Z" id="path-1"></path>
        <path d="M0.551028262,27.556538 C23.272742,31.7890141 36.6705337,45.3311555 41.001025,67.8693134 C55.3272883,65.5418971 67.5560255,53.2276193 68.61459,40.1755541 C46.0461365,35.9020898 32.5610222,22.6076596 28.2554802,0.0570270462 C15.9483307,0.0588091414 1.68444081,14.1605284 0.551028262,27.556538 L0.551028262,27.556538 Z" id="path-3"></path>
        <path d="M32.7246141,32.5806252 C32.3432457,15.3192511 18.0971767,0.982295299 0.167516948,0.0573878928 C-0.898175978,15.5527056 19.1521771,34.1221375 32.7246141,32.5806252 L32.7246141,32.5806252 Z" id="path-5"></path>
        <path d="M32.6305239,32.641268 C32.8550679,17.5789994 15.8075452,0.558208182 0.146492653,0.210699619 C-0.691092089,16.8839823 16.5578073,34.1061502 32.6305239,32.641268 L32.6305239,32.641268 Z" id="path-7"></path>
    </defs>
    <g id="Page-1" stroke="none" stroke-width="1" fill="none" fill-rule="evenodd">
        <g id="256">
            <g id="Page-1" transform="translate(128.293266, 128.293266) rotate(-5.000000) translate(-128.293266, -128.293266) translate(34.793266, 34.793266)">
                <g id="Group-3" transform="translate(0.000000, 0.000000)">
                    <mask id="mask-2" fill="white">
                        <use xlink:href="#path-1"></use>
                    </mask>
                    <g id="Clip-2"></g>
                    <polygon id="Fill-1" fill="#FEFEFE" mask="url(#mask-2)" points="-8.91047597 195.478022 195.346147 195.478022 195.346147 -8.17268856 -8.91047597 -8.17268856"></polygon>
                </g>
                <g id="Group-6" transform="translate(29.496879, 1.782095)">
                    <mask id="mask-4" fill="white">
                        <use xlink:href="#path-3"></use>
                    </mask>
                    <g id="Clip-5"></g>
                    <polygon id="Fill-4" fill="#FEFEFE" mask="url(#mask-4)" points="-8.35944771 76.7797894 77.5232839 76.7797894 77.5232839 -8.85523102 -8.35944771 -8.85523102"></polygon>
                </g>
                <g id="Group-9" transform="translate(65.937522, 0.983356)">
                    <mask id="mask-6" fill="white">
                        <use xlink:href="#path-5"></use>
                    </mask>
                    <g id="Clip-8"></g>
                    <polygon id="Fill-7" fill="#FEFEFE" mask="url(#mask-6)" points="-8.78394722 41.5802059 41.63509 41.5802059 41.63509 -8.85308808 -8.78394722 -8.85308808"></polygon>
                </g>
                <g id="Group-12" transform="translate(29.496879, 37.188350)">
                    <mask id="mask-8" fill="white">
                        <use xlink:href="#path-7"></use>
                    </mask>
                    <g id="Clip-11"></g>
                    <polygon id="Fill-10" fill="#FEFEFE" mask="url(#mask-8)" points="-8.79249685 41.6390666 41.5427819 41.6390666 41.5427819 -8.69977636 -8.79249685 -8.69977636"></polygon>
                </g>
            </g>
        </g>
    </g>
</svg>