<?xml version="1.0" encoding="UTF-8" standalone="no"?>
<svg width="256px" height="256px" viewBox="0 0 256 256" version="1.1" xmlns="http://www.w3.org/2000/svg" xmlns:xlink="http://www.w3.org/1999/xlink">
    <!-- Generator: Sketch 3.7 (28169) - http://www.bohemiancoding.com/sketch -->
    <title>256</title>
    <desc>Created with Sketch.</desc>
    <defs></defs>
    <g id="Page-1" stroke="none" stroke-width="1" fill="none" fill-rule="evenodd">
        <g id="256" fill="#FEFEFE">
            <g id="Page-1" transform="translate(45.000000, 45.000000)">
                <polygon id="Fill-1" points="0 0.000638461538 0 165.581648 165.608942 165.581648 165.608942 157.375821 8.28483654 157.375821 8.28483654 0.000638461538"></polygon>
                <path d="M44.8700394,116.327852 C49.575501,106.925708 54.1979625,97.6895635 58.8188279,88.4534192 C61.3447413,83.4031885 63.8874144,78.3617365 66.3750202,73.2923519 C67.0916933,71.8334673 68.1403663,70.92765 69.6886356,70.4200731 C77.5385202,67.8454769 85.369251,65.2182077 93.2063663,62.6076981 C95.9756933,61.6859192 97.436174,62.202275 99.1608183,64.5151019 C105.458443,72.9579577 111.787193,81.3776692 118.10477,89.8053615 C118.240443,89.9857269 118.39128,90.1549192 118.670607,90.4917077 C119.372914,88.4230923 120.03452,86.4981308 120.67777,84.5675827 C127.399174,64.4201308 134.116587,44.2710827 140.838789,24.1228327 C141.587386,21.8794385 143.016741,20.7198327 144.987991,20.7349962 C146.827559,20.7477654 148.548212,21.95765 148.926501,23.7948231 C149.118039,24.7301692 149.024664,25.8307173 148.722991,26.7453135 C144.337559,40.0348904 139.895462,53.3061115 135.466136,66.5813231 C131.732732,77.7679673 127.984962,88.9482269 124.275501,100.14365 C123.694501,101.898621 122.724039,103.195496 120.842972,103.513929 C118.915616,103.84114 117.527761,102.963256 116.376934,101.421371 C109.115232,91.6896212 101.800857,81.9961788 94.5495298,72.25565 C93.9070779,71.3937269 93.389924,71.2851885 92.4162702,71.6187846 C86.5160875,73.6435058 80.5991452,75.6195442 74.6662413,77.5461019 C73.6989721,77.8597462 73.1459048,78.3761019 72.7053663,79.2603712 C65.0470202,94.6281404 57.3631356,109.982342 49.6840394,125.338938 C47.7279529,129.248717 44.3385202,129.571938 41.7240202,126.087535 C33.6897798,115.381333 25.6659144,104.668746 17.6292798,93.9649385 C16.5063856,92.4693423 16.1759817,90.8915442 17.091376,89.2076019 C17.9389337,87.6489577 19.3092317,86.9011596 21.0809625,87.0216692 C22.507126,87.1174385 23.5190875,87.911525 24.365049,89.0431981 C30.8885298,97.7773519 37.437549,106.49315 43.9793856,115.213737 C44.2243952,115.54015 44.4885587,115.852198 44.8700394,116.327852" id="Fill-2"></path>
            </g>
        </g>
    </g>
</svg>