<?xml version="1.0" encoding="UTF-8" standalone="no"?>
<svg width="256px" height="256px" viewBox="0 0 256 256" version="1.1" xmlns="http://www.w3.org/2000/svg" xmlns:xlink="http://www.w3.org/1999/xlink">
    <!-- Generator: Sketch 3.7 (28169) - http://www.bohemiancoding.com/sketch -->
    <title>256</title>
    <desc>Created with Sketch.</desc>
    <defs>
        <polygon id="path-1" points="0 193.674288 128.972126 193.674288 128.972126 0.648829431 0 0.648829431"></polygon>
    </defs>
    <g id="Page-1" stroke="none" stroke-width="1" fill="none" fill-rule="evenodd">
        <g id="256">
            <g id="Page-1" transform="translate(64.000000, 27.000000)">
                <g id="Group-3" transform="translate(0.000000, 0.323117)" fill="#FEFEFE">
                    <path d="M64.4863869,11.5069251 C54.7679548,11.5069251 45.0488744,11.5302829 35.329794,11.4835672 C33.7973518,11.4757813 33.193191,11.9442361 33.2087487,13.5474936 C33.2735729,20.1590656 33.2742211,26.7719351 33.2087487,33.3841559 C33.193191,34.9971458 33.8187437,35.4402963 35.3408141,35.437701 C54.7776784,35.403313 74.2158392,35.4169385 93.6533518,35.4123967 C95.6045578,35.4117478 95.7452261,35.2586241 95.7471709,33.2083231 C95.753005,26.7051057 95.753005,20.2018883 95.7471709,13.6986709 C95.7452261,11.625012 95.6214121,11.5088716 93.4796231,11.5082227 C83.814995,11.5056274 74.1503668,11.5069251 64.4863869,11.5069251 M107.063518,26.5201893 C107.063518,29.2608448 107.109543,31.8185304 107.053794,34.3736207 C106.904698,41.2518615 101.511332,46.5781023 94.6568291,46.5839418 C74.4965276,46.6014602 54.3375226,46.6008114 34.1778693,46.5813465 C28.7021759,46.575507 23.958995,43.0491191 22.5309196,37.7507779 C22.0285327,35.8879886 22.0389045,33.8727244 21.9364824,31.9203967 C21.8444322,30.146497 21.9170352,28.3635137 21.9170352,26.517594 C19.0829246,26.517594 16.5184824,26.517594 13.953392,26.5182428 C11.3429246,26.5188916 11.3422764,26.5195405 11.3422764,29.1219953 C11.3416281,79.2109786 11.3416281,129.299962 11.3422764,179.389594 C11.3422764,182.088724 11.3429246,182.090022 14.0934121,182.090022 L114.89103,182.090022 C117.648,182.090022 117.649296,182.088724 117.649296,179.394136 L117.649296,29.1258883 C117.649296,28.7430789 117.628553,28.3596207 117.651241,27.978109 C117.713472,26.9302495 117.229236,26.5007244 116.188809,26.5104569 C113.240608,26.5377077 110.293055,26.5201893 107.063518,26.5201893 M21.784794,15.1773532 C21.913794,13.5526843 21.9228693,12.1304502 22.1549397,10.7458482 C23.2063869,4.47231639 28.1317236,0.334731104 34.5143065,0.332135786 C54.5118995,0.323701003 74.5088442,0.324998662 94.5064372,0.331486957 C101.55606,0.333433445 106.947482,5.66681137 107.064166,12.7228314 C107.075834,13.4748247 107.065462,14.2268181 107.065462,15.1786508 C110.263884,15.1786508 113.306729,15.1468582 116.347628,15.185788 C122.343859,15.261701 127.172608,19.0002562 128.546231,24.6846508 C128.83794,25.8921224 128.931286,27.1735605 128.931935,28.4206107 C128.950085,79.0072462 128.922211,129.593233 128.972126,180.177273 C128.979905,188.833955 122.122161,193.379654 115.778472,193.350457 C81.5759698,193.198631 47.3728191,193.199928 13.1696683,193.349159 C6.79356784,193.377059 -0.00907537688,188.765828 4.08830108e-15,180.149373 C0.0538040201,129.619835 0.0213919598,79.0883498 0.0311155779,28.5568649 C0.0330603015,20.3569585 5.25529146,15.1948716 13.488603,15.178002 C16.2151055,15.1728114 18.941608,15.1773532 21.784794,15.1773532" id="Fill-1"></path>
                </g>
                <mask id="mask-2" fill="white">
                    <use xlink:href="#path-1"></use>
                </mask>
                <g id="Clip-5"></g>
                <polygon id="Fill-4" fill="#FEFEFE" mask="url(#mask-2)" points="30.2177638 91.7568094 98.7167638 91.7568094 98.7167638 83.7982676 30.2177638 83.7982676"></polygon>
                <polygon id="Fill-6" fill="#FEFEFE" mask="url(#mask-2)" points="30.2689749 150.081385 98.7776985 150.081385 98.7776985 142.237037 30.2689749 142.237037"></polygon>
                <polygon id="Fill-7" fill="#FEFEFE" mask="url(#mask-2)" points="30.2086884 72.3120401 98.7537136 72.3120401 98.7537136 64.4365485 30.2086884 64.4365485"></polygon>
                <polygon id="Fill-8" fill="#FEFEFE" mask="url(#mask-2)" points="30.2320251 111.127612 98.7796432 111.127612 98.7796432 103.255365 30.2320251 103.255365"></polygon>
                <polygon id="Fill-9" fill="#FEFEFE" mask="url(#mask-2)" points="30.2462864 130.604174 98.7705678 130.604174 98.7705678 122.757231 30.2462864 122.757231"></polygon>
            </g>
        </g>
    </g>
</svg>