<?xml version="1.0" encoding="UTF-8" standalone="no"?>
<svg width="256px" height="256px" viewBox="0 0 256 256" version="1.1" xmlns="http://www.w3.org/2000/svg" xmlns:xlink="http://www.w3.org/1999/xlink">
    <!-- Generator: Sketch 3.7 (28169) - http://www.bohemiancoding.com/sketch -->
    <title>256</title>
    <desc>Created with Sketch.</desc>
    <defs>
        <polygon id="path-1" points="0 162 176 162 176 0 0 0"></polygon>
    </defs>
    <g id="Page-1" stroke="none" stroke-width="1" fill="none" fill-rule="evenodd">
        <g id="256">
            <g id="Page-1" transform="translate(40.000000, 47.000000)">
                <path d="M176,25.5326087 L176,36.9782609 C175.39984,38.4089674 174.74336,39.817663 174.21096,41.2721413 C168.73472,56.2448152 152.11768,64.8167283 138.19256,59.8343478 C130.62192,57.12525 126.84584,50.679587 128.38408,42.9044674 C129.8836,35.3195217 135.04392,31.6076087 142.25552,30.3028043 L142.25552,22.3665652 C131.186,22.4273152 121.34584,30.5898261 120.07336,41.8822826 C119.51544,46.83825 120.58464,52.5056087 122.60248,57.1085217 C126.20608,65.3291413 134.25016,68.0496848 142.3224,69.6371087 L142.3224,81.4675109 L33.43032,81.4675109 L33.43032,69.8299239 C51.58648,62.5971522 57.8468,54.3906196 55.24464,41.3830761 C53.02528,30.294 43.55472,22.0953913 32.912,22.3551196 L32.912,30.1857065 C33.47256,30.3697174 34.00408,30.5863043 34.55672,30.7183696 C42.32624,32.5575978 47.40032,38.6563696 47.20672,45.9393261 C47.00344,53.5762174 42.02528,59.1115109 33.98296,60.6417065 C20.59288,63.1914457 6.7232,54.8484457 1.78112,41.2906304 C1.2496,39.8308696 0.59664,38.4151304 0,36.9782609 L0,24.6521739 C0.51392,23.5067283 1.11144,22.3912174 1.52944,21.2114348 C5.16296,10.9429239 12.276,4.39513043 22.6776,1.36555435 C24.48424,0.839054348 26.33136,0.452543478 28.16,0 L147.84,0 C153.62688,2.50659783 159.83704,4.34670652 165.09064,7.69147826 C171.32368,11.6622391 173.86072,18.6520109 176,25.5326087 L176,25.5326087 Z" id="Fill-1" fill="#FEFEFE"></path>
                <path d="M56.32,162 C56.08328,160.880087 55.6424,159.759293 55.64064,158.6385 C55.60016,136.813402 55.60808,114.988304 55.62304,93.1623261 C55.62392,92.3232717 55.79024,91.4842174 55.90728,90.381913 L83.6,90.381913 L83.6,162 L56.32,162 Z" id="Fill-3" fill="#FEFEFE"></path>
                <path d="M92.4,162 L92.4,90.4743587 L120.0804,90.4743587 C120.1904,91.6338913 120.36376,92.617337 120.36464,93.6007826 C120.38136,115.131815 120.39016,136.661967 120.3488,158.191239 C120.34528,159.461707 119.91232,160.731293 119.68,162 L92.4,162 Z" id="Fill-5" fill="#FEFEFE"></path>
                <mask id="mask-2" fill="white">
                    <use xlink:href="#path-1"></use>
                </mask>
                <g id="Clip-8"></g>
                <polygon id="Fill-7" fill="#FEFEFE" mask="url(#mask-2)" points="33.44 162 47.52 162 47.52 90.483163 33.44 90.483163"></polygon>
                <polygon id="Fill-9" fill="#FEFEFE" mask="url(#mask-2)" points="128.48 162 142.56 162 142.56 90.483163 128.48 90.483163"></polygon>
            </g>
        </g>
    </g>
</svg>