<?xml version="1.0" encoding="UTF-8" standalone="no"?>
<svg width="256px" height="256px" viewBox="0 0 256 256" version="1.1" xmlns="http://www.w3.org/2000/svg" xmlns:xlink="http://www.w3.org/1999/xlink">
    <!-- Generator: Sketch 3.7 (28169) - http://www.bohemiancoding.com/sketch -->
    <title>256</title>
    <desc>Created with Sketch.</desc>
    <defs>
        <polygon id="path-1" points="210.776557 218.26593 0 218.26593 0 0 210.776557 0"></polygon>
    </defs>
    <g id="Page-1" stroke="none" stroke-width="1" fill="none" fill-rule="evenodd">
        <g id="256">
            <g id="Page-1" transform="translate(23.000000, 19.000000)">
                <mask id="mask-2" fill="white">
                    <use xlink:href="#path-1"></use>
                </mask>
                <g id="Clip-2"></g>
                <path d="M109.63301,25.8450523 C110.03292,21.9587561 109.668812,17.7756272 110.996512,14.2273693 C113.691523,7.02783972 118.168988,1.32620906 126.703443,0.173216028 C133.053248,-0.685233449 138.287877,1.77489199 143.555259,4.64096864 C146.775104,6.39144251 149.748909,8.33268293 153.951389,7.8298223 C158.788393,7.25065505 163.767079,7.80464111 168.683303,7.94733449 C173.43423,8.08544948 178.182873,8.45019512 182.933039,8.44561672 C184.450411,8.44409059 185.992158,7.64744948 187.479822,7.09956794 C192.747205,5.15832753 197.92775,5.34756794 202.038061,9.27812195 C206.207786,13.266669 209.809259,17.8816934 210.366086,24.0625296 C210.466635,25.1750801 210.756093,26.2784739 210.775898,27.3894983 C210.818555,29.8511498 208.784729,31.455878 206.347183,31.0033798 C205.746176,30.8919721 205.129173,30.8149024 204.518263,30.8110871 C202.660396,30.8011672 202.236873,31.6817456 202.60936,33.5710976 C204.56092,43.4924843 205.883288,53.4749164 204.994346,63.6282753 C204.786393,66.0082787 204.970732,68.5088467 204.281364,70.7392892 C203.422891,73.5199024 201.787451,76.0517561 200.60905,78.7438537 C200.157342,79.77323 199.474068,81.2283972 199.86179,82.0120662 C202.406739,87.1696307 201.712039,92.6888885 202.066245,98.1013171 C202.258201,101.049805 202.874443,103.970059 203.055736,106.917784 C203.246169,110.027279 203.412227,113.181031 203.10601,116.267634 C202.673346,120.634662 201.839248,124.9643 201.096559,129.29699 C200.298263,133.950167 199.340765,138.575111 198.575985,143.233631 C197.798256,147.972272 197.287133,152.755171 196.449227,157.483129 C195.500108,162.840617 194.328562,168.121798 192.134772,173.192373 C190.572458,176.802439 188.347436,179.82647 186.13384,182.99701 C181.040895,190.290397 182.825635,197.83407 190.172548,202.942798 C192.28788,204.41399 194.151079,206.320129 195.882497,208.249923 C197.443288,209.99124 196.527685,214.272042 193.935508,215.534916 C190.422396,217.247237 186.622873,216.99924 182.838584,216.827551 C180.417035,216.717669 177.978729,216.796265 175.555656,216.936669 C170.845862,217.209847 166.326501,216.261355 161.976245,214.655101 C160.205216,214.001153 159.160118,212.274334 159.026053,210.238474 C158.783822,206.577282 159.291898,203.09007 160.294339,199.489923 C161.193945,196.257575 160.559422,192.623854 160.865638,189.190819 C161.542057,181.579233 162.42262,173.984436 163.148552,166.375902 C163.680241,160.797889 164.162418,155.212244 164.537191,149.621258 C164.670494,147.62584 162.916223,146.758233 160.723956,147.702909 C157.842321,148.944418 155.111508,150.607902 152.148368,151.579286 C146.423183,153.455666 140.650772,155.312969 134.7641,156.536164 C130.115245,157.502206 125.268339,157.829561 120.506747,157.849401 C115.660602,157.870767 110.808364,157.210714 105.96679,156.764321 C104.169862,156.598735 102.900053,157.251157 102.4194,158.912352 C101.454284,162.246188 101.284418,165.514401 102.168028,169.049686 C103.127812,172.893251 103.217696,176.97947 103.45688,180.973359 C103.616844,183.644091 103.359378,186.338477 103.31596,189.022944 C103.253497,192.930606 104.05027,196.627662 106.089429,200.006519 C108.139252,203.405216 108.835476,207.270909 109.278804,211.070216 C109.719848,214.855024 107.401895,217.040446 103.127812,217.824878 C99.8797827,218.420833 96.4527466,218.035484 93.1064542,218.09653 C90.6323458,218.141551 88.1490968,218.364366 85.6879379,218.215568 C82.7941148,218.0393 79.9261906,217.447923 77.0323675,217.229686 C75.1303206,217.08623 74.3464975,215.658533 74.2733711,214.376582 C74.0699884,210.8123 74.0060029,207.186209 74.4455227,203.654739 C74.9452195,199.640247 76.7680462,195.686801 76.6865408,191.734882 C76.6057971,187.837902 74.7220318,184.005784 73.8787935,180.090491 C72.6470715,174.366732 72.5823242,168.613213 73.0370787,162.731498 C73.3341545,158.890223 74.7159379,155.13899 73.7203531,151.038272 C73.0721184,148.370592 71.1213206,147.266436 69.557483,146.119547 C67.2082989,144.396544 66.1548224,142.130237 65.3131076,139.728105 C64.4226419,137.187094 64.4249271,134.316439 63.4361978,131.830369 C62.7673964,130.149334 61.2789704,128.569787 59.766169,127.501495 C56.6110715,125.273341 50.9917682,126.75369 48.6075444,129.838767 C46.4746924,132.598777 43.7652087,134.928418 41.7664217,137.770077 C39.5581581,140.909331 37.6020282,144.292767 36.0145769,147.788373 C33.5084758,153.303815 33.6829126,159.410634 32.7490282,165.279376 C32.0383314,169.748655 30.9056347,174.154599 29.8681545,178.568174 C28.6783278,183.625777 28.7903025,188.530003 30.7098693,193.448728 C32.1129812,197.047348 33.1199921,200.803923 34.2465949,204.50861 C34.8719776,206.565836 33.7568007,208.194983 31.8258079,209.241146 C28.0575155,211.283875 24.1475408,210.995436 20.1278765,210.598641 C16.6185733,210.252972 13.0536635,210.394902 9.56645054,209.928669 C7.01693069,209.588341 4.47731336,208.805436 2.07252274,207.861523 C-0.115174007,207.003836 -0.709325632,202.777213 0.96039278,200.639101 C3.09248303,197.909613 5.59782238,195.446436 7.5227213,192.5857 C10.9840354,187.440345 13.0110065,182.022575 12.4701762,175.390767 C11.9491509,169.006192 13.2067718,162.492659 13.4010137,156.027199 C13.5206058,152.065359 13.1686852,148.083679 12.9173134,144.118787 C12.6705119,140.216467 12.1251112,136.327118 11.9971401,132.423272 C11.84327,127.712101 11.6589307,122.960488 12.0931184,118.281366 C12.5890065,112.936087 13.7369379,107.650328 14.6258801,102.343202 C15.1347177,99.3069617 15.475974,96.221885 16.27427,93.2627143 C17.5707394,88.4546341 18.8215047,83.5786411 20.750974,79.0109268 C23.0514072,73.5672125 25.8256383,68.2883206 28.8062989,63.1795923 C31.5203531,58.5294669 34.9786202,54.4440105 39.2862195,51.0163171 C44.3563134,46.9835122 49.8659271,44.0548641 56.1608874,42.7179721 C60.2910029,41.840446 64.4843422,40.7881777 68.6601617,40.7393415 C72.9182484,40.6889791 77.1938549,41.7435366 81.4549884,42.3616202 C87.80327,43.2826411 94.1911617,44.711101 100.483075,42.4104564 C102.70962,41.5977909 104.70079,40.0670801 106.699577,38.7149268 C110.166223,36.3692613 113.613826,33.9846794 116.953263,31.4627456 C118.779898,30.083885 118.680111,29.4917456 116.669136,28.5875122 C114.527905,27.6245226 112.292219,26.8698502 109.63301,25.8450523" id="Fill-1" fill="#FEFEFE" mask="url(#mask-2)"></path>
            </g>
        </g>
    </g>
</svg>