<?xml version="1.0" encoding="UTF-8" standalone="no"?>
<svg width="256px" height="256px" viewBox="0 0 256 256" version="1.1" xmlns="http://www.w3.org/2000/svg" xmlns:xlink="http://www.w3.org/1999/xlink">
    <!-- Generator: Sketch 3.7 (28169) - http://www.bohemiancoding.com/sketch -->
    <title>256</title>
    <desc>Created with Sketch.</desc>
    <defs></defs>
    <g id="Page-1" stroke="none" stroke-width="1" fill="none" fill-rule="evenodd">
        <g id="256" fill="#FFFFFF">
            <path d="M45.0003296,128.553371 C45.0003296,105.310456 44.999414,82.0672351 45.0006349,58.8246248 C45.0009401,50.8462419 49.8450454,46.0009157 57.8212918,46.0009157 C104.307428,45.9996948 150.793564,45.9996948 197.279395,46.0009157 C204.857638,46.0012209 209.994447,51.132841 209.995363,58.7504569 C210.002078,105.287259 210.001772,151.824062 209.995668,198.360864 C209.995058,205.996793 205.018183,210.993812 197.40545,210.995033 C150.817677,211.001748 104.229903,211.001137 57.6421292,210.995949 C49.9140246,210.995033 45.0006349,206.038303 45.0003296,198.282423 C44.9997192,175.039202 45.0003296,151.796287 45.0003296,128.553371 Z M112.83485,104.636348 C109.323018,104.818257 106.590712,107.396124 106.566905,110.847522 C106.469541,125.136275 106.387437,139.425638 106.36363,153.715001 C106.355389,158.769706 111.212314,161.548711 115.598288,159.051727 C127.826518,152.090328 140.048644,145.118553 152.249709,138.109845 C156.938154,135.416302 156.969286,129.565589 152.319909,126.860753 C140.201557,119.810231 128.066114,112.788705 115.915409,105.793732 C114.977171,105.253803 113.865569,105.015123 112.83485,104.636348 Z" id="Combined-Shape"></path>
        </g>
    </g>
</svg>