<?xml version="1.0" encoding="UTF-8" standalone="no"?>
<svg width="256px" height="256px" viewBox="0 0 256 256" version="1.1" xmlns="http://www.w3.org/2000/svg" xmlns:xlink="http://www.w3.org/1999/xlink">
    <!-- Generator: Sketch 3.7 (28169) - http://www.bohemiancoding.com/sketch -->
    <title>256</title>
    <desc>Created with Sketch.</desc>
    <defs>
        <polygon id="path-1" points="0 0.0989383954 0 184.407509 168.649367 184.407509 168.649367 0.0989383954 2.17359413e-20 0.0989383954"></polygon>
        <polygon id="path-3" points="151.809268 88.9175883 151.809268 0.0794965809 0.0221555553 0.0794965809 0.0221555553 88.9175883 151.809268 88.9175883"></polygon>
        <polygon id="path-5" points="-3.61806749e-13 87.1720499 -3.61806749e-13 184.407669 168.649476 184.407669 168.649476 0.098804109 -3.61806749e-13 0.098804109 -3.61806749e-13 87.1720499 -4.0859674e-05 0.0987783888 83.6824044 0.0987783888 83.6824044 87.1720499 -3.61039744e-13 87.1720499"></polygon>
    </defs>
    <g id="Page-1" stroke="none" stroke-width="1" fill="none" fill-rule="evenodd">
        <g id="256">
            <g id="Page-1-Copy-7" transform="translate(39.000000, 35.000000)">
                <g id="Group-3" transform="translate(0.000000, 0.301213)">
                    <mask id="mask-2" fill="white">
                        <use xlink:href="#path-1"></use>
                    </mask>
                    <g id="Clip-2"></g>
                    <path d="M60.62443,155.013887 C59.0903672,154.359459 57.8109123,153.605828 58.3341616,151.275331 C58.6080155,150.05608 58.0835633,148.882432 59.6344663,147.985994 C61.2932268,147.027154 61.8589777,148.512416 62.9299347,148.861231 C63.4700243,149.037238 64.1159666,148.891632 64.713794,148.891632 C64.7033691,148.726025 64.6929442,148.560018 64.6829202,148.394011 C63.8942371,147.792386 63.105554,147.191561 62.3946567,146.648739 C62.6969785,145.443489 65.5076895,145.638297 64.0433933,143.453006 C63.1091627,143.954227 62.3657877,144.353043 61.4937055,144.820263 C61.3216948,143.630613 61.1745435,142.615371 61.0277931,141.600129 C60.8208991,141.565727 60.6144061,141.532126 60.4075121,141.497725 C60.2170573,142.134951 59.7703908,142.82178 59.881456,143.401404 C60.323712,145.695499 59.2888411,146.866348 57.4035396,147.371969 C56.1529537,146.585136 55.0431037,145.886707 53.8614824,145.143076 C53.4392743,143.198195 53.6457674,141.496925 56.0282559,140.67609 C56.4857483,140.518484 56.694647,139.641647 57.0178187,139.096825 C56.864252,139.005621 56.7106853,138.915217 56.5567177,138.824013 C55.7010747,139.248831 54.8454318,139.673249 53.7704651,140.206871 C53.7704651,139.274832 53.8642891,138.660007 53.7391904,138.093183 C53.649376,137.683966 53.2688675,137.337952 53.0178682,136.963936 C52.7440143,137.31155 52.3161928,137.625964 52.2315908,138.01478 C52.098473,138.626405 52.1963066,139.288033 52.1963066,140.163269 C51.064003,139.634847 50.1835007,139.22363 49.3025974,138.812813 C49.1702815,138.907617 49.0379656,139.003221 48.9056496,139.098025 C49.2155897,139.629247 49.4120588,140.483282 49.8543147,140.638089 C52.2901306,141.490524 52.5451395,143.224596 52.0904538,145.151476 C50.7933568,145.96151 49.6305805,146.68834 48.4742195,147.41037 C46.1378411,146.074315 46.175932,146.073115 46.1013539,143.3014 C46.0853157,142.702175 45.6847593,142.11335 45.461426,141.519725 L44.9233413,141.687332 C44.7697746,142.687774 44.6166089,143.687816 44.4381829,144.852264 C43.5091647,144.331442 42.7702003,143.916625 41.9666818,143.466206 C40.3227567,145.679898 43.3523904,145.421888 43.5412413,146.66914 C42.764186,147.271565 41.9602665,147.893991 41.1555451,148.517616 C42.2730132,149.945276 43.083749,148.957635 43.750541,148.35481 C44.7906244,147.414371 45.5813123,147.64478 46.7340646,148.262006 C48.5303535,149.224046 47.1618861,150.662506 47.5744712,151.776952 C48.1189713,153.249013 47.2994145,153.860639 46.2176316,154.60947 C45.0047356,155.449505 44.4028986,154.578269 43.6186261,154.061047 C42.8191171,153.534625 42.0268254,152.626587 41.2044619,154.110249 C42.0368493,154.750676 42.8499908,155.377102 43.5504633,155.915924 C43.1045987,157.155576 40.3087232,156.889965 41.9807153,159.072055 C42.8211219,158.618437 43.6078002,158.193619 44.4895054,157.717999 C44.6538979,158.957651 44.7894215,159.978893 44.9249451,160.999736 C45.1458726,161.025737 45.367201,161.052538 45.5881285,161.078939 C45.7677574,160.420912 46.1995885,159.713282 46.0813061,159.113657 C45.6434607,156.899565 46.6767277,155.762718 48.5223344,155.183894 C49.7528725,155.945925 50.9192574,156.668755 52.0728117,157.382785 C52.6165099,159.468472 52.1963066,161.083339 49.8916037,161.908573 C49.438121,162.07138 49.2228069,162.896614 48.8976305,163.415836 L49.3001917,163.729849 C50.1851045,163.327432 51.0696164,162.925416 52.0948644,162.459396 C52.1694424,163.574643 52.2331946,164.532683 52.3037631,165.587526 C54.9151983,165.612727 53.0563601,163.325832 54.1160903,162.5538 C54.937251,162.936216 55.8065265,163.340633 56.676203,163.74545 C56.8185429,163.613444 56.9612837,163.481039 57.1036235,163.349033 C56.7427619,162.840612 56.4825406,162.036579 56.0037975,161.873372 C53.5992563,161.055338 53.4765634,159.311265 53.8498547,157.427987 C55.1056531,156.633154 56.2664246,155.897923 57.3895061,155.186294 C59.4343886,155.769918 60.3088766,157.01797 59.8822579,159.19166 C59.7711928,159.760084 60.2395109,160.440912 60.4415934,161.070539 C60.6408692,161.031337 60.840145,160.992535 61.0390199,160.953734 C61.1769492,159.926891 61.3152795,158.899648 61.4736576,157.721999 C62.3846327,158.20882 63.1841417,158.637237 64.018133,159.083256 C65.6295805,156.823162 62.7611317,157.169576 62.4114969,155.927925 C63.1231962,155.369501 63.9387434,154.729475 64.9311128,153.950642 C62.8673854,152.475381 62.12802,154.922683 60.62443,155.013887 M143.350351,156.693557 C145.126191,154.459464 141.982685,154.768676 141.819495,153.491823 C142.560866,152.916199 143.338723,152.311774 144.139034,151.690148 C143.273367,150.229688 142.47466,151.134925 141.705624,151.687748 C140.844367,152.306574 140.218072,152.806595 138.917767,152.124967 C137.095416,151.170127 138.011203,149.79407 137.743764,148.562818 C137.419791,147.073556 137.881693,146.313525 139.146714,145.530292 C140.505558,144.689057 141.103386,145.7183 141.910513,146.253922 C142.738891,146.803945 143.468633,147.331567 144.127406,146.076715 C143.296622,145.411487 142.502326,144.775861 141.975067,144.354643 C142.079316,142.932984 145.043193,143.268998 143.389243,141.097308 C142.506335,141.547727 141.724068,141.945743 140.854391,142.388562 C140.684786,141.175711 140.550065,140.208471 140.414942,139.241231 C140.220478,139.196829 140.026414,139.152427 139.831549,139.107625 C139.625858,139.723651 139.147917,140.395279 139.261789,140.945302 C139.736522,143.244997 138.687618,144.429046 136.787481,144.973469 C135.527673,144.183436 134.367302,143.455006 133.251839,142.754977 C132.88777,140.756094 133.016076,139.062023 135.359271,138.300792 C135.835608,138.145585 136.077385,137.274349 136.427421,136.733526 C136.281473,136.627522 136.135524,136.521518 135.989175,136.415113 C135.113484,136.832331 134.236991,137.249148 133.147991,137.767569 C133.147991,136.853531 133.25224,136.173503 133.109098,135.550677 C133.022892,135.176262 132.550965,134.88985 132.252252,134.563836 C132.027716,134.89305 131.666454,135.200263 131.607112,135.556677 C131.500858,136.193104 131.57704,136.859932 131.57704,137.713167 C130.463181,137.232747 129.539776,136.834731 128.616772,136.436714 C128.487263,136.56992 128.357754,136.703525 128.228244,136.836731 C128.600734,137.342752 128.875389,138.144785 129.362152,138.305192 C131.817214,139.113625 131.82844,140.8977 131.474796,142.745776 C130.213785,143.54341 129.055419,144.27624 127.930734,144.98787 C125.951208,144.341843 124.992919,143.137393 125.461238,140.945302 C125.577515,140.400079 125.093159,139.726851 124.88426,139.112825 L124.3145,139.248831 C124.162938,140.254873 124.011777,141.261315 123.831346,142.464165 C122.92839,141.952143 122.193435,141.535326 121.372275,141.069707 C121.14413,141.446522 120.700671,141.939743 120.789684,142.070148 C121.355033,142.895383 122.038265,143.639814 122.701448,144.433447 C122.173788,144.843864 121.363053,145.47629 120.54951,146.110316 C121.581574,147.543176 122.370658,146.572336 123.094386,145.994712 C124.006965,145.267081 124.691801,145.129876 125.901489,145.7099 C127.768747,146.605937 126.683356,147.968394 126.944379,149.122842 C127.263541,150.5333 126.958011,151.373735 125.651692,152.19737 C124.207043,153.107807 123.648109,151.878556 122.701849,151.49294 C122.093597,151.24533 121.392723,151.223729 120.733951,151.100924 C120.685034,151.302532 120.636518,151.503741 120.588403,151.705349 C121.407559,152.338175 122.227116,152.971402 122.825745,153.433421 C122.62687,154.752276 119.828188,154.557868 121.319749,156.701557 C122.282448,156.175135 123.025021,155.769518 123.873848,155.305499 C124.028617,156.511549 124.160131,157.537192 124.292046,158.562434 C124.506558,158.594036 124.72107,158.625237 124.935583,158.656438 C125.124033,157.957209 125.580723,157.203978 125.451615,156.569951 C124.98049,154.257055 126.259544,153.340217 127.915097,152.780594 C129.195353,153.582227 130.309614,154.279456 131.455951,154.996686 C131.940708,156.975168 131.671265,158.653638 129.321254,159.487673 C128.868172,159.648479 128.662882,160.503715 128.343319,161.038937 C128.500093,161.129341 128.656467,161.219745 128.813241,161.310148 C129.666077,160.894131 130.518914,160.478114 131.493641,160.003294 C131.560601,161.215745 131.61072,162.129783 131.672468,163.238629 C134.149983,163.138625 132.548961,161.007736 133.453119,160.1509 C134.285507,160.530516 135.168816,160.932933 136.051323,161.33575 C136.186847,161.223345 136.32237,161.11134 136.457894,160.999736 C136.121491,160.482114 135.894148,159.66488 135.431042,159.498473 C133.116315,158.664838 132.74142,157.031171 133.26467,154.990686 C134.445489,154.254655 135.61027,153.528225 136.805925,152.782594 C138.688019,153.378219 139.736121,154.507466 139.268605,156.739158 C139.151926,157.296382 139.675977,157.98761 139.905325,158.617237 C140.081345,158.559234 140.257366,158.502032 140.433386,158.444029 C140.579334,157.441188 140.724882,156.439146 140.892883,155.280298 C141.837539,155.82352 142.577305,156.249538 143.350351,156.693557 M108.339958,169.52529 C110.044829,168.33044 111.469831,167.331599 112.982643,166.271555 C110.914505,164.920699 110.760538,164.743091 109.123429,166.16115 C106.812711,168.162033 104.687237,168.196035 102.515652,166.197552 C102.048536,165.767534 101.720553,164.991502 101.668028,164.347475 C101.545736,162.845012 101.60187,161.324149 101.646777,159.813286 C101.662414,159.291665 101.680858,158.574835 102.002827,158.288823 C104.602635,155.978327 105.860438,155.921924 108.73049,157.812003 C108.953824,157.958809 109.200412,158.080414 109.392872,158.259622 C110.65268,159.43247 111.732057,159.079256 112.907263,157.770801 C111.395654,156.748759 109.942985,155.766718 108.322316,154.671472 C109.940981,153.681031 111.324685,152.833796 112.779358,151.943359 C112.270944,151.122525 111.865576,150.468898 111.44016,149.781269 C109.896875,150.632104 108.527606,151.386936 106.888091,152.290973 C106.816721,151.098124 106.764998,150.254489 106.716081,149.409654 C106.66556,148.528017 106.617846,147.64718 106.562915,146.655539 C104.275453,147.678382 103.990774,147.745584 104.394538,149.450455 C105.207278,152.884198 103.840014,154.831079 100.724976,155.924325 C100.48801,156.007128 100.274701,156.158334 100.377346,156.103932 C98.1608539,154.823479 96.1769169,153.678631 93.9556132,152.395778 C94.0682822,152.644988 94.0269836,152.588186 94.0165587,152.525383 C93.4528127,149.201245 94.0041291,146.529534 97.8577301,145.597895 C99.5068677,145.198678 99.4964428,143.968227 99.0309313,142.474965 C97.360142,143.255398 95.7731529,143.997028 93.8870495,144.877065 L93.8870495,139.730051 L91.3108986,139.730051 L91.3108986,144.843064 C89.445645,143.954627 87.9071717,143.221396 86.3201825,142.464565 C85.7099254,144.125034 86.0355028,145.151076 87.6365254,145.733101 C88.6325035,146.095116 89.5879848,146.606737 90.4913417,147.16516 C90.8782656,147.40357 91.3076909,147.915191 91.335357,148.328409 C91.4355963,149.836871 91.3750517,151.355334 91.3750517,152.372177 C89.0082005,153.757834 87.0358913,154.912282 84.971362,156.121133 C85.0880405,156.174735 85.0290998,156.142734 84.9665505,156.119533 C81.7741281,154.912282 79.9064688,152.991003 80.9930632,149.262447 C81.4774196,147.599978 80.2168098,147.15276 78.8174686,146.695941 C78.6711192,148.588819 78.5371994,150.319691 78.3868404,152.263372 C76.7048244,151.343334 75.325932,150.589303 73.8235449,149.767668 C73.3624439,150.584102 72.9839402,151.25293 72.572157,151.980961 C74.0789547,152.884598 75.4313838,153.695432 77.0336094,154.655872 C75.401312,155.758718 73.9466388,156.741558 72.4490631,157.753601 C73.6699782,159.258063 74.8900914,159.351667 76.0809347,158.138417 C78.3880433,155.788719 80.6999634,156.075931 82.9794059,158.070014 C83.4028168,158.440429 83.6437922,159.196861 83.6810812,159.793285 C83.7757072,161.300548 83.7336066,162.819411 83.6886994,164.331474 C83.6730621,164.856296 83.6710573,165.577126 83.3510933,165.867538 C80.8523271,168.136032 79.4305324,168.203235 76.6085946,166.347958 C76.3856623,166.201952 76.135064,166.084347 75.9442083,165.90354 C74.6823955,164.70869 73.6094336,165.119907 72.4242037,166.378359 C73.9326053,167.408802 75.3752498,168.393643 77.0135615,169.51289 C75.3896843,170.49173 74.0408637,171.304964 72.5681474,172.192201 C73.0444847,172.977434 73.4682967,173.676663 73.8905047,174.373892 C75.4742863,173.509456 76.8403479,172.764625 78.4413706,171.891389 C78.5756913,173.957474 78.6879594,175.685946 78.8038361,177.46402 C80.4786349,177.004401 81.4914532,176.273971 80.9918603,174.699105 C79.8427165,171.075355 81.8158276,169.342883 84.7937379,168.149633 C84.9697581,168.07883 85.1441746,168.002427 84.9817869,168.07083 C87.1842456,169.338882 89.1681825,170.48093 91.2808268,171.69698 C91.7194741,176.348774 91.7507488,176.412777 87.4645147,178.501263 C85.9725525,179.227694 85.8193867,180.149332 86.3017384,181.685796 C87.9781411,180.906563 89.5567102,180.173333 91.4500308,179.292896 L91.4500308,184.407509 L93.9816754,184.407509 L93.9816754,179.337298 C95.8365041,180.186133 97.4102617,180.906563 99.00527,181.636594 C99.6279568,179.922123 99.1700635,178.982483 97.7073711,178.42166 C96.7150017,178.040844 95.7382696,177.571225 94.8513519,176.992801 C94.436762,176.722389 94.0382104,176.117564 94.0013224,175.636744 C93.8902572,174.193884 93.9612266,172.737824 93.9612266,171.782984 C96.3100348,170.410127 98.2871554,169.255279 100.155216,168.163634 C103.719727,168.965267 105.323556,171.110956 104.344017,174.875513 C103.912186,176.532782 105.08218,177.024402 106.522418,177.45282 C106.664758,175.577942 106.796673,173.83907 106.944626,171.888988 C108.599778,172.800226 109.977869,173.559458 111.495091,174.395093 C111.938951,173.624661 112.325875,172.953433 112.76773,172.187001 C111.311453,171.311364 109.96143,170.499731 108.339958,169.52529 M83.6822841,38.6070456 C80.9730153,18.3518032 63.6504551,1.92952024 43.2725999,0.207848644 C41.7064605,0.0754431375 39.7598126,-0.238969938 39.0236549,1.53710392 C38.2810819,3.32917845 39.8833074,4.40482319 41.118256,5.44086627 C54.8550547,16.9677456 58.3169205,36.3029498 49.4124597,51.7411918 C40.4803329,67.2270358 21.7973244,74.0025176 4.93546417,67.8670624 C3.42666167,67.3178396 1.71417285,66.4270025 0.501677832,67.9570662 C-0.710015269,69.4871298 0.540570694,71.0435945 1.43630941,72.3004468 C6.0998443,78.8439189 12.1017748,83.8153257 19.4757814,87.0642608 C20.0134652,87.3014707 21.0507418,87.1278634 21.500215,86.7370472 C26.7800213,82.1508565 32.8637472,79.5887499 39.8672691,79.3347393 C41.1820083,79.2871374 41.5837675,78.8479191 41.8712539,77.548265 C46.0023175,58.8818888 57.1697815,46.4745728 75.3952977,40.5115248 C78.0343989,39.6478889 80.8266659,39.2506723 83.6822841,38.6070456 M129.384204,70.5839754 C121.890712,52.492023 103.961103,40.9879446 84.407215,43.667656 C61.0089481,46.8741894 48.7921787,61.5491997 45.5243763,84.4261511 C44.70923,84.352948 43.8527851,84.278945 42.9963403,84.1993416 C26.8694348,82.6972792 13.7689555,97.7251041 17.5042741,113.442158 C20.1898864,124.743828 29.6821506,132.046531 41.8263467,132.054532 C73.690427,132.075733 105.556111,132.224539 137.418187,131.983729 C150.474561,131.884925 160.218626,125.51346 165.595063,113.631766 C170.938221,101.823675 169.227737,90.4480015 160.803222,80.5931917 C152.573572,70.9667913 141.816689,68.0702709 129.384204,70.5839754" id="Fill-1" fill="#FFFFFF" mask="url(#mask-2)"></path>
                </g>
                <g id="Group-6" transform="translate(16.840209, 43.503009)">
                    <mask id="mask-4" fill="white">
                        <use xlink:href="#path-3"></use>
                    </mask>
                    <g id="Clip-5"></g>
                    <path d="M112.543916,27.3821788 C124.9764,24.8684742 135.733284,27.7649947 143.962933,37.391395 C152.387448,47.2462049 154.098333,58.6218779 148.755175,70.429969 C143.378337,82.3116631 133.634673,88.6831281 120.577898,88.7819322 C88.7158224,89.0227422 56.8505393,88.873936 24.986058,88.8527352 C12.8418619,88.8447348 3.34999863,81.5420311 0.663985365,70.2403611 C-3.07133327,54.5233075 10.0291461,39.4954825 26.1560515,40.997545 C27.0124964,41.0771483 27.8689413,41.1511514 28.6840876,41.2243544 C31.95189,18.347403 44.1690603,3.67239273 67.5669262,0.465859374 C87.1212151,-2.21385207 105.050825,9.29022636 112.543916,27.3821788" id="Fill-4" fill="#FFFFFF" mask="url(#mask-4)"></path>
                </g>
                <g id="Group-9" transform="translate(0.000000, 0.301213)">
                    <mask id="mask-6" fill="white">
                        <use xlink:href="#path-5"></use>
                    </mask>
                    <g id="Clip-8"></g>
                    <path d="M83.6824044,38.6068856 C80.8267862,39.2505123 78.0345192,39.6477289 75.3954179,40.5113648 C57.1695008,46.4744128 46.0024378,58.8817287 41.8713742,77.548105 C41.5838878,78.8481591 41.1817276,79.2869774 39.8673894,79.3345793 C32.8634665,79.5885899 26.7797407,82.1506964 21.5003353,86.7372872 C21.0504612,87.1277034 20.0135855,87.3013106 19.4755007,87.0641008 C12.1018951,83.8151657 6.09996459,78.8441589 1.43642969,72.3002868 C0.540690981,71.0434345 -0.709894982,69.4869698 0.501798119,67.9573062 C1.71389218,66.4268425 3.426381,67.3176796 4.93558445,67.8669024 C21.7970437,74.0027576 40.4804532,67.2272758 49.41258,51.7410318 C58.3170407,36.3027897 54.855175,16.9675856 41.1179754,5.44070627 C39.8830268,4.40466318 38.2812022,3.32901845 39.0237752,1.53694392 C39.7599328,-0.239129945 41.7065808,0.0752831308 43.2727202,0.207688637 C63.6505754,1.92976025 80.9731356,18.3520432 83.6824044,38.6068856" id="Fill-7" fill="#FFFFFF" mask="url(#mask-6)"></path>
                </g>
                <path d="M86.2244339,162.441556 C86.2484913,166.020904 89.1726732,168.907824 92.7295658,168.863823 C96.3065063,168.819021 99.1444824,165.9133 99.1196231,162.321151 C99.0951647,158.753802 96.1545435,155.852482 92.6088777,155.896483 C89.0383525,155.940885 86.1999755,158.850206 86.2244339,162.441556 M108.340038,169.826663 C109.96151,170.800703 111.311132,171.612737 112.76781,172.487973 C112.325955,173.254405 111.939031,173.926033 111.494771,174.696465 C109.977949,173.86083 108.599859,173.101199 106.944707,172.189961 C106.796753,174.140042 106.664838,175.879314 106.522499,177.753792 C105.08226,177.325775 103.912266,176.833754 104.343696,175.176885 C105.323636,171.412329 103.719807,169.266639 100.155296,168.465006 C98.2872356,169.556251 96.3101149,170.711499 93.9613068,172.083957 C93.9613068,173.038796 93.8903374,174.495257 94.0014025,175.937717 C94.0382906,176.418537 94.4364413,177.023362 94.8514321,177.294173 C95.7383498,177.872197 96.7150819,178.342217 97.7074513,178.722633 C99.1701437,179.283856 99.628037,180.223095 99.0053502,181.937566 C97.4099409,181.207536 95.8365843,180.487106 93.9817556,179.638271 L93.9817556,184.708882 L91.450111,184.708882 L91.450111,179.594269 C89.5567904,180.474305 87.9782213,181.207936 86.3014177,181.986768 C85.8194669,180.450705 85.9726326,179.529066 87.4645949,178.802236 C91.750829,176.714149 91.7195543,176.650146 91.280506,171.998353 C89.1682627,170.782302 87.1843257,169.639855 84.9814661,168.371802 C85.1442548,168.303399 84.9698383,168.380203 84.793818,168.450605 C81.8159078,169.644255 79.8427967,171.376727 80.9919405,175.000478 C81.4915333,176.575343 80.4787151,177.305374 78.8039163,177.765393 C78.6880396,175.986919 78.5757715,174.258847 78.4414508,172.192761 C76.8404281,173.065997 75.4743665,173.810828 73.8905849,174.675264 C73.4683768,173.978035 73.0445649,173.278806 72.5682276,172.493574 C74.0409439,171.605937 75.3897645,170.793103 77.0136417,169.814262 C75.374929,168.695016 73.9326855,167.710175 72.4242839,166.679732 C73.6095138,165.420879 74.6824757,165.010062 75.9442885,166.204512 C76.1347432,166.38532 76.3857425,166.502924 76.6086748,166.649331 C79.4306126,168.504208 80.8524073,168.437005 83.3511735,166.168511 C83.6707365,165.878498 83.6731423,165.157669 83.6887796,164.632847 C83.7336868,163.120384 83.7757873,161.601521 83.6811614,160.094658 C83.6434714,159.498233 83.402897,158.741802 82.9794861,158.370986 C80.7000435,156.377303 78.3881235,156.089691 76.0810149,158.439389 C74.8897706,159.65264 73.6696574,159.559436 72.4491433,158.054573 C73.946719,157.042931 75.4013922,156.06009 77.0336896,154.957244 C75.431464,153.996804 74.0786339,153.185571 72.5722372,152.282333 C72.9840204,151.553903 73.3621232,150.885075 73.8236251,150.068641 C75.3256113,150.890675 76.7049045,151.644707 78.3869206,152.564745 C78.5372796,150.620664 78.6711994,148.889792 78.8175488,146.997313 C80.2168899,147.453732 81.4774998,147.900951 80.9931434,149.56382 C79.906549,153.292375 81.7738073,155.213655 84.9666307,156.420505 C85.02918,156.444106 85.0881207,156.476107 84.9714422,156.422105 C87.0355706,155.213655 89.0078798,154.059207 91.3751319,152.673549 C91.3751319,151.656707 91.4356765,150.137844 91.3354372,148.629781 C91.3077711,148.216164 90.8779448,147.704543 90.4914219,147.466133 C89.588065,146.90811 88.6325837,146.396488 87.6362047,146.034073 C86.035583,145.452049 85.7100056,144.426406 86.3202627,142.765537 C87.9072518,143.522369 89.4457252,144.255599 91.3109788,145.144436 L91.3109788,140.031424 L93.8871297,140.031424 L93.8871297,145.178438 C95.7728321,144.298401 97.3598213,143.55677 99.0306105,142.776338 C99.496523,144.2692 99.5069479,145.499651 97.8578103,145.899268 C94.0042092,146.830906 93.4528929,149.502217 94.0166389,152.826756 C94.0270638,152.889158 94.0679615,152.946361 93.9556934,152.69715 C96.1769971,153.980004 98.1609341,155.124851 100.377426,156.404904 C100.274781,156.459707 100.48809,156.3085 100.725056,156.225697 C103.840094,155.132452 105.207358,153.185171 104.394217,149.751428 C103.990854,148.046957 104.275534,147.979754 106.562995,146.956912 C106.617926,147.948553 106.665239,148.829389 106.71576,149.711026 C106.765078,150.555461 106.8164,151.399496 106.888172,152.592346 C108.527686,151.687908 109.896956,150.933077 111.44024,150.082642 C111.865656,150.76987 112.271024,151.423897 112.779438,152.244731 C111.324765,153.134768 109.94066,153.982404 108.322396,154.972445 C109.943066,156.06769 111.395333,157.049731 112.907343,158.071774 C111.732137,159.380628 110.65276,159.733443 109.392952,158.560994 C109.200493,158.381787 108.953904,158.260182 108.730571,158.113376 C105.860518,156.222897 104.602715,156.279699 102.002907,158.589795 C101.680939,158.876207 101.662495,159.593037 101.646857,160.114659 C101.60195,161.625522 101.545816,163.146385 101.668108,164.648847 C101.720232,165.292874 102.048616,166.068506 102.515732,166.498924 C104.687317,168.497407 106.812792,168.463406 109.123108,166.462523 C110.760217,165.044464 110.914585,165.221671 112.982723,166.572527 C111.469911,167.632971 110.044909,168.631813 108.340038,169.826663" id="Fill-10" fill="#FFFFFF"></path>
                <path d="M136.128748,149.08512 C136.083841,146.817026 134.377366,145.00535 132.312436,145.034952 C130.255124,145.064153 128.57391,146.92543 128.572306,149.175924 C128.570301,151.506021 130.395058,153.436501 132.503292,153.335697 C134.564613,153.236893 136.173254,151.350014 136.128748,149.08512 M143.350391,156.994649 C142.577345,156.550631 141.837579,156.125013 140.892923,155.58139 C140.724922,156.740638 140.579374,157.74268 140.433426,158.745122 C140.257406,158.803124 140.081385,158.860327 139.905365,158.918329 C139.676018,158.288703 139.151966,157.597474 139.268645,157.040651 C139.736161,154.808958 138.688059,153.679311 136.805564,153.083686 C135.61031,153.829317 134.445529,154.555748 133.26471,155.292178 C132.74146,157.332263 133.116355,158.965931 135.431082,159.799566 C135.894188,159.965973 136.121531,160.783207 136.457934,161.300828 C136.32241,161.412433 136.186887,161.524837 136.051363,161.636842 C135.168455,161.234025 134.285547,160.831609 133.45316,160.451993 C132.549001,161.309228 134.150023,163.439717 131.672508,163.539721 C131.610761,162.430875 131.56024,161.516837 131.49328,160.304387 C130.518954,160.779206 129.666117,161.195224 128.813281,161.611241 C128.656507,161.520837 128.500133,161.430433 128.343359,161.34003 C128.662922,160.804807 128.868212,159.949572 129.320893,159.788765 C131.671305,158.954731 131.940748,157.276661 131.455991,155.297778 C130.309654,154.580549 129.195394,153.88332 127.915137,153.081686 C126.259584,153.64171 124.98053,154.558548 125.451655,156.871044 C125.580763,157.50507 125.124073,158.258702 124.935623,158.957931 C124.72111,158.926729 124.506598,158.895128 124.292086,158.863527 C124.160171,157.838284 124.028657,156.812641 123.873888,155.606991 C123.025061,156.070611 122.282488,156.476627 121.319789,157.002649 C119.828228,154.85936 122.62691,155.053368 122.825785,153.734513 C122.227156,153.272494 121.407599,152.639268 120.588443,152.006442 C120.636558,151.804833 120.685074,151.603625 120.73359,151.402016 C121.392764,151.525222 122.093637,151.546422 122.701889,151.794033 C123.648149,152.179649 124.207083,153.4093 125.651732,152.498462 C126.958052,151.675228 127.263581,150.834393 126.944419,149.424334 C126.683396,148.269486 127.768787,146.90743 125.901529,146.010992 C124.691841,145.430968 124.007005,145.568174 123.094427,146.295804 C122.370699,146.873828 121.581614,147.844268 120.54955,146.411409 C121.363093,145.777383 122.173828,145.144956 122.701488,144.734539 C122.038305,143.941306 121.355074,143.196475 120.789724,142.371241 C120.70031,142.241235 121.14417,141.747615 121.372315,141.370799 C122.193475,141.836419 122.92843,142.253236 123.831386,142.765257 C124.011817,141.562407 124.162978,140.556365 124.31454,139.549924 L124.8843,139.413918 C125.093199,140.027943 125.577555,140.701171 125.461278,141.246394 C124.99296,143.438485 125.951248,144.643335 127.930774,145.288962 C129.055459,144.577333 130.213825,143.844502 131.474836,143.046869 C131.82848,141.198792 131.817254,139.414718 129.362192,138.606684 C128.87543,138.445878 128.600774,137.643844 128.228284,137.137823 C128.357794,137.004618 128.487303,136.871012 128.616812,136.737807 C129.539816,137.135823 130.463221,137.53384 131.57708,138.01426 C131.57708,137.161024 131.500898,136.494196 131.607152,135.85817 C131.666494,135.501355 132.027355,135.194142 132.252292,134.864929 C132.551006,135.191342 133.022932,135.477354 133.109138,135.85177 C133.25228,136.474996 133.148031,137.154624 133.148031,138.068662 C134.237031,137.55024 135.113524,137.133423 135.989215,136.716206 C136.135564,136.82261 136.281513,136.928615 136.427461,137.034619 C136.077425,137.575841 135.835648,138.446678 135.359311,138.601884 C133.016116,139.363116 132.88781,141.057586 133.251879,143.056069 C134.366941,143.756098 135.527713,144.484529 136.787521,145.274962 C138.687658,144.730139 139.736562,143.54609 139.261428,141.246394 C139.147957,140.696371 139.625898,140.025143 139.831589,139.409118 C140.026454,139.45352 140.220518,139.497921 140.414982,139.542723 C140.550105,140.509963 140.684826,141.476804 140.854431,142.690054 C141.724108,142.246836 142.506375,141.848819 143.389284,141.3984 C145.043233,143.570091 142.079356,143.234077 141.975107,144.655736 C142.502366,145.076953 143.296662,145.71258 144.127446,146.377807 C143.468673,147.63266 142.738931,147.105038 141.910553,146.555015 C141.103426,146.019393 140.505598,144.99055 139.146754,145.831385 C137.881733,146.614617 137.419831,147.375049 137.743804,148.863911 C138.011243,150.095162 137.095456,151.471219 138.917807,152.426459 C140.218112,153.108087 140.844407,152.608067 141.705664,151.988841 C142.4747,151.436018 143.273407,150.53078 144.139074,151.991641 C143.338763,152.612867 142.560906,153.217292 141.819536,153.793316 C141.982725,155.069769 145.12583,154.760556 143.350391,156.994649" id="Fill-12" fill="#FFFFFF"></path>
                <path d="M56.7521042,151.646947 C56.7837799,149.382852 55.1574969,147.509175 53.0957742,147.435171 C50.9723041,147.358368 49.1748123,149.282048 49.1920535,151.612145 C49.2084927,153.862239 50.9093538,155.722716 52.9610525,155.735517 C55.0139541,155.748317 56.7204286,153.908241 56.7521042,151.646947 M60.6245503,155.315099 C62.1277394,155.223895 62.8675057,152.776594 64.9312331,154.251855 C63.9384627,155.030687 63.1233165,155.670714 62.4116172,156.229137 C62.760851,157.470789 65.6297008,157.124374 64.0182532,159.384468 C63.184262,158.93845 62.3843521,158.510032 61.4737779,158.022812 C61.3153998,159.200861 61.1770695,160.228103 61.0391402,161.254946 C60.8398644,161.293748 60.6405886,161.332549 60.4417137,161.371751 C60.2392303,160.742125 59.7709121,160.061297 59.8823782,159.492873 C60.3089968,157.319183 59.4341079,156.071131 57.3896264,155.487506 C56.2665449,156.199136 55.1057734,156.934367 53.8499749,157.7292 C53.4766837,159.612478 53.5993766,161.35615 56.0035169,162.174584 C56.4826609,162.337791 56.7428822,163.141825 57.1037438,163.650246 C56.961003,163.782251 56.8186631,163.914657 56.6763233,164.046662 C55.8066468,163.641845 54.9373713,163.237429 54.1158097,162.855013 C53.0564804,163.627045 54.9153186,165.91394 52.3038834,165.888739 C52.2333149,164.833895 52.1691618,163.875855 52.0945837,162.760609 C51.0697367,163.226628 50.1852248,163.628645 49.3003119,164.031062 L48.8977508,163.717049 C49.2229272,163.197827 49.4378403,162.372193 49.891724,162.209786 C52.1964269,161.384552 52.6166302,159.769684 52.072932,157.683998 C50.9193777,156.969968 49.7525918,156.247138 48.5224547,155.485106 C46.676848,156.06393 45.6435809,157.200778 46.0814264,159.41487 C46.1997088,160.014495 45.7674768,160.722124 45.5878479,161.380151 C45.3669204,161.35375 45.1459929,161.326949 44.9246644,161.300948 C44.7895418,160.280106 44.6540182,159.258863 44.4896257,158.019212 C43.6075195,158.494831 42.8212422,158.919649 41.9808356,159.372868 C40.3088435,157.191177 43.104719,157.456388 43.5501826,156.217137 C42.8501111,155.678314 42.0365687,155.051888 41.2045822,154.411462 C42.0265447,152.9278 42.8188364,153.835838 43.6187463,154.36226 C44.4030189,154.879481 45.0048559,155.750717 46.2177519,154.910682 C47.2995348,154.161851 48.1190916,153.550226 47.5745915,152.078165 C47.1620064,150.963718 48.5304738,149.525258 46.7341849,148.563218 C45.5814326,147.945993 44.7903437,147.715583 43.7506613,148.655622 C43.0838692,149.258847 42.2731335,150.246488 41.1556654,148.818829 C41.9599858,148.195203 42.7639053,147.572377 43.5413616,146.970352 C43.3525107,145.7231 40.322476,145.981111 41.9668021,143.767419 C42.7699196,144.217838 43.509285,144.632655 44.4383032,145.153477 C44.6167292,143.988628 44.7698949,142.988587 44.9234616,141.988145 L45.4611454,141.820938 C45.6844786,142.414563 46.0854359,143.003387 46.1014742,143.602612 C46.1760523,146.374327 46.1379614,146.375527 48.4739389,147.711583 C49.6302998,146.989153 50.7934771,146.262723 52.0905741,145.452689 C52.5452597,143.525809 52.2902509,141.791737 49.854435,140.938901 C49.412179,140.784495 49.2157099,139.930459 48.9057699,139.399237 C49.0380858,139.304433 49.1704018,139.208829 49.3027177,139.114025 C50.183621,139.524842 51.0641233,139.93606 52.1964269,140.464482 C52.1964269,139.589245 52.0985933,138.927618 52.2317111,138.315992 C52.3163131,137.927176 52.7441346,137.612763 53.0179885,137.265149 C53.2685868,137.639164 53.6490953,137.985178 53.7393107,138.394395 C53.8640085,138.961219 53.7705854,139.576045 53.7705854,140.508083 C54.845552,139.974461 55.7007941,139.550044 56.556838,139.125226 C56.7104047,139.21643 56.8639713,139.306833 57.0179389,139.398037 C56.6943664,139.94286 56.4858685,140.819696 56.0283762,140.977303 C53.6454867,141.798137 53.4389937,143.499408 53.8616027,145.444289 C55.0428231,146.18792 56.1530739,146.886349 57.4036599,147.672781 C59.2889614,147.16756 60.3238323,145.996712 59.8815763,143.702616 C59.7701102,143.122592 60.2171776,142.436164 60.4076323,141.798937 C60.6141254,141.833339 60.8210194,141.86694 61.0279134,141.901341 C61.1742628,142.916584 61.3214141,143.931826 61.4938258,145.121475 C62.365908,144.654256 63.108882,144.255039 64.0435136,143.754218 C65.5078098,145.939109 62.6970988,145.744701 62.394376,146.949951 C63.1056743,147.492774 63.8943574,148.093599 64.6830405,148.695224 C64.6930645,148.861231 64.7034894,149.027238 64.7135133,149.192845 C64.1156859,149.192845 63.4701446,149.338451 62.9296541,149.162443 C61.858697,148.813629 61.2933471,147.328367 59.6341856,148.287207 C58.0832826,149.183644 58.6081358,150.357293 58.3342819,151.576544 C57.8110326,153.907041 59.0904875,154.660672 60.6245503,155.315099" id="Fill-14" fill="#FFFFFF"></path>
                <path d="M86.2244339,162.441556 C86.1999755,158.850206 89.0383525,155.940885 92.6088777,155.896483 C96.1545435,155.852482 99.0951647,158.753802 99.1196231,162.321151 C99.1444824,165.9133 96.3065063,168.819021 92.7295658,168.863823 C89.1726732,168.907824 86.2484913,166.020904 86.2244339,162.441556" id="Fill-16" fill="#000000"></path>
                <path d="M136.128748,149.08512 C136.173254,151.350014 134.564613,153.236893 132.503292,153.335697 C130.395058,153.436501 128.570301,151.506021 128.572306,149.175924 C128.57391,146.92543 130.255124,145.064153 132.312436,145.034952 C134.377366,145.00535 136.083841,146.817026 136.128748,149.08512" id="Fill-18" fill="#000000"></path>
                <path d="M56.7521042,151.646947 C56.7204286,153.908241 55.0139541,155.748317 52.9610525,155.735517 C50.9093538,155.722716 49.2084927,153.862239 49.1920535,151.612145 C49.1748123,149.282048 50.9723041,147.358368 53.0957742,147.435171 C55.1574969,147.509175 56.7837799,149.382852 56.7521042,151.646947" id="Fill-20" fill="#000000"></path>
            </g>
        </g>
    </g>
</svg>